<svg width="40" height="25" viewBox="0 0 40 25" fill="none" xmlns="http://www.w3.org/2000/svg">
<g clip-path="url(#clip0)">
<path fill-rule="evenodd" clip-rule="evenodd" d="M4.91314 9.22436C2.37335 9.21686 0.317383 7.15486 0.317383 4.61201C0.317383 2.06494 2.38081 0 4.92774 0H4.93455H8.41728C8.00943 0.38539 7.75468 0.931491 7.75468 1.53734C7.75468 2.14351 8.00943 2.68929 8.41728 3.07533H4.92709C4.07855 3.07533 3.39095 3.76299 3.39095 4.61201C3.39095 5.46136 4.07855 6.15001 4.92709 6.15001H11.6294L11.6437 6.14936C14.1903 6.14936 16.2547 8.21426 16.2547 10.762C16.2547 13.3088 14.1903 15.3744 11.6437 15.3744L11.6366 15.3737H1.85384C1.00563 15.3737 0.317383 14.6857 0.317383 13.8367C0.317383 12.9896 1.00141 12.3033 1.84638 12.2994H11.6437C12.4922 12.2994 13.1808 11.6107 13.1808 10.762C13.1808 9.91266 12.4922 9.22436 11.6437 9.22436H4.91314Z" fill="white"/>
<path fill-rule="evenodd" clip-rule="evenodd" d="M19.9545 -0.00012207C24.1979 -0.00012207 27.6382 3.44176 27.6382 7.6872C27.6382 7.7434 27.6378 7.79925 27.6365 7.85505L27.6382 7.85765C27.6382 10.3109 29.626 12.2992 32.0772 12.2992C34.53 12.2992 36.5178 10.3109 36.5178 7.85765V1.79339V1.53689C36.5178 0.68819 37.2054 -0.00012207 38.054 -0.00012207C38.9028 -0.00012207 39.5911 0.68819 39.5911 1.53689V7.85765C39.5911 12.0089 36.2271 15.3743 32.0772 15.3743C29.6146 15.3743 27.4282 14.1885 26.0582 12.356C24.6538 14.1908 22.4424 15.3743 19.9545 15.3743H14.4301C15.5632 14.6878 16.4221 13.5956 16.8073 12.2992H19.9545C22.4814 12.2992 24.5331 10.2654 24.5643 7.74435C24.5639 7.67295 24.562 7.59535 24.5613 7.5135C24.4698 5.0463 22.4424 3.07488 19.9545 3.07488H13.8074H10.0505C9.20157 3.07488 8.51367 2.38656 8.51367 1.53689C8.51367 0.68819 9.20157 -0.00012207 10.0505 -0.00012207H19.9545Z" fill="white"/>
<path fill-rule="evenodd" clip-rule="evenodd" d="M24.7471 0.810915C25.006 0.328124 25.5155 -0.00012207 26.1015 -0.00012207C26.9504 -0.00012207 27.6383 0.68819 27.6383 1.53721V4.34046C27.0166 2.91384 26.0093 1.69273 24.7471 0.810915Z" fill="white"/>
<path fill-rule="evenodd" clip-rule="evenodd" d="M0.137695 20.4425L0.142563 19.8308L0.34764 19.8324L0.385606 20.2324L0.431034 20.2915C0.481655 20.3181 0.539737 20.3389 0.605287 20.3528C0.670832 20.3671 0.742222 20.3739 0.819127 20.3746C0.981047 20.3762 1.10954 20.3395 1.20462 20.2645C1.2997 20.1902 1.34772 20.0886 1.34837 19.9613C1.34999 19.7834 1.18483 19.6223 0.853197 19.4775C0.816852 19.4616 0.789272 19.4496 0.770127 19.4415C0.533247 19.3373 0.376845 19.2399 0.300265 19.1502C0.224334 19.0606 0.186693 18.9454 0.187667 18.8035C0.189289 18.6045 0.263922 18.4441 0.411241 18.3223C0.558882 18.2006 0.753577 18.1402 0.995972 18.1421C1.09332 18.1428 1.19067 18.1515 1.28834 18.1688C1.38633 18.1866 1.48595 18.2119 1.58752 18.2451L1.58362 18.784L1.40191 18.7827L1.35194 18.4506L1.30099 18.3928C1.25751 18.3671 1.20949 18.3486 1.15724 18.3366C1.10533 18.3243 1.04886 18.3175 0.987862 18.3168C0.842812 18.3158 0.727617 18.3525 0.642277 18.4272C0.556937 18.5019 0.513457 18.6041 0.512482 18.7327C0.511832 18.8269 0.541037 18.9054 0.599772 18.9671C0.658827 19.0291 0.790892 19.1051 0.996297 19.1934C1.01544 19.2019 1.044 19.2136 1.08261 19.2288C1.28444 19.3093 1.42982 19.3941 1.51873 19.4834C1.56935 19.533 1.60699 19.5912 1.63197 19.6554C1.65696 19.72 1.66929 19.7905 1.66864 19.8668C1.66702 20.0759 1.58362 20.2447 1.41846 20.3713C1.25329 20.4993 1.03491 20.5613 0.763312 20.5593C0.642277 20.5584 0.528382 20.5476 0.421624 20.5282C0.314542 20.5077 0.220116 20.4791 0.137695 20.4425Z" fill="white"/>
<path fill-rule="evenodd" clip-rule="evenodd" d="M2.31445 18.1947L3.16656 18.2015L3.16591 18.3405L2.95013 18.3596L2.8901 18.408L2.88069 19.6665C2.87874 19.91 2.92612 20.0869 3.02314 20.1973C3.11984 20.3074 3.27754 20.3632 3.49462 20.3648C3.70976 20.3661 3.86714 20.3119 3.96643 20.2028C4.0654 20.0934 4.11602 19.9178 4.11797 19.6759L4.12738 18.4418L4.06183 18.3778L3.85351 18.346L3.85448 18.2064L4.58913 18.2126L4.58815 18.3512L4.37886 18.3804L4.31591 18.4434L4.30617 19.7083C4.30487 19.8752 4.2919 20.0019 4.26756 20.0905C4.2429 20.1781 4.20331 20.2554 4.14847 20.3207C4.0787 20.4028 3.98103 20.4665 3.85448 20.5129C3.72761 20.5587 3.58548 20.5814 3.42713 20.5801C3.26748 20.5788 3.12503 20.5544 2.99945 20.5057C2.87452 20.4583 2.7775 20.3928 2.70903 20.3096C2.65419 20.2424 2.61558 20.1645 2.59286 20.0775C2.57047 19.9898 2.55977 19.8629 2.56106 19.6947L2.57112 18.4054L2.51207 18.3557L2.31348 18.3343L2.31445 18.1947Z" fill="white"/>
<path fill-rule="evenodd" clip-rule="evenodd" d="M5.06348 20.5499L5.06448 20.4077L5.28413 20.3924L5.34353 20.343L5.35843 18.4275L5.29973 18.3778L5.08068 18.3551L5.08168 18.2164L5.93018 18.2226L5.92923 18.3622L5.73098 18.3804L5.67063 18.4297L5.65568 20.3947L6.44158 20.4008L6.49123 20.345L6.55418 19.9281L6.73398 19.9294L6.72943 20.5628L5.06348 20.5499Z" fill="white"/>
<path fill-rule="evenodd" clip-rule="evenodd" d="M7.24121 20.5667L7.24216 20.4245L7.43946 20.4089L7.49916 20.3596L7.51411 18.444L7.45506 18.3943L7.25841 18.3719L7.25936 18.2333L8.92466 18.2463L8.92111 18.7534L8.72576 18.7518L8.67901 18.456L8.63131 18.4034L7.82721 18.3966L7.82011 19.2765L8.39056 19.281L8.44021 19.2326L8.47651 18.9794L8.64041 18.9807L8.63456 19.7472L8.47006 19.7459L8.43826 19.494L8.38926 19.4408L7.81881 19.4369L7.81166 20.4112L8.74326 20.4187L8.79291 20.3628L8.85556 20.0119L9.03496 20.0135L9.03111 20.5807L7.24121 20.5667Z" fill="white"/>
<path fill-rule="evenodd" clip-rule="evenodd" d="M9.44827 18.2496L10.2566 18.2564L10.2556 18.3951L10.0567 18.4146L10.0207 18.4529L10.5463 19.4133L11.1375 18.4886L11.1054 18.4392L10.8939 18.4006L10.8948 18.261L11.6045 18.2668L11.6035 18.4055L11.391 18.448L10.6583 19.6009L10.6524 20.384L10.7082 20.4344L10.9438 20.4525L10.9429 20.5957L10.043 20.5883L10.0443 20.4461L10.2802 20.4311L10.337 20.3814L10.3425 19.6448L9.65882 18.4246L9.44727 18.3892L9.44827 18.2496Z" fill="white"/>
<path fill-rule="evenodd" clip-rule="evenodd" d="M11.9688 20.6032L11.9697 20.461L12.1784 20.435L12.2417 20.3691L12.2565 18.4808L12.2125 18.4311L11.9824 18.4084L11.983 18.2698L12.7213 18.275L12.7206 18.3685L13.3608 20.1201L14.0345 18.3918L14.0354 18.285L14.7792 18.2912L14.7782 18.4305L14.5585 18.4487L14.5163 18.4983L14.5017 20.4139L14.5436 20.4633L14.7623 20.4821L14.761 20.6246L13.931 20.6188L13.9323 20.4756L14.1613 20.461L14.1954 20.4113L14.2107 18.4493L13.3706 20.6139L13.221 20.6129L12.4451 18.472L12.4299 20.3707L12.4924 20.4373L12.7047 20.4662L12.7037 20.6094L11.9688 20.6032Z" fill="white"/>
<path fill-rule="evenodd" clip-rule="evenodd" d="M16.2791 18.6387L15.9286 19.6013L16.6302 19.6062L16.2791 18.6387ZM16.2278 18.2731L16.4569 18.2753L17.2733 20.4588L17.4823 20.5029L17.4813 20.6461L16.6915 20.6396L16.6925 20.4974L16.9083 20.4822L16.9342 20.4325L16.6879 19.7669L15.868 19.7601L15.6155 20.4224L15.6506 20.4718L15.8764 20.4906L15.8751 20.6338L15.1943 20.6286L15.1953 20.4854L15.3955 20.4445L16.2278 18.2731Z" fill="white"/>
<path fill-rule="evenodd" clip-rule="evenodd" d="M17.8906 20.6488L17.8916 20.5066L18.1042 20.4806L18.1678 20.4147L18.182 18.5264L18.1197 18.4767L17.8975 18.454L17.8984 18.3153L18.5523 18.3199L18.5516 18.4069L19.7243 20.1975L19.7367 18.5618L19.6747 18.4988L19.466 18.466L19.467 18.3274L20.1971 18.3326L20.1961 18.4722L19.9869 18.5011L19.9242 18.5631L19.9077 20.6647L19.6789 20.6631L18.3699 18.6774L18.3563 20.4163L18.4183 20.4832L18.6272 20.5118L18.6263 20.655L17.8906 20.6488Z" fill="white"/>
<path fill-rule="evenodd" clip-rule="evenodd" d="M22.6312 18.5111L22.6157 20.5257L22.8908 20.528C23.2075 20.5306 23.4451 20.4488 23.6031 20.2825C23.7611 20.1166 23.8413 19.865 23.8439 19.5264C23.8465 19.1874 23.7712 18.9348 23.6164 18.7676C23.4626 18.6001 23.2254 18.516 22.9067 18.5134L22.6312 18.5111ZM22.9213 18.354C23.3283 18.3566 23.6433 18.4611 23.8663 18.6663C24.0882 18.8705 24.1982 19.1582 24.1953 19.529C24.1937 19.7351 24.156 19.9179 24.0824 20.0774C24.0074 20.2368 23.8981 20.3712 23.7537 20.4787C23.6514 20.5549 23.5359 20.6092 23.4081 20.6416C23.2793 20.6738 23.1112 20.689 22.9032 20.6874L22.0459 20.6812L22.0472 20.5381L22.2448 20.5228L22.3038 20.4744L22.3184 18.5585L22.2597 18.5082L22.0631 18.4864L22.0637 18.3468L22.9213 18.354Z" fill="white"/>
<path fill-rule="evenodd" clip-rule="evenodd" d="M24.8721 20.7027L24.873 20.5605L25.0703 20.5449L25.13 20.4956L25.1446 18.58L25.0859 18.5303L24.8893 18.5079L24.8902 18.3693L26.5555 18.3823L26.552 18.8894L26.3563 18.8878L26.3099 18.592L26.2622 18.5394L25.4581 18.5326L25.4506 19.4125L26.0211 19.417L26.0707 19.3686L26.1074 19.1154L26.2713 19.1167L26.2654 19.8832L26.1009 19.882L26.0688 19.63L26.0198 19.5768L25.4493 19.5729L25.4422 20.5472L26.3741 20.555L26.4238 20.4988L26.4864 20.1479L26.6658 20.1495L26.662 20.717L24.8721 20.7027Z" fill="white"/>
<path fill-rule="evenodd" clip-rule="evenodd" d="M27.2842 20.7214L27.2851 20.5792L27.4938 20.5529L27.558 20.4873L27.5726 18.5987L27.5282 18.5493L27.2975 18.5266L27.2988 18.3879L28.037 18.3931L28.036 18.4863L28.6766 20.2383L29.3502 18.51L29.3512 18.4032L30.0949 18.4094L30.0936 18.5487L29.8743 18.5668L29.8324 18.6162L29.8175 20.5318L29.8593 20.5815L30.0777 20.6006L30.0767 20.7428L29.2467 20.737L29.248 20.5938L29.4771 20.5792L29.5112 20.5295L29.5264 18.5675L28.6863 20.7321L28.5367 20.7308L27.7609 18.5899L27.7459 20.4886L27.8082 20.5555L28.0204 20.5844L28.0195 20.7276L27.2842 20.7214Z" fill="white"/>
<path fill-rule="evenodd" clip-rule="evenodd" d="M30.7285 20.7481L30.7295 20.6059L30.9521 20.5903L31.0118 20.541L31.0267 18.6254L30.9677 18.5757L30.7457 18.5533L30.747 18.4147L31.6293 18.4208L31.628 18.5604L31.4058 18.5786L31.3457 18.628L31.3308 20.5436L31.3902 20.5932L31.6128 20.6121L31.6118 20.7549L30.7285 20.7481Z" fill="white"/>
<path fill-rule="evenodd" clip-rule="evenodd" d="M32.8513 18.5899L32.8442 19.558C32.8789 19.5597 32.912 19.5606 32.9438 19.5613C32.9756 19.5623 33.0068 19.5629 33.0353 19.5629C33.2501 19.5652 33.4072 19.5285 33.5061 19.4529C33.6041 19.3785 33.6544 19.2574 33.6557 19.0895C33.6564 18.9168 33.6071 18.7908 33.5071 18.7123C33.4068 18.6337 33.2443 18.5934 33.0197 18.5915L32.8513 18.5899ZM32.2838 18.4259L33.1696 18.4334C33.4536 18.4347 33.6638 18.4882 33.8001 18.5915C33.9367 18.6947 34.0036 18.8525 34.002 19.0642C34.0007 19.2145 33.9533 19.3379 33.8585 19.434C33.7638 19.5301 33.6226 19.5977 33.4357 19.6369C33.5224 19.6613 33.595 19.6925 33.6541 19.7314C33.7122 19.7697 33.7583 19.8168 33.7917 19.874C33.8303 19.9363 33.8618 20.0288 33.8881 20.1496C33.9143 20.2707 33.9351 20.3512 33.9513 20.3908C33.9851 20.4863 34.0331 20.5512 34.0938 20.586C34.1551 20.6217 34.2567 20.6392 34.4004 20.6402L34.4309 20.6405L34.43 20.7736C34.378 20.7834 34.3303 20.7902 34.2859 20.7954C34.2411 20.8003 34.1992 20.8019 34.1597 20.8016C34.0795 20.8016 34.011 20.7921 33.9536 20.7753C33.8971 20.759 33.8485 20.7337 33.8092 20.6986C33.7271 20.6259 33.6596 20.4834 33.6071 20.273C33.5879 20.1964 33.5717 20.1395 33.5597 20.1022C33.5139 19.9606 33.4526 19.8623 33.3737 19.8067C33.2955 19.7519 33.1765 19.7236 33.0178 19.7227C32.9834 19.7223 32.9289 19.7236 32.8546 19.7269L32.8429 19.7285L32.8361 20.5558L32.8955 20.6051L33.0934 20.624L33.0924 20.7662L32.2656 20.7603L32.2666 20.6171L32.4645 20.6016L32.5236 20.5532L32.5385 18.6373L32.4795 18.5869L32.2825 18.5655L32.2838 18.4259Z" fill="white"/>
<path fill-rule="evenodd" clip-rule="evenodd" d="M34.9287 20.7803L34.9297 20.6381L35.127 20.6225L35.1867 20.5732L35.2016 18.6576L35.1425 18.6079L34.9459 18.5855L34.9472 18.4469L36.6122 18.4595L36.6083 18.967L36.4129 18.9654L36.3669 18.6696L36.3188 18.617L35.5147 18.6102L35.5073 19.4901L36.0777 19.4946L36.1277 19.4462L36.164 19.193L36.3279 19.1943L36.3221 19.9608L36.1576 19.9595L36.1254 19.7073L36.0768 19.6544L35.5063 19.6505L35.4988 20.6248L36.4308 20.6323L36.4804 20.5764L36.543 20.2251L36.7225 20.2271L36.7186 20.794L34.9287 20.7803Z" fill="white"/>
<path fill-rule="evenodd" clip-rule="evenodd" d="M37.3281 20.7988L37.3291 20.6566L37.5488 20.6413L37.6078 20.5919L37.6227 18.6764L37.5643 18.6267L37.3453 18.604L37.3466 18.4653L38.1948 18.4715L38.1935 18.6111L37.9956 18.6293L37.9352 18.679L37.92 20.6436L38.7062 20.6497L38.7555 20.5939L38.8182 20.177L38.9979 20.1783L38.9934 20.8117L37.3281 20.7988Z" fill="white"/>
<path fill-rule="evenodd" clip-rule="evenodd" d="M0.00097347 22.3787L0.853085 22.3855L0.85211 22.5245L0.636325 22.5436L0.57662 22.592L0.56721 23.8504C0.56526 24.094 0.612635 24.2709 0.70966 24.381C0.80668 24.4914 0.96406 24.5472 1.18114 24.5488C1.39628 24.5501 1.55366 24.4959 1.65296 24.3868C1.75192 24.2774 1.80287 24.1017 1.80482 23.8599L1.81422 22.6258L1.74836 22.5618L1.53971 22.5303L1.54101 22.3907L2.27597 22.3969L2.27467 22.5355L2.06603 22.5644L2.00243 22.6274L1.99269 23.8923C1.99139 24.0592 1.97874 24.1858 1.9544 24.2745C1.92974 24.3621 1.89015 24.4394 1.83531 24.5047C1.76555 24.5868 1.66755 24.6504 1.54101 24.6969C1.41446 24.7427 1.272 24.7654 1.11365 24.7641C0.954 24.7628 0.81155 24.7384 0.68597 24.6897C0.561045 24.6423 0.464021 24.5767 0.395553 24.4936C0.340715 24.4264 0.301776 24.3485 0.279386 24.2615C0.256996 24.1738 0.246288 24.0469 0.247586 23.8787L0.257645 22.5897L0.198263 22.5401L0 22.5183L0.00097347 22.3787Z" fill="white"/>
<path fill-rule="evenodd" clip-rule="evenodd" d="M4.56445 24.7479L4.56543 24.6057L4.77797 24.5797L4.84124 24.5138L4.85552 22.6255L4.79354 22.5758L4.57127 22.5534L4.57192 22.4144L5.22578 22.419L5.22513 22.506L6.39783 24.2966L6.41048 22.6609L6.34848 22.5979L6.13953 22.5654L6.14048 22.4268L6.87063 22.4316L6.86963 22.5712L6.66068 22.6005L6.59773 22.6625L6.58148 24.7638L6.35208 24.7622L5.04308 22.7768L5.02978 24.5154L5.09208 24.5823L5.30073 24.6109L5.29973 24.754L4.56445 24.7479Z" fill="white"/>
<path fill-rule="evenodd" clip-rule="evenodd" d="M9.2207 24.784L9.22165 24.6418L9.44425 24.6262L9.504 24.5769L9.5186 22.6616L9.45985 22.6119L9.2379 22.5892L9.23885 22.4506L10.1215 22.457L10.1202 22.5967L9.8976 22.6148L9.8379 22.6642L9.82295 24.5795L9.88235 24.6291L10.105 24.648L10.104 24.7908L9.2207 24.784Z" fill="white"/>
<path fill-rule="evenodd" clip-rule="evenodd" d="M12.3193 22.4739L13.1293 22.4807L13.1283 22.6193L12.9258 22.6385L12.8882 22.6872L13.5284 24.445L14.1699 22.6969L14.1365 22.6476L13.921 22.6258L13.9217 22.4862L14.6144 22.4921L14.6135 22.6307L14.3977 22.67L13.5816 24.8346L13.3402 24.833L12.5403 22.656L12.3184 22.6135L12.3193 22.4739Z" fill="white"/>
<path fill-rule="evenodd" clip-rule="evenodd" d="M16.8018 24.8423L16.8028 24.7001L17 24.6846L17.0598 24.6352L17.0744 22.7199L17.0156 22.6703L16.819 22.6479L16.82 22.5089L18.4852 22.5219L18.4813 23.0294L18.286 23.0277L18.2396 22.732L18.1919 22.679L17.3875 22.6725L17.3807 23.5521L17.9511 23.5566L18.0008 23.5083L18.0368 23.255L18.201 23.2563L18.1951 24.0229L18.0306 24.0216L17.9985 23.7693L17.9498 23.7164L17.3794 23.7125L17.3716 24.6868L18.3035 24.6946L18.3535 24.6385L18.4158 24.2875L18.5956 24.2891L18.5917 24.8566L16.8018 24.8423Z" fill="white"/>
<path fill-rule="evenodd" clip-rule="evenodd" d="M21.5466 22.7046L21.5392 23.6724C21.5742 23.6741 21.6073 23.675 21.6394 23.6757C21.6709 23.6767 21.7017 23.6773 21.7306 23.6776C21.9458 23.6796 22.1028 23.6429 22.2015 23.5676C22.2994 23.4929 22.3494 23.3718 22.3507 23.2043C22.352 23.0315 22.303 22.9052 22.2024 22.827C22.1025 22.7484 21.9399 22.7082 21.7147 22.7062L21.5466 22.7046ZM20.9791 22.5406L21.865 22.5478C22.1489 22.5494 22.3595 22.603 22.4958 22.7062C22.6314 22.8091 22.6986 22.9672 22.6969 23.1789C22.696 23.3293 22.6479 23.4523 22.5532 23.5484C22.4591 23.6445 22.3179 23.7121 22.1314 23.7513C22.218 23.776 22.2907 23.8072 22.3494 23.8458C22.4078 23.8841 22.4539 23.9312 22.487 23.9884C22.5256 24.051 22.5574 24.1432 22.5834 24.2643C22.6097 24.3851 22.6304 24.4656 22.6463 24.5052C22.6807 24.6007 22.7281 24.6656 22.7891 24.7007C22.8498 24.7361 22.9523 24.7539 23.0957 24.7549H23.1266L23.1256 24.888C23.0734 24.8978 23.025 24.9046 22.9809 24.9095C22.9367 24.9146 22.8946 24.9163 22.8553 24.9163C22.7751 24.9159 22.7064 24.9069 22.6489 24.8896C22.5921 24.8734 22.5441 24.8481 22.5049 24.813C22.4228 24.7406 22.3556 24.5981 22.303 24.3874C22.2832 24.3108 22.267 24.2539 22.255 24.2166C22.2096 24.075 22.1479 23.9763 22.0694 23.9211C21.9912 23.8663 21.8721 23.8383 21.7128 23.8371C21.679 23.8367 21.6245 23.838 21.5499 23.8409L21.5379 23.8429L21.5317 24.6702L21.5908 24.7195L21.789 24.7383L21.788 24.8806L20.9609 24.8747L20.9622 24.7315L21.1595 24.7159L21.2192 24.6676L21.2338 22.752L21.1748 22.7017L20.9781 22.6802L20.9791 22.5406Z" fill="white"/>
<path fill-rule="evenodd" clip-rule="evenodd" d="M25.4561 24.8395L25.4613 24.2278L25.666 24.2294L25.7043 24.6294L25.7491 24.6889C25.8004 24.7152 25.8581 24.7359 25.9237 24.7499C25.9895 24.7642 26.0603 24.771 26.1378 24.7716C26.2998 24.7733 26.4279 24.7369 26.523 24.6616C26.6181 24.5876 26.6661 24.4856 26.6668 24.3583C26.6684 24.1804 26.5039 24.0194 26.1716 23.8749C26.1359 23.8587 26.108 23.8466 26.0888 23.8385C25.852 23.7343 25.6952 23.6369 25.619 23.5476C25.543 23.4577 25.5051 23.3427 25.5061 23.2005C25.5077 23.0018 25.5826 22.8414 25.7303 22.7194C25.8773 22.5976 26.072 22.5376 26.3147 22.5395C26.4117 22.5405 26.5091 22.5489 26.6071 22.5661C26.7054 22.584 26.8043 22.609 26.9066 22.6421L26.902 23.1814L26.7203 23.1801L26.67 22.8479L26.62 22.7902C26.5756 22.7642 26.5282 22.746 26.4763 22.7337C26.4237 22.7216 26.3676 22.7145 26.3059 22.7142C26.1612 22.7129 26.046 22.7499 25.961 22.8249C25.8753 22.8989 25.8318 23.0015 25.8309 23.1301C25.8302 23.2239 25.8594 23.3028 25.9182 23.3642C25.9772 23.4262 26.1099 23.5022 26.3147 23.5905C26.3338 23.5992 26.3627 23.6106 26.401 23.6259C26.6028 23.7067 26.7482 23.7911 26.8371 23.8804C26.8877 23.9304 26.9251 23.9882 26.9504 24.0525C26.9757 24.1171 26.988 24.1876 26.9874 24.2639C26.9854 24.4729 26.902 24.6418 26.7365 24.7687C26.5717 24.8963 26.354 24.9583 26.0824 24.9564C25.9613 24.9554 25.8468 24.945 25.7397 24.9252C25.6333 24.9048 25.5385 24.8762 25.4561 24.8395Z" fill="white"/>
<path fill-rule="evenodd" clip-rule="evenodd" d="M29.458 24.94L29.459 24.7978L29.6816 24.7825L29.7413 24.7332L29.7559 22.8176L29.6972 22.7679L29.4752 22.7452L29.4765 22.6066L30.3588 22.6134L30.3575 22.7527L30.1352 22.7709L30.0749 22.8202L30.0603 24.7358L30.1196 24.7855L30.3422 24.804L30.3413 24.9468L29.458 24.94Z" fill="white"/>
<path fill-rule="evenodd" clip-rule="evenodd" d="M32.6927 22.6311L34.6568 22.6467L34.6523 23.1811L34.4605 23.1795L34.4157 22.8565L34.3668 22.8035L33.8352 22.8L33.8206 24.7646L33.8774 24.8149L34.1114 24.8331L34.1104 24.9763L33.2022 24.9688L33.2031 24.8266L33.4361 24.8113L33.4961 24.762L33.5107 22.7974L32.9805 22.7928L32.9299 22.8451L32.8786 23.1675L32.6885 23.1659L32.6927 22.6311Z" fill="white"/>
<mask id="mask0" mask-type="alpha" maskUnits="userSpaceOnUse" x="36" y="22" width="3" height="4">
<path d="M36.8213 22.6628H38.9791V25.0088H36.8213V22.6628Z" fill="white"/>
</mask>
<g mask="url(#mask0)">
<path fill-rule="evenodd" clip-rule="evenodd" d="M36.8226 22.6628L37.6309 22.6697L37.6296 22.8083L37.431 22.8278L37.3953 22.8664L37.9203 23.8265L38.5115 22.9018L38.4797 22.8524L38.2678 22.8135L38.2691 22.6739L38.9791 22.68L38.9778 22.8187L38.765 22.8612L38.0326 24.0138L38.0267 24.7969L38.0826 24.8472L38.3181 24.8658L38.3172 25.0089L37.4174 25.0015L37.4183 24.8593L37.6546 24.844L37.711 24.7947L37.7169 24.058L37.0332 22.8378L36.8213 22.8024L36.8226 22.6628Z" fill="white"/>
</g>
</g>
<defs>
<clipPath id="clip0">
<rect width="40" height="25" fill="white"/>
</clipPath>
</defs>
</svg>
