<svg width="170" height="170" viewBox="0 0 170 170" fill="none" xmlns="http://www.w3.org/2000/svg">
<path d="M3.12563 21.8282C3.9498 12.1278 12.1085 4.72821 21.8439 4.72821H148.344C157.956 4.72821 166.062 11.9467 166.973 21.5154C171.464 68.6586 170.604 101.011 166.711 148.068C165.905 157.811 157.73 165.274 147.953 165.274H21.7129C12.0326 165.274 3.89681 157.954 3.03421 148.313C-1.1185 101.896 -0.932432 69.5912 3.12563 21.8282Z" fill="url(#paint0_linear)"/>
<path d="M21.8267 166.874C12.1263 166.05 4.72669 157.892 4.72669 148.156V21.6558C4.72669 12.0438 11.9452 3.93793 21.5139 3.0265C68.657 -1.4639 101.01 -0.603831 148.066 3.28869C157.81 4.09468 165.272 12.2701 165.272 22.0468V148.287C165.272 157.967 157.953 166.103 148.311 166.966C101.895 171.118 69.5897 170.932 21.8267 166.874Z" fill="url(#paint1_linear)"/>
<path d="M53.8833 64.6833C71.2389 47.3278 99.3833 47.3278 116.739 64.6833M99.8167 110.928C91.6333 110.928 85 104.294 85 96.1111M80.7222 118.333C74.4833 112.933 70.4944 105.022 70.4944 96.1111C70.4944 87.9278 77.1278 81.2944 85.3111 81.2944C93.4944 81.2944 100.128 87.9278 100.128 96.1111M61.65 118.333C57.8611 111.794 55.6778 104.211 55.6778 96.1111C55.6778 79.7444 68.9444 66.4833 85.3056 66.4833C101.667 66.4833 114.933 79.75 114.933 96.1111M35 112.778V123.889C35 130.028 39.9722 135 46.1111 135H57.2222M135 57.2222V46.1111C135 39.9722 130.028 35 123.889 35H112.778M57.2222 35H46.1111C39.9722 35 35 39.9722 35 46.1111V57.2222M112.778 135H123.889C130.028 135 135 130.028 135 123.889V112.778" stroke="white" stroke-opacity="0.1" stroke-linecap="round" stroke-linejoin="round"/>
<defs>
<linearGradient id="paint0_linear" x1="85" y1="0" x2="85" y2="170" gradientUnits="userSpaceOnUse">
<stop stop-color="#262626"/>
<stop offset="1" stop-color="#212121"/>
</linearGradient>
<linearGradient id="paint1_linear" x1="85" y1="0" x2="85" y2="170" gradientUnits="userSpaceOnUse">
<stop stop-color="#262626"/>
<stop offset="1" stop-color="#212121"/>
</linearGradient>
</defs>
</svg>
