<svg width="440" height="220" viewBox="0 0 440 220" fill="none" xmlns="http://www.w3.org/2000/svg">
<g clip-path="url(#clip0)">
<path d="M243.936 60.4666L250.435 52.522L246.337 38.507L239.169 33.9646C239.169 33.9646 218.298 31.3682 218.059 31.3682C217.82 31.3682 209.219 37.2117 209.219 37.2117L218.663 52.2594L234.54 69.8557L243.936 60.4666Z" fill="#EFA08D"/>
<path d="M115.253 53.3635L94.89 93.773L86.5811 110.235L78.9112 125.408C78.222 126.764 77.0566 127.818 75.6382 128.369C74.2197 128.919 72.6479 128.928 71.2235 128.393L1.7769 102.338C1.1101 102.091 0.567348 101.591 0.265625 100.948L10.0261 88.8367L41.7747 71.0912C45.0899 70.4943 49.8985 69.0796 51.5352 66.137L70.5067 37.522L112.995 48.4093C113.501 48.5393 113.972 48.7808 114.372 49.1161C114.773 49.4515 115.093 49.8721 115.309 50.3472C115.526 50.8222 115.633 51.3397 115.623 51.8617C115.614 52.3836 115.487 52.8967 115.253 53.3635Z" fill="#33313B"/>
<path d="M222.38 75.6273L256.368 65.4443L267.813 64.4058L291.109 227.954C291.109 227.954 235.79 232.896 234.864 232.586C233.938 232.276 198.086 197.369 198.086 197.369L222.947 148.496L222.38 75.6273Z" fill="#026FFF"/>
<path d="M256.368 65.4447C252.187 75.7172 246.733 82.1577 244.201 84.8496C244.003 85.0577 243.773 85.233 243.52 85.3689C243.116 85.6007 242.659 85.726 242.194 85.733C241.781 85.737 241.373 85.6493 240.999 85.4764C234.082 82.2711 228.556 77.0244 226.012 74.3324L230.014 72.8879L229.554 64.6687C230.248 64.3438 230.891 63.9173 231.459 63.4033L238.03 57.3926L241.746 53.9844C241.692 55.1782 242.253 56.6823 244.691 58.0552C246.775 59.249 248.406 59.6668 249.786 59.3743L252.772 66.1192C253.937 65.8625 255.144 65.6417 256.368 65.4447Z" fill="#EFA08D"/>
<path d="M237.653 153.904C236.183 161.666 233.371 169.113 229.344 175.911C222.845 186.793 214.01 194.266 205.635 199.333C203.64 200.527 201.663 201.619 199.758 202.568C198.42 203.237 197.111 203.846 195.845 204.395C193.067 205.589 190.511 206.538 188.301 207.26C187.7 207.458 187.052 207.466 186.447 207.284C185.841 207.101 185.306 206.737 184.915 206.24C184.523 205.743 184.294 205.138 184.259 204.507C184.223 203.876 184.383 203.249 184.717 202.712C187.537 198.143 190.002 193.364 192.088 188.416C193.265 185.64 194.262 182.791 195.074 179.887C195.599 178.006 196.79 176.381 198.425 175.314C210.372 167.459 216.196 153.659 218.598 138.618C219.195 135.006 219.559 131.329 219.792 127.647C220.987 108.254 217.749 88.6696 215.611 78.3255C217.833 77.3347 220.097 76.4274 222.385 75.6216C224.499 80.7907 226.901 87.0342 229.194 93.8686C231.297 100.136 233.31 106.899 234.935 113.781C235.222 114.975 235.49 116.168 235.741 117.362C236.524 120.979 237.181 124.608 237.677 128.196C237.852 129.449 238.005 130.697 238.137 131.938C238.358 134.004 238.519 136.045 238.608 138.056C238.918 143.358 238.598 148.678 237.653 153.904Z" fill="#33313B"/>
<path d="M225.388 144.67L200.3 146.753C191.514 150.666 181.871 152.262 172.292 151.391C162.713 150.519 153.518 147.209 145.583 141.775L100.383 110.802L104.367 102.213L166.49 114.557C166.49 114.557 188.233 90.4723 215.627 78.3315C221.601 81.316 225.943 87.1834 226.851 95.0445C226.851 95.0445 225.531 98.8527 225.531 98.8706C226.899 111.113 227.592 130.918 225.388 144.67Z" fill="#33313B"/>
<path d="M267.812 64.4058C267.388 67.617 266.886 71.9624 266.432 77.3225L259.108 90.7884C258.921 91.1499 258.662 91.4694 258.347 91.7273C258.032 91.9851 257.667 92.1758 257.276 92.2876C256.884 92.3994 256.474 92.43 256.07 92.3775C255.666 92.3249 255.277 92.1904 254.927 91.9822L251.009 89.7199L243.5 85.3865C243.753 85.2506 243.983 85.0753 244.181 84.8672C246.714 82.2051 252.155 75.7348 256.349 65.4623C260.138 64.8231 263.97 64.4699 267.812 64.4058Z" fill="#2D4EF5"/>
<path d="M424.47 162.29L423.819 163.717L420.719 170.539L357.586 167.555C344.591 166.944 331.934 163.218 320.683 156.691C326.656 186.942 335.987 208.191 339.732 215.945C340.249 217.016 340.518 218.19 340.518 219.38C340.518 220.569 340.249 221.744 339.732 222.815C332.08 238.632 320.241 250.367 310.492 258.067C306.978 260.853 303.313 263.444 299.513 265.827C298.823 266.257 298.044 266.527 297.236 266.616C296.427 266.705 295.608 266.611 294.841 266.341C294.073 266.071 293.376 265.632 292.801 265.057C292.227 264.481 291.789 263.783 291.521 263.016C290.923 261.261 290.326 259.518 289.729 257.775C286.288 247.564 283.281 237.564 280.709 227.775C279.962 224.958 279.257 222.164 278.576 219.419C269.818 183.873 265.304 147.415 265.13 110.808C265.095 97.3125 265.728 85.9894 266.445 77.3285C266.898 71.9565 267.4 67.6231 267.824 64.4118C292.698 64.0596 320.988 76.8868 350.114 127.802L424.47 162.29Z" fill="#33313B"/>
<path d="M242.192 85.7328L237.008 92.8955L235.407 95.1099C235.007 95.659 234.407 96.0291 233.737 96.1408C233.067 96.2524 232.379 96.0966 231.823 95.7068L229.194 93.8624C226.901 87.028 224.499 80.7845 222.385 75.6155C223.579 75.1976 224.774 74.7619 225.999 74.3262C228.543 77.0182 234.069 82.2648 240.986 85.4701C241.363 85.6469 241.776 85.7366 242.192 85.7328Z" fill="#2D4EF5"/>
<path d="M222.32 301.581L225.647 333.921L229.123 367.645L236.357 437.905L225.659 440.693L181.772 325.278V325.218C177.383 313.684 175.876 301.255 177.38 289.008C178.884 276.761 183.354 265.065 190.404 254.934L222.935 208.215C225.981 209.523 229.303 210.83 232.875 212.065C242.105 215.281 251.66 217.483 261.368 218.631C267.075 219.294 272.822 219.537 278.565 219.359C279.246 222.129 279.951 224.922 280.698 227.716C283.282 237.489 286.289 247.489 289.717 257.716C277.86 270 256.171 288.163 222.32 301.581Z" fill="#33313B"/>
<path d="M190.403 254.934C183.348 265.064 178.872 276.761 177.364 289.011C175.856 301.26 177.361 313.693 181.748 325.23V325.289L155.513 301.82C151.387 298.129 148.073 293.621 145.782 288.583C143.491 283.545 142.273 278.086 142.204 272.553C142.136 267.02 143.219 261.532 145.384 256.439C147.55 251.346 150.751 246.758 154.784 242.966L195.839 204.401C197.106 203.852 198.414 203.243 199.752 202.575C201.657 201.625 203.634 200.551 205.63 199.339C207.589 200.533 210.283 202.091 213.61 203.804C216.316 205.201 219.446 206.705 222.946 208.209L190.403 254.934Z" fill="#19181F"/>
<path d="M439.708 178.001C439.587 178.427 439.371 178.82 439.076 179.151C438.781 179.482 438.415 179.741 438.005 179.91C437.595 180.079 437.152 180.153 436.709 180.126C436.266 180.099 435.836 179.973 435.449 179.756L430.431 176.956C430.333 176.903 430.219 176.884 430.108 176.901C429.997 176.918 429.895 176.97 429.816 177.05C429.738 177.13 429.687 177.233 429.672 177.344C429.657 177.456 429.678 177.568 429.733 177.666L431.077 179.97C431.197 180.174 431.243 180.413 431.208 180.646C431.174 180.88 431.06 181.095 430.886 181.254C430.712 181.414 430.488 181.51 430.252 181.525C430.016 181.54 429.782 181.474 429.589 181.337L429.541 181.302C427.596 179.937 425.917 178.228 424.59 176.258L420.719 170.54L423.819 163.717L424.47 162.291L432.02 164.738C433.383 165.18 434.637 165.905 435.7 166.866C436.762 167.827 437.609 169.001 438.185 170.313L439.38 173.023C440.065 174.593 440.181 176.354 439.708 178.001Z" fill="#EFA08D"/>
<path d="M104.369 102.214L100.384 110.803L91.3585 110.421L84.1367 110.116L92.4995 93.1766L94.9725 93.8033C95.1139 93.8611 95.2688 93.8778 95.4194 93.8516C95.57 93.8254 95.71 93.7572 95.8236 93.655C95.9371 93.5527 96.0195 93.4206 96.0612 93.2737C96.103 93.1267 96.1024 92.9711 96.0596 92.8245L95.7908 91.9112L94.7813 88.4612C94.7294 88.2885 94.7371 88.1033 94.803 87.9355C94.8688 87.7676 94.9892 87.6266 95.1447 87.5352C95.3002 87.4437 95.482 87.407 95.6608 87.431C95.8397 87.4549 96.0053 87.5381 96.1313 87.6673L97.3259 88.8611L98.0607 89.6012C101.182 92.7501 103.3 96.7526 104.148 101.103L104.369 102.214Z" fill="#EFA08D"/>
<path d="M106.137 0.115037L50.9485 16.446C48.0803 17.2939 45.6525 19.2194 44.1747 21.818L0.359929 98.4231C0.141413 98.805 0.0185931 99.2341 0.001951 99.6738C-0.0146911 100.113 0.0753357 100.551 0.264353 100.948L55.6436 91.2484C57.2814 90.9631 58.8345 90.3154 60.1895 89.3529C61.5444 88.3904 62.6669 87.1373 63.4747 85.6854L87.876 41.987L109.153 3.88142C109.407 3.42943 109.52 2.9121 109.477 2.39567C109.435 1.87924 109.239 1.38723 108.915 0.982668C108.591 0.578107 108.153 0.27941 107.658 0.124837C107.163 -0.0297365 106.634 -0.0331499 106.137 0.115037Z" fill="#3C4F65"/>
<path d="M106.137 0.114933L105.08 0.425319C105.638 0.78229 106.039 1.33941 106.199 1.9822C106.359 2.62498 106.266 3.30458 105.94 3.88132L84.663 41.9869L60.2438 85.6853C59.9614 86.1721 59.5743 86.5902 59.1105 86.9092C58.6466 87.2281 58.1176 87.4401 57.5617 87.5297L7.00296 96.3876C6.72328 96.4357 6.43569 96.4035 6.17361 96.2947C5.91154 96.1859 5.68574 96.005 5.52245 95.7731C5.35917 95.5412 5.26511 95.2677 5.2512 94.9845C5.2373 94.7012 5.30412 94.4199 5.4439 94.1731L49.2886 17.5501C49.414 17.3293 49.5574 17.1144 49.6948 16.9055C47.3685 17.8925 45.4299 19.6137 44.1753 21.806L0.36055 98.423C0.0148243 99.027 -0.0856712 99.7407 0.0797997 100.417C0.125306 100.599 0.187284 100.777 0.264973 100.948L55.6442 91.2483C56.0086 91.1827 56.361 91.0991 56.7135 91.0036H56.8031C57.1436 90.9081 57.4721 90.7947 57.7947 90.6693L57.9141 90.6216C58.2287 90.4903 58.5393 90.347 58.846 90.1918L58.9655 90.1321C59.2641 89.971 59.5628 89.7919 59.8495 89.6069L59.9391 89.5412C60.233 89.3478 60.5162 89.1386 60.7873 88.9145L60.8411 88.8727C61.7152 88.1474 62.4744 87.2941 63.0931 86.3419C63.2304 86.1389 63.3559 85.93 63.4754 85.7152L87.8766 42.0167L109.154 3.91116C109.417 3.45863 109.538 2.93722 109.5 2.41503C109.463 1.89284 109.268 1.39416 108.942 0.984149C108.617 0.574134 108.175 0.271847 107.674 0.116777C107.174 -0.0382932 106.638 -0.0389383 106.137 0.114933Z" fill="#1F2C3E"/>
<path d="M114.094 48.8867C114.046 49.0295 113.988 49.169 113.921 49.3045L85.249 106.158L77.5672 121.331C76.878 122.687 75.7126 123.741 74.2942 124.292C72.8757 124.842 71.3039 124.851 69.8795 124.316L5.23549 100.076L0.265625 100.936C0.567348 101.579 1.1101 102.079 1.7769 102.326L71.2235 128.393C72.6479 128.928 74.2197 128.919 75.6382 128.369C77.0566 127.818 78.222 126.764 78.9112 125.408L86.5631 110.235L94.89 93.773L95.8219 91.9286L94.8124 88.4785C94.7605 88.3058 94.7682 88.1207 94.834 87.9528C94.8999 87.7849 95.0203 87.644 95.1758 87.5525C95.3313 87.4611 95.5131 87.4244 95.6919 87.4483C95.8708 87.4723 96.0364 87.5555 96.1624 87.6847L97.3571 88.8784L115.277 53.3694C115.66 52.6065 115.752 51.73 115.534 50.9046C115.316 50.0793 114.804 49.3617 114.094 48.8867Z" fill="#19181F"/>
<path d="M250.083 91.5584L246.649 98.3331H241.183L238.005 94.2026C237.717 93.8272 237.557 93.3687 237.551 92.8954C237.545 92.4222 237.691 91.9595 237.969 91.5763L237.999 91.5405L242.18 85.7327C242.646 85.7257 243.103 85.6004 243.507 85.3687L249.211 88.6635C249.701 88.9416 250.065 89.3975 250.227 89.9365C250.389 90.4755 250.338 91.0563 250.083 91.5584Z" fill="#E6F5FF"/>
<path d="M246.65 98.3336C245.664 108.308 243.388 116.306 240.127 123.361C239.362 125.013 238.544 126.62 237.672 128.184C236.4 130.476 235.014 132.691 233.532 134.863C228.843 141.734 223.186 148.192 216.968 155.569C205.762 168.856 201.192 180.155 199.556 185.211C199.283 186.042 198.766 186.771 198.072 187.303C197.379 187.836 196.54 188.147 195.667 188.196L192.083 188.405L185.064 188.81C184.181 188.86 183.313 188.567 182.64 187.993C181.967 187.42 181.541 186.61 181.45 185.73L180.656 177.875L180.297 174.294C180.197 173.266 180.309 172.227 180.626 171.244C183.201 163.299 188.248 155.814 194.592 148.908C201.861 140.993 210.845 133.837 219.782 127.617C220.654 127.008 221.524 126.411 222.392 125.826C227.273 122.599 231.524 118.509 234.936 113.757C240.85 105.401 241.19 98.3037 241.19 98.3037L246.65 98.3336Z" fill="#E6F5FF"/>
<path d="M289.724 257.745C277.861 269.999 256.154 288.186 222.32 301.581C274.982 265.17 261.589 219.353 261.374 218.613C267.081 219.276 272.829 219.519 278.572 219.341C281.606 231.768 285.292 244.595 289.724 257.745Z" fill="#19181F"/>
<path d="M339.74 222.815C332.088 238.633 320.249 250.368 310.5 258.068C310.5 258.068 332.841 214.435 308.356 184.99C300.22 175.207 294.241 163.21 290.185 153.218C287.491 146.58 294.904 140.391 300.937 144.217L320.649 156.692C326.622 186.942 335.953 208.191 339.698 215.945C340.222 217.013 340.498 218.186 340.505 219.375C340.512 220.565 340.251 221.741 339.74 222.815Z" fill="#19181F"/>
<path d="M424.472 162.29L423.821 163.717C406.845 155.832 374.302 144.646 353.825 139.346C327.937 132.649 325.583 119.272 307.37 92.3703C291.099 68.3394 267.814 64.4059 267.814 64.4059C292.688 64.0538 320.978 76.881 350.104 127.796L424.472 162.29Z" fill="#19181F"/>
<path d="M439.709 178.001C439.588 178.427 439.372 178.82 439.077 179.151C438.782 179.482 438.416 179.741 438.006 179.91C437.596 180.079 437.153 180.153 436.71 180.126C436.268 180.099 435.837 179.973 435.45 179.756C438.383 179.982 440.42 175.834 433.389 169.22C431.878 167.794 428.485 165.884 423.832 163.717L424.483 162.291L432.033 164.738C433.396 165.18 434.65 165.905 435.713 166.866C436.775 167.827 437.622 169.001 438.198 170.313L439.393 173.023C440.074 174.595 440.186 176.355 439.709 178.001Z" fill="#ED8B7B"/>
<path d="M219.769 127.653C210.809 133.872 201.849 141.029 194.579 148.944C186.409 151.56 177.748 152.274 169.258 151.033C160.769 149.791 152.676 146.627 145.598 141.781C220.809 148.544 218.778 99.0914 218.712 97.8379C219.923 107.727 220.277 117.703 219.769 127.653Z" fill="#19181F"/>
<path d="M166.469 114.557L162.288 118.264C161.642 118.836 160.866 119.243 160.028 119.45C159.19 119.657 158.314 119.658 157.475 119.453C156.636 119.247 155.86 118.842 155.213 118.271C154.565 117.7 154.066 116.981 153.758 116.175L152.02 111.68L166.469 114.557Z" fill="#19181F"/>
<path d="M278.571 219.365C272.829 219.543 267.081 219.299 261.374 218.637C251.666 217.489 242.112 215.287 232.881 212.071C252.217 214.972 261.32 202.21 260.956 171.93C260.597 143.058 264.946 111.393 265.137 110.826C265.313 147.409 269.822 183.842 278.571 219.365Z" fill="url(#paint0_linear)"/>
<path d="M229.326 175.912C225.688 186.024 220.371 195.452 213.598 203.798C210.27 202.085 207.576 200.533 205.617 199.334C213.992 194.266 222.827 186.793 229.326 175.912Z" fill="#2D4EF5"/>
<path d="M246.65 98.3337C244.022 124.949 232.207 137.502 216.969 155.57C205.763 168.856 201.193 180.156 199.556 185.211C199.284 186.042 198.767 186.771 198.073 187.303C197.379 187.836 196.541 188.147 195.668 188.196L185.053 188.793C184.17 188.842 183.302 188.549 182.629 187.976C181.956 187.402 181.53 186.592 181.439 185.713L180.645 177.858C194.007 187.73 212.023 157.563 218.08 141.495C224.137 125.427 241.071 114.581 243.52 107.615C245.969 100.65 241.185 98.2979 241.185 98.2979L246.65 98.3337Z" fill="#A9C7D8"/>
<path d="M250.084 91.5584L246.649 98.3331H241.184C238.161 93.0984 249.182 90.1497 245.497 88.8246C242.008 87.5652 238.382 91.1525 238 91.5405L242.181 85.7327C242.647 85.7257 243.103 85.6004 243.507 85.3687L249.212 88.6635C249.702 88.9416 250.066 89.3975 250.228 89.9365C250.39 90.4755 250.339 91.0563 250.084 91.5584Z" fill="#A9C7D8"/>
<path d="M87.8779 41.9868L69.2349 91.1229C68.3405 93.4825 66.7578 95.5194 64.6917 96.97C62.6256 98.4205 60.1713 99.2178 57.6465 99.2586L4.94336 100.16L5.00309 100.118L55.6455 91.2483C57.2832 90.9629 58.8364 90.3152 60.1913 89.3527C61.5463 88.3902 62.6687 87.1371 63.4766 85.6853L87.8779 41.9868Z" fill="#19181F"/>
<path d="M237.993 57.3926C237.892 57.7089 234.583 67.868 229.995 72.9118L229.535 64.6926C230.23 64.3676 230.872 63.9411 231.441 63.4272L237.993 57.3926Z" fill="#ED8B7B"/>
<path d="M217.584 57.0585C217.012 56.259 216.158 55.7064 215.194 55.5125H215.069C214.752 55.4536 214.45 55.3326 214.181 55.1564C213.911 54.9801 213.679 54.7522 213.498 54.4858C214.506 54.8512 215.559 55.0761 216.628 55.1544C217.877 55.1305 218.54 56.3243 217.584 57.0585Z" fill="#ED8B7B"/>
<path d="M238.602 138.045C238.458 134.822 238.136 131.521 237.67 128.184C242.252 119.947 245.435 110.648 246.63 98.3397L250.065 91.5649C250.065 91.5649 254.127 115.584 238.602 138.045Z" fill="#2D4EF5"/>
<path d="M238.129 131.927C238.129 131.927 232.156 144.533 222.933 154.489C214.69 163.377 209.732 176.932 206.649 187.139C206.323 188.23 205.64 189.18 204.71 189.837C203.78 190.495 202.656 190.823 201.518 190.768C198.242 190.63 195.028 189.832 192.068 188.423L195.652 188.214C196.526 188.165 197.364 187.854 198.058 187.321C198.752 186.789 199.268 186.06 199.541 185.229C201.178 180.174 205.747 168.874 216.953 155.588C223.172 148.21 228.829 141.752 233.518 134.881C234.999 132.709 236.385 130.494 237.657 128.202C237.84 129.444 237.998 130.685 238.129 131.927Z" fill="#19181F"/>
<path d="M94.8715 93.7554L91.3591 110.421L86.5625 110.218L94.8715 93.7554Z" fill="#ED8B7B"/>
<path d="M213.987 48.4096C212.195 48.6961 209.615 48.6483 207.889 46.5353C206.162 44.4223 205.529 40.5664 207.841 37.188C207.787 34.7587 209.209 36.4061 209.687 36.3882L213.987 48.4096Z" fill="#1F2C3E"/>
<path d="M242.389 51.9907C241.98 52.5736 241.746 53.2611 241.714 53.9724L231.44 63.3973C230.535 64.2174 229.448 64.8093 228.267 65.1235C227.087 65.4377 225.849 65.4651 224.656 65.2033C223.463 64.9415 222.35 64.3982 221.411 63.6188C220.471 62.8394 219.731 61.8466 219.254 60.7232L218 57.7925C217.889 57.5307 217.748 57.2824 217.581 57.0523C217.01 56.2529 216.156 55.7003 215.192 55.5064H215.067C214.75 55.4475 214.448 55.3265 214.178 55.1502C213.909 54.974 213.677 54.7461 213.496 54.4797C213.291 54.1877 213.148 53.8573 213.075 53.5085C213.002 53.1596 213.001 52.7996 213.072 52.4503C213.318 50.9697 213.009 49.4504 212.205 48.1825C209.858 44.0699 209.219 37.2296 209.219 37.2296C209.793 37.1972 210.365 37.1354 210.933 37.0445C212.42 36.7897 213.939 36.7756 215.431 37.0027C223.435 38.2622 226.9 46.6664 237.939 45.0906C238.196 45.0544 238.448 44.9903 238.691 44.8996C239.4 44.6414 240 44.1512 240.394 43.5088C241.129 42.2793 242.592 40.7452 244.952 42.0226C248.589 43.9864 245.716 50.4865 242.389 51.9907Z" fill="#EFA08D"/>
<path d="M255.681 50.1168C255.681 50.1168 255.681 50.1526 255.681 50.1705C255.373 51.6255 254.929 53.0484 254.354 54.4204C252.969 57.3332 251.589 58.9866 249.767 59.3686C248.387 59.6611 246.78 59.2194 244.672 58.0495C242.234 56.6766 241.685 55.1545 241.727 53.9787C241.758 53.2674 241.993 52.5799 242.402 51.997C245.729 50.4868 248.602 43.9867 244.97 42.017C242.581 40.7396 241.147 42.2736 240.413 43.5032C240.145 43.9328 239.785 44.2979 239.36 44.5724C238.934 44.8469 238.454 45.024 237.952 45.091C225.079 46.9353 222.486 35.1527 210.922 37.0269C210.354 37.1179 209.782 37.1796 209.208 37.212C208.756 37.2362 208.303 37.2362 207.852 37.212C198.975 36.6151 200.086 25.3577 207.899 23.4357C210.587 22.7791 212.642 21.3108 214.572 19.5798C218.843 15.7597 222.504 10.6264 231.052 10.131C239.296 9.62962 243.662 13.7124 245.669 16.5416C246.653 17.978 247.955 19.1687 249.474 20.0215C258.954 25.1309 257.628 41.7006 255.681 50.1168Z" fill="#3C4F65"/>
<path d="M238.692 44.9C231.195 51.2151 222.988 49.0782 219.32 43.6585C215.653 38.2387 209.195 37.212 209.195 37.212C209.77 37.1797 210.342 37.1179 210.91 37.027C222.474 35.1528 225.067 46.9354 237.939 45.091C238.196 45.0548 238.449 44.9907 238.692 44.9Z" fill="#ED8B7B"/>
<path d="M255.682 50.1165C258.232 37.7012 252.098 35.045 243.52 30.4549C234.942 25.8648 241.776 19.1617 232.278 15.7057C222.78 12.2497 214.549 19.5676 214.549 19.5676C218.82 15.7475 222.481 10.6142 231.029 10.1188C239.273 9.61741 243.639 13.7001 245.646 16.5294C246.631 17.9658 247.932 19.1565 249.451 20.0093C258.955 25.1306 257.629 41.7003 255.682 50.1165Z" fill="#1F2C3E"/>
</g>
<defs>
<linearGradient id="paint0_linear" x1="232.881" y1="110.826" x2="232.881" y2="219.421" gradientUnits="userSpaceOnUse">
<stop stop-color="#5986FB"/>
<stop offset="1" stop-color="#2D4EF5"/>
</linearGradient>
<clipPath id="clip0">
<rect width="440" height="220" fill="white"/>
</clipPath>
</defs>
</svg>
