<svg width="70" height="64" fill="none" xmlns="http://www.w3.org/2000/svg"><path fill-rule="evenodd" clip-rule="evenodd" d="M66.752 28C64.784 12.215 51.32 0 35 0S5.216 12.215 3.248 28H0v8h3.248C5.216 51.785 18.68 64 35 64s29.784-12.215 31.752-28H70v-8h-3.248zm-2.016 0H62v8h2.736C62.78 50.678 50.212 62 35 62 19.788 62 7.22 50.678 5.264 36H8v-8H5.264C7.22 13.322 19.788 2 35 2c15.212 0 27.78 11.322 29.736 26z" fill="#202020"/><path d="M43.568 36.947a1.474 1.474 0 01-1.463-1.484c0-.819.656-1.483 1.463-1.483.808 0 1.463.664 1.463 1.483 0 .82-.655 1.484-1.463 1.484zm-16.106 0A1.474 1.474 0 0126 35.463c0-.819.655-1.483 1.462-1.483.808 0 1.463.664 1.463 1.483 0 .82-.655 1.484-1.463 1.484zm16.624-8.901l2.926-5.115a.616.616 0 00-.229-.835.598.598 0 00-.823.232l-2.956 5.177a17.644 17.644 0 00-7.481-1.638 17.94 17.94 0 00-7.497 1.622l-2.956-5.176a.598.598 0 00-.823-.232.616.616 0 00-.228.834l2.91 5.115C21.931 30.796 18.503 35.927 18 42h35c-.488-6.058-3.9-11.188-8.914-13.954z" fill="#fff"/></svg>