<svg width="70" height="64" fill="none" xmlns="http://www.w3.org/2000/svg"><path fill-rule="evenodd" clip-rule="evenodd" d="M66.752 28C64.784 12.215 51.32 0 35 0S5.216 12.215 3.248 28H0v8h3.248C5.216 51.785 18.68 64 35 64s29.784-12.215 31.752-28H70v-8h-3.248zm-2.016 0H62v8h2.736C62.78 50.678 50.212 62 35 62 19.788 62 7.22 50.678 5.264 36H8v-8H5.264C7.22 13.322 19.788 2 35 2c15.212 0 27.78 11.322 29.736 26z" fill="#202020"/><path d="M34.695 24.62c-1.213 0-3.09-1.348-5.065-1.299-2.607.032-4.999 1.477-6.344 3.766-2.707 4.594-.697 11.38 1.943 15.113 1.295 1.818 2.823 3.863 4.85 3.798 1.942-.08 2.673-1.233 5.03-1.233 2.342 0 3.007 1.233 5.066 1.185 2.092-.033 3.42-1.85 4.7-3.685 1.477-2.11 2.092-4.156 2.125-4.27-.05-.016-4.069-1.525-4.118-6.07-.034-3.799 3.171-5.617 3.32-5.698-1.826-2.614-4.632-2.906-5.612-2.97-2.557-.196-4.7 1.363-5.895 1.363zm4.317-3.831c1.08-1.266 1.794-3.036 1.595-4.789-1.545.065-3.405 1.006-4.517 2.273-.997 1.12-1.86 2.922-1.628 4.642 1.71.13 3.47-.86 4.55-2.126z" fill="#fff"/></svg>