<svg width="1370" height="1205" fill="none" xmlns="http://www.w3.org/2000/svg"><g filter="url(#filter0_di)" fill-rule="evenodd" clip-rule="evenodd" fill="#0F0F10"><path d="M503.487 710.545c91.491 0 148.229-59.458 148.229-158.301 0-98.685-56.738-157.99-148.374-157.99H392.5v316.291h110.987zm-38.411-65.173V459.427h34.6c51.609 0 79.318 24.709 79.318 92.817 0 68.419-27.709 93.128-78.292 93.128h-35.626zM834.11 389.929c80.639 0 143.39 57.914 143.39 162.47 0 104.557-62.751 162.471-143.39 162.471-80.934 0-143.244-58.379-143.244-162.471 0-104.556 62.31-162.47 143.244-162.47zm0 257.915c43.397 0 69.202-33.514 69.202-95.445 0-61.931-25.805-95.444-69.202-95.444-43.255 0-69.205 33.513-69.205 95.444 0 61.931 25.95 95.445 69.205 95.445z"/><path d="M1233.72 487.411C1201.55 212.955 968.147 0 685 0 401.853 0 168.454 212.955 136.283 487.411H100v97.482h33.44C150.264 874.851 390.772 1104.8 685 1104.8c294.228 0 534.74-229.949 551.56-519.907H1270v-97.482h-36.28zM685 48.741c-256.187 0-467.709 191.205-499.594 438.67H197.5v97.482h-15.219C199.033 847.913 417.704 1056.06 685 1056.06s485.97-208.147 502.72-471.167h-15.22v-97.482h12.09C1152.71 239.946 941.187 48.741 685 48.741z"/></g><defs><filter id="filter0_di" x="0" y="-100" width="1370" height="1304.8" filterUnits="userSpaceOnUse" color-interpolation-filters="sRGB"><feFlood flood-opacity="0" result="BackgroundImageFix"/><feColorMatrix in="SourceAlpha" values="0 0 0 0 0 0 0 0 0 0 0 0 0 0 0 0 0 0 127 0"/><feOffset/><feGaussianBlur stdDeviation="50"/><feColorMatrix values="0 0 0 0 1 0 0 0 0 1 0 0 0 0 1 0 0 0 0.04 0"/><feBlend in2="BackgroundImageFix" result="effect1_dropShadow"/><feBlend in="SourceGraphic" in2="effect1_dropShadow" result="shape"/><feColorMatrix in="SourceAlpha" values="0 0 0 0 0 0 0 0 0 0 0 0 0 0 0 0 0 0 127 0" result="hardAlpha"/><feOffset/><feGaussianBlur stdDeviation="10"/><feComposite in2="hardAlpha" operator="arithmetic" k2="-1" k3="1"/><feColorMatrix values="0 0 0 0 0 0 0 0 0 0 0 0 0 0 0 0 0 0 0.05 0"/><feBlend in2="shape" result="effect2_innerShadow"/></filter></defs></svg>