<svg width="180" height="40" fill="none" xmlns="http://www.w3.org/2000/svg"><path d="M20 37.333c9.573 0 17.333-7.76 17.333-17.333 0-9.573-7.76-17.333-17.333-17.333-9.573 0-17.334 7.76-17.334 17.333 0 9.573 7.76 17.333 17.334 17.333z" stroke="#162F71"/><path d="M5.333 17.333H0v5.334h5.333v-5.334zm34.667 0h-5.334v5.334H40v-5.334zm-25.585 7.534c2.815 0 4.56-1.83 4.56-4.872 0-3.037-1.745-4.862-4.565-4.862H11v9.734h3.415zm-1.182-2.006V17.14h1.065c1.588 0 2.44.76 2.44 2.856 0 2.106-.852 2.866-2.409 2.866h-1.096zM29 20c0-3.218-1.93-5-4.412-5-2.49 0-4.407 1.782-4.407 5 0 3.203 1.917 5 4.407 5C27.07 25 29 23.218 29 20zm-2.282 0c0 1.906-.794 2.937-2.13 2.937-1.33 0-2.13-1.031-2.13-2.937s.8-2.937 2.13-2.937c1.335 0 2.13 1.031 2.13 2.937zm34.125-9.139c2.284 0 4.057.643 5.318 1.93 1.275 1.3 1.913 3.132 1.913 5.497 0 2.372-.638 4.222-1.913 5.55-1.268 1.328-3.04 1.992-5.318 1.992H55V10.86h5.843zm-2.67 12.375h2.292c1.422 0 2.505-.418 3.247-1.255.75-.843 1.125-2.07 1.125-3.682 0-1.563-.378-2.763-1.135-3.6-.757-.837-1.836-1.255-3.237-1.255h-2.291v9.792zm16.08.519c.722 0 1.325-.197 1.808-.591.497-.401.746-.91.746-1.525v-.84l-2.428.166c-1.31.083-1.965.556-1.965 1.42 0 .423.168.755.505.997.329.249.774.373 1.334.373zm-.998 2.21c-1.128 0-2.056-.315-2.785-.944-.743-.643-1.114-1.47-1.114-2.48 0-1.03.392-1.84 1.177-2.427.77-.574 1.899-.906 3.384-.996l2.89-.176v-.757c0-.547-.178-.968-.536-1.266-.357-.29-.855-.436-1.492-.436-.547 0-1.005.132-1.377.395a1.543 1.543 0 00-.662 1.016h-2.806c.042-1.092.519-1.978 1.43-2.655.917-.685 2.098-1.027 3.541-1.027 1.485 0 2.676.345 3.573 1.037.897.691 1.345 1.608 1.345 2.749v7.832H76.86v-1.764h-.063c-.309.588-.792 1.055-1.45 1.4a4.46 4.46 0 01-2.092.499zm8.639-11.556h2.963v2.043h.064c.399-1.452 1.317-2.178 2.753-2.178.343 0 .63.038.862.114v2.687c-.273-.125-.641-.187-1.104-.187-.777 0-1.383.225-1.818.674-.434.45-.651 1.076-.651 1.878v6.39h-3.07V14.409zM91.363 30c-.624 0-1.013-.014-1.167-.041v-2.345c.105.02.337.031.694.031 1.135 0 1.818-.436 2.05-1.307l.104-.436-4.056-11.493h3.363l2.501 8.962h.063l2.512-8.962h3.237l-4.004 11.65c-.49 1.451-1.135 2.471-1.934 3.06-.792.587-1.913.881-3.363.881zm10.457-15.591h2.964v2.043h.063c.679-1.473 1.919-2.21 3.72-2.21 1.282 0 2.291.378 3.027 1.131.728.754 1.093 1.799 1.093 3.133v7.324h-3.069v-6.691c0-.76-.196-1.345-.589-1.753-.399-.415-.96-.622-1.681-.622-.736 0-1.328.235-1.776.705-.456.47-.683 1.086-.683 1.846v6.515h-3.069V14.409zm14.86 11.545c-.469 0-.869-.162-1.198-.487a1.6 1.6 0 01-.494-1.183c0-.47.165-.864.494-1.182a1.642 1.642 0 011.198-.488c.477 0 .876.163 1.198.488.33.318.494.712.494 1.182 0 .464-.164.858-.494 1.183a1.64 1.64 0 01-1.198.487zm8.996.073c-1.758 0-3.149-.526-4.172-1.577-1.023-1.051-1.534-2.496-1.534-4.336 0-1.819.515-3.26 1.545-4.326 1.03-1.05 2.417-1.576 4.161-1.576 1.752 0 3.139.525 4.162 1.576 1.03 1.058 1.545 2.5 1.545 4.326 0 1.847-.511 3.295-1.534 4.347-1.016 1.044-2.407 1.566-4.173 1.566zm0-2.334c.813 0 1.447-.311 1.903-.934.455-.629.683-1.51.683-2.645 0-1.12-.231-1.998-.694-2.635-.455-.63-1.086-.944-1.892-.944-.812 0-1.446.315-1.902.944-.462.637-.693 1.515-.693 2.635 0 1.134.231 2.016.693 2.645.456.623 1.09.934 1.902.934zm7.357-9.284h2.964v2.043h.063c.679-1.473 1.92-2.21 3.72-2.21 1.282 0 2.291.378 3.027 1.131.729.754 1.093 1.799 1.093 3.133v7.324h-3.069v-6.691c0-.76-.196-1.345-.588-1.753-.4-.415-.96-.622-1.682-.622-.736 0-1.328.235-1.776.705-.455.47-.683 1.086-.683 1.846v6.515h-3.069V14.409zm12.99-4.264h3.069V25.83h-3.069V10.145zm5.286 4.264h3.069v11.42h-3.069V14.41zm1.534-1.245c-.455 0-.844-.152-1.166-.457a1.494 1.494 0 01-.484-1.13c0-.45.162-.827.484-1.13a1.658 1.658 0 011.166-.447c.463 0 .855.149 1.178.446.322.304.483.681.483 1.13 0 .45-.161.827-.483 1.131a1.654 1.654 0 01-1.178.457zm3.668 1.245h2.964v2.043h.063c.68-1.473 1.92-2.21 3.72-2.21 1.283 0 2.291.378 3.027 1.131.729.754 1.093 1.799 1.093 3.133v7.324h-3.069v-6.691c0-.76-.196-1.345-.588-1.753-.4-.415-.96-.622-1.682-.622-.735 0-1.327.235-1.776.705-.455.47-.683 1.086-.683 1.846v6.515h-3.069V14.409zm18.066 2.064c-.701 0-1.286.228-1.755.685-.462.456-.722 1.05-.778 1.784h4.992c-.028-.747-.266-1.345-.714-1.795-.449-.45-1.03-.674-1.745-.674zm5.328 5.871c-.168 1.107-.732 1.996-1.692 2.666-.959.678-2.144 1.017-3.552 1.017-1.758 0-3.146-.522-4.162-1.566-1.008-1.045-1.513-2.476-1.513-4.295s.501-3.264 1.503-4.336c1.009-1.079 2.361-1.618 4.057-1.618 1.667 0 2.991.511 3.972 1.535.988 1.023 1.482 2.403 1.482 4.139v.934h-7.987v.186c0 .823.249 1.49.746 2.002.497.505 1.149.758 1.955.758.581 0 1.082-.128 1.503-.384a1.85 1.85 0 00.861-1.038h2.827z" fill="#162F71"/></svg>