<svg width="30" height="30" fill="none" xmlns="http://www.w3.org/2000/svg"><g clip-path="url(#clip0)"><path d="M15 28c7.18 0 13-5.82 13-13S22.18 2 15 2 2 7.82 2 15s5.82 13 13 13z" stroke="#162F71"/><path d="M4 13H0v4h4v-4zm26 0h-4v4h4v-4zm-19.189 5.65c2.112 0 3.42-1.372 3.42-3.654 0-2.278-1.308-3.646-3.423-3.646H8.25v7.3h2.561zm-.886-1.504v-4.292h.798c1.191 0 1.83.57 1.83 2.142 0 1.58-.639 2.15-1.806 2.15h-.822zM21.75 15c0-2.413-1.448-3.75-3.309-3.75-1.868 0-3.306 1.337-3.306 3.75 0 2.402 1.438 3.75 3.306 3.75 1.86 0 3.309-1.337 3.309-3.75zm-1.712 0c0 1.43-.596 2.203-1.597 2.203-.998 0-1.597-.774-1.597-2.203 0-1.43.599-2.203 1.597-2.203 1.002 0 1.597.774 1.597 2.203z" fill="#162F71"/></g><defs><clipPath id="clip0"><path fill="#fff" d="M0 0h30v30H0z"/></clipPath></defs></svg>