<svg width="40" height="40" fill="none" xmlns="http://www.w3.org/2000/svg"><path d="M20 37.333c9.573 0 17.333-7.76 17.333-17.333 0-9.573-7.76-17.333-17.333-17.333-9.573 0-17.333 7.76-17.333 17.333 0 9.573 7.76 17.333 17.333 17.333z" stroke="#fff"/><path d="M5.333 17.333H0v5.334h5.333v-5.334zm34.667 0h-5.333v5.334H40v-5.334zm-25.585 7.534c2.815 0 4.56-1.83 4.56-4.872 0-3.037-1.745-4.862-4.565-4.862H11v9.734h3.415zm-1.182-2.006V17.14h1.065c1.588 0 2.44.76 2.44 2.856 0 2.106-.852 2.866-2.409 2.866h-1.096zM29 20c0-3.218-1.93-5-4.412-5-2.49 0-4.408 1.782-4.408 5 0 3.203 1.918 5 4.408 5C27.069 25 29 23.218 29 20zm-2.283 0c0 1.906-.794 2.937-2.129 2.937-1.33 0-2.13-1.031-2.13-2.937s.8-2.937 2.13-2.937c1.335 0 2.13 1.031 2.13 2.937z" fill="#fff"/></svg>