<svg width="190" height="170" fill="none" xmlns="http://www.w3.org/2000/svg"><path fill-rule="evenodd" clip-rule="evenodd" d="M95 4.75c-44.16 0-79.959 35.799-79.959 79.958 0 44.16 35.8 79.959 79.959 79.959 44.16 0 79.958-35.799 79.958-79.959C174.958 40.548 139.16 4.75 95 4.75zM10.29 84.708C10.291 37.925 48.218 0 95 0s84.708 37.925 84.708 84.708c0 46.784-37.925 84.709-84.708 84.709s-84.71-37.925-84.71-84.709z" fill="#F5F5F5"/><path d="M25.333 72.041H0v25.333h25.333V72.041zm164.667 0h-25.333v25.333H190V72.041z" fill="#F5F5F5"/></svg>