<svg width="50" height="50" fill="none" xmlns="http://www.w3.org/2000/svg"><path d="M48 0H2a2 2 0 00-2 2v30a2 2 0 002 2h46a2 2 0 002-2V2a2 2 0 00-2-2z" fill="url(#paint0_linear)"/><path d="M46 3H4a1 1 0 00-1 1v26a1 1 0 001 1h42a1 1 0 001-1V4a1 1 0 00-1-1z" fill="url(#paint1_linear)"/><path d="M41.01 21H41a5.83 5.83 0 00-5.83 5.83v2.34A5.83 5.83 0 0041 35h.01a5.83 5.83 0 005.83-5.83v-2.34A5.83 5.83 0 0041.01 21z" fill="url(#paint2_linear)"/><path d="M50 40v10H32V40a6 6 0 016-6h6a6 6 0 016 6z" fill="url(#paint3_linear)"/><path d="M37 40v10h-2V40a1 1 0 012 0zm10 0v10h-2V40a1 1 0 012 0z" fill="#4795EA"/><path d="M25.01 21H25a5.83 5.83 0 00-5.83 5.83v2.34A5.83 5.83 0 0025 35h.01a5.83 5.83 0 005.83-5.83v-2.34A5.83 5.83 0 0025.01 21z" fill="url(#paint4_linear)"/><path d="M34 40v10H16V40a6 6 0 016-6h6a6 6 0 016 6z" fill="url(#paint5_linear)"/><path d="M21 40v10h-2V40a1 1 0 012 0zm10 0v10h-2V40a1 1 0 012 0z" fill="#4795EA"/><path d="M9.01 21H9a5.83 5.83 0 00-5.83 5.83v2.34A5.83 5.83 0 009 35h.01a5.83 5.83 0 005.83-5.83v-2.34A5.83 5.83 0 009.01 21z" fill="url(#paint6_linear)"/><path d="M18 40v10H0V40a6 6 0 016-6h6a6 6 0 016 6z" fill="url(#paint7_linear)"/><path d="M5 40v10H3V40a1 1 0 112 0zm10 0v10h-2V40a1 1 0 012 0z" fill="#4795EA"/><defs><linearGradient id="paint0_linear" x1="0" y1="17" x2="50" y2="17" gradientUnits="userSpaceOnUse"><stop stop-color="#FE9661"/><stop offset="1" stop-color="#FFB369"/></linearGradient><linearGradient id="paint1_linear" x1="25" y1="31" x2="25" y2="3" gradientUnits="userSpaceOnUse"><stop stop-color="#D3E6F5"/><stop offset="1" stop-color="#F0F7FC"/></linearGradient><linearGradient id="paint2_linear" x1="41" y1="35" x2="41" y2="21" gradientUnits="userSpaceOnUse"><stop stop-color="#54A5FF"/><stop offset="1" stop-color="#8AD3FE"/></linearGradient><linearGradient id="paint3_linear" x1="734" y1="818" x2="1058" y2="818" gradientUnits="userSpaceOnUse"><stop stop-color="#54A5FF"/><stop offset="1" stop-color="#8AD3FE"/></linearGradient><linearGradient id="paint4_linear" x1="392.61" y1="21" x2="392.61" y2="21" gradientUnits="userSpaceOnUse"><stop stop-color="#54A5FF"/><stop offset="1" stop-color="#8AD3FE"/></linearGradient><linearGradient id="paint5_linear" x1="430" y1="818" x2="754" y2="818" gradientUnits="userSpaceOnUse"><stop stop-color="#54A5FF"/><stop offset="1" stop-color="#8AD3FE"/></linearGradient><linearGradient id="paint6_linear" x1="189.89" y1="21" x2="189.89" y2="21" gradientUnits="userSpaceOnUse"><stop stop-color="#54A5FF"/><stop offset="1" stop-color="#8AD3FE"/></linearGradient><linearGradient id="paint7_linear" x1="126" y1="818" x2="450" y2="818" gradientUnits="userSpaceOnUse"><stop stop-color="#54A5FF"/><stop offset="1" stop-color="#8AD3FE"/></linearGradient></defs></svg>