<svg width="30" height="30" fill="none" xmlns="http://www.w3.org/2000/svg"><path d="M15.649 11.352c-.922 0-2.358-1.01-3.85-1.01-1.984 0-3.799 1.14-4.822 2.815-2.057 3.362-.53 8.33 1.477 11.062.985 1.33 2.145 2.828 3.685 2.78 1.477-.06 2.032-.903 3.824-.903 1.78 0 2.285.903 3.85.867 1.59-.024 2.6-1.354 3.571-2.697 1.124-1.544 1.59-3.041 1.616-3.125-.038-.012-3.092-1.116-3.13-4.443-.026-2.78 2.41-4.11 2.524-4.17-1.388-1.913-3.52-2.127-4.265-2.175-1.944-.143-3.571.999-4.48.999zm2.892-8.218c1.22-.428 2.02.203 1.784 1.41-.236 1.205-1.417 2.53-2.638 2.958-1.22.427-2.02-.203-1.783-1.41.235-1.206 1.416-2.53 2.637-2.958z" stroke="silver" stroke-linecap="round" stroke-linejoin="round"/></svg>