<svg width="24" height="24" fill="none" xmlns="http://www.w3.org/2000/svg"><path d="M17.347 5.752a20.633 20.633 0 012.987-.303 1.016 1.016 0 011.055 1.01v11.96c0 .549-.437 1.001-.984 1.01-3.124.047-5.477.623-8.11 2.171m0 0c-2.634-1.548-4.986-2.124-8.11-2.17a1.007 1.007 0 01-.985-1.01V6.458c0-.565.464-1.028 1.028-1.01 3.103.1 5.445.684 8.067 2.152m0 14V7.06c.35-1.86 1.846-3.669 3.62-4.558.658-.33 1.432.184 1.432.92v12.355c0 .429-.27.812-.676.948-2.091.703-3.976 2.754-4.376 4.875z" stroke="#697285" stroke-linecap="round" stroke-linejoin="round"/></svg>