<svg width="22" height="22" fill="none" xmlns="http://www.w3.org/2000/svg"><path d="M10.699 15.666a.75.75 0 001.342.67l-1.342-.67zm2.523-3.37l.67.336a.75.75 0 00-.67-1.085v.75zm-4.444 0l-.671-.335a.75.75 0 00.67 1.086v-.75zM11.3 8.93a.75.75 0 10-1.342-.671l1.342.671zm8.412-2.041l.46-.592-.46.592zm-6.667-5.186l-.46.592.46-.592zm-4.093 0l-.46-.592.46.592zM2.287 6.888l-.46-.592h-.001l.46.592zm9.754 9.449l1.852-3.705-1.342-.67-1.852 3.704 1.342.67zm1.181-4.79H8.778v1.5h4.444v-1.5zm-3.774 1.085l1.853-3.703-1.342-.671-1.852 3.703 1.341.671zm10.726-6.336L13.507 1.11l-.921 1.184 6.667 5.186.92-1.184zm-6.667-5.185a4.083 4.083 0 00-5.014 0l.92 1.184a2.583 2.583 0 013.173 0l.921-1.184zm-5.014 0L1.826 6.295l.921 1.184 6.667-5.186-.921-1.184zM1.826 6.295A4.084 4.084 0 00.25 9.52h1.5c0-.796.368-1.55.997-2.04l-.921-1.183zM.25 9.52v8.148h1.5V9.519H.25zm0 8.148a4.083 4.083 0 004.083 4.083v-1.5a2.583 2.583 0 01-2.583-2.583H.25zm4.083 4.083h13.333v-1.5H4.333v1.5zm13.333 0a4.083 4.083 0 004.084-4.083h-1.5a2.583 2.583 0 01-2.584 2.583v1.5zm4.084-4.083V9.519h-1.5v8.148h1.5zm0-8.148c0-1.26-.581-2.449-1.576-3.223l-.922 1.184c.63.49.998 1.243.998 2.039h1.5z" fill="url(#paint0_linear)"/><defs><linearGradient id="paint0_linear" x1="1" y1="1" x2="1" y2="21" gradientUnits="userSpaceOnUse"><stop stop-color="#5986FB"/><stop offset="1" stop-color="#2D4EF5"/></linearGradient></defs></svg>