<svg width="17" height="16" fill="none" xmlns="http://www.w3.org/2000/svg"><path d="M16 5.793V2.75C16 1.783 15.21 1 14.235 1h-3.069M5.834 1h-3.07C1.79 1 1 1.783 1 2.75v3.043m0 4.414v3.043c0 .967.79 1.75 1.765 1.75h3.069m5.332 0h3.07C15.21 15 16 14.217 16 13.25v-3.043M12.47 4.5v7m-7.94-7v7m5.294-7v4.375M7.176 4.5v4.375m.032 2.594a.044.044 0 010 .062.044.044 0 01-.063 0 .044.044 0 010-.062.044.044 0 01.063 0zm2.647 0a.044.044 0 010 .062.044.044 0 01-.063 0 .044.044 0 010-.062.044.044 0 01.063 0z" stroke="#848E9F" stroke-linecap="round" stroke-linejoin="round"/></svg>