<svg width="24" height="24" fill="none" xmlns="http://www.w3.org/2000/svg"><path d="M7.5 3H5.25A2.25 2.25 0 003 5.25V7.5m0 9v2.25A2.25 2.25 0 005.25 21H7.5m9 0h2.25A2.25 2.25 0 0021 18.75V16.5m0-9V5.25A2.25 2.25 0 0018.75 3H16.5m-3.875 12.125H8.25c-.69 0-1.25-.56-1.25-1.25v-3.75c0-.69.56-1.25 1.25-1.25h4.375c.69 0 1.25.56 1.25 1.25v3.75c0 .69-.56 1.25-1.25 1.25zm1.25-2.515l2.108 1.697A.625.625 0 0017 13.82v-3.64a.625.625 0 00-1.017-.487l-2.108 1.697" stroke="#848E9F" stroke-width="1.5" stroke-linecap="round" stroke-linejoin="round"/></svg>