<svg width="24" height="24" fill="none" xmlns="http://www.w3.org/2000/svg"><path d="M12.442 21c.991 0 1.795-.804 1.795-1.795v-.703M9.464 6.6H5.295c-.991 0-1.795.804-1.795 1.795v10.81c0 .99.804 1.795 1.795 1.795h7.147" stroke="#848E9F" stroke-width="1.5" stroke-linecap="round" stroke-linejoin="round"/><path d="M8.554 16.97l6.914 1.864a1.79 1.79 0 002.192-1.273L20.439 7.13a1.802 1.802 0 00-1.265-2.205L12.26 3.062a1.79 1.79 0 00-2.192 1.273L7.289 14.767a1.8 1.8 0 001.265 2.204z" stroke="#848E9F" stroke-width="1.5" stroke-linecap="round" stroke-linejoin="round"/></svg>