<svg width="20" height="20" fill="none" xmlns="http://www.w3.org/2000/svg"><path d="M19.23 0H.77A.77.77 0 000 .77v3.845C0 7.16 1.725 9.231 3.846 9.231c0 3.132 2.354 5.72 5.385 6.1v.853c-1.972.149-3.846.874-3.846 2.277v.77a.77.77 0 00.769.769h7.692a.77.77 0 00.77-.77v-.768c0-1.404-1.875-2.13-3.847-2.278v-.853c3.031-.38 5.385-2.968 5.385-6.1C18.274 9.23 20 7.16 20 4.615V.77a.77.77 0 00-.77-.77zM1.539 4.615V1.538h2.308v6.154c-1.273 0-2.308-1.38-2.308-3.077zm5.404 13.847c.198-.252 1.252-.77 3.058-.77 1.806 0 2.86.518 3.058.77H6.942zm7.673-9.231A4.62 4.62 0 0110 13.846a4.585 4.585 0 01-3.264-1.352 4.585 4.585 0 01-1.351-3.263V1.538h9.23v7.693zm3.847-4.616c0 1.697-1.035 3.077-2.308 3.077V1.538h2.308v3.077z" fill="url(#paint0_linear)"/><path d="M9.556 10.385h1.508V4.423H9.552L8.035 5.456v1.297l1.492-1h.029v4.632z" fill="url(#paint1_linear)"/><defs><linearGradient id="paint0_linear" x1="0" y1="0" x2="0" y2="20" gradientUnits="userSpaceOnUse"><stop stop-color="#5986FB"/><stop offset="1" stop-color="#2D4EF5"/></linearGradient><linearGradient id="paint1_linear" x1="0" y1="0" x2="0" y2="20" gradientUnits="userSpaceOnUse"><stop stop-color="#5986FB"/><stop offset="1" stop-color="#2D4EF5"/></linearGradient></defs></svg>