<svg width="22" height="22" fill="none" xmlns="http://www.w3.org/2000/svg"><path d="M13.003 14.051L10.5 16.556l-1.503-1.504m-1.33-6.98h-1.11c-.92 0-1.667.746-1.667 1.666v9.04M14.333 8.07h1.111c.92 0 1.667.747 1.667 1.667v9.04m.96-14.85c3.905 3.906 3.905 10.238 0 14.143-3.905 3.905-10.237 3.905-14.142 0-3.905-3.904-3.905-10.236 0-14.14C7.834.025 14.166.025 18.071 3.93zm-4.954 5.658H8.884a1.217 1.217 0 01-1.217-1.217v-.597c0-.672.544-1.216 1.216-1.216h4.233c.673 0 1.217.544 1.217 1.216v.596c0 .673-.544 1.218-1.216 1.218z" stroke="url(#paint0_linear)" stroke-width="1.5" stroke-linecap="round" stroke-linejoin="round"/><defs><linearGradient id="paint0_linear" x1="1" y1="1" x2="1" y2="21" gradientUnits="userSpaceOnUse"><stop stop-color="#5986FB"/><stop offset="1" stop-color="#2D4EF5"/></linearGradient></defs></svg>