<svg width="18" height="20" fill="none" xmlns="http://www.w3.org/2000/svg"><path d="M14.657 3.276A7.659 7.659 0 0117 8.77a7.66 7.66 0 01-2.343 5.494l-4.324 4.2A1.914 1.914 0 019 19c-.5 0-.98-.193-1.333-.536l-4.324-4.2A7.658 7.658 0 011 8.77a7.66 7.66 0 012.343-5.494A8.122 8.122 0 019 1c2.122 0 4.157.819 5.657 2.276z" stroke="#848E9F" stroke-linecap="round" stroke-linejoin="round"/><path d="M9 11.436c1.516 0 2.745-1.193 2.745-2.666 0-1.472-1.229-2.666-2.745-2.666S6.255 7.298 6.255 8.77c0 1.473 1.23 2.666 2.745 2.666z" stroke="#848E9F" stroke-linecap="round" stroke-linejoin="round"/></svg>