<svg width="15" height="16" fill="none" xmlns="http://www.w3.org/2000/svg"><path d="M9.91 10.333h1.982c.68 0 1.284.429 1.499 1.064l.527 1.556c.34 1.007-.42 2.047-1.5 2.047H2.582c-1.078 0-1.84-1.04-1.499-2.047l.527-1.556a1.577 1.577 0 0 1 1.5-1.064h1.983M7.5 12.667S2.76 8.94 2.76 5.537C2.76 3.032 4.88 1 7.5 1s4.74 2.032 4.74 4.537c0 3.403-4.74 7.13-4.74 7.13zm1.117-8.1a1.538 1.538 0 0 1 0 2.2 1.598 1.598 0 0 1-2.234 0 1.538 1.538 0 0 1 0-2.2 1.598 1.598 0 0 1 2.234 0z" stroke="#848E9F" stroke-linecap="round" stroke-linejoin="round"/></svg>