<svg width="29" height="34" fill="none" xmlns="http://www.w3.org/2000/svg"><path fill-rule="evenodd" clip-rule="evenodd" d="M7.493 14.7L0 28.687l6.804-.623L10.097 34l7.493-13.99L7.493 14.7z" fill="#E95454"/><path fill-rule="evenodd" clip-rule="evenodd" d="M8.351 29.926c.21-.447-.01-.982-.45-1.214l-.43-.227a.91.91 0 01-.36-1.223.928.928 0 011.247-.38l1.218.642a.773.773 0 001.043-.321l.03-.058a.717.717 0 00-.28-1.016l-3.645-1.916c-.444-.234-.662-.767-.455-1.215a.928.928 0 011.27-.421l3.381 1.778a.781.781 0 001.048-.319l.02-.049.005-.01a.799.799 0 00-.334-1.092l-1.896-.997c-.444-.234-.662-.767-.452-1.22a.932.932 0 011.27-.421l2.095 1.102c.392.206.86.034 1.062-.357l.006-.01.005-.011c.213-.386.095-.867-.297-1.072l-2.26-1.188c-.439-.231-.657-.764-.45-1.212a.928.928 0 011.27-.421l5.576 2.933L10.095 34l-2.064-3.72a.871.871 0 00.32-.354z" fill="#ED6362"/><path fill-rule="evenodd" clip-rule="evenodd" d="M21.507 14.7L29 28.687l-6.804-.623L18.903 34 11.41 20.01l10.097-5.31z" fill="#ED6362"/><path fill-rule="evenodd" clip-rule="evenodd" d="M20.649 29.925c-.21-.447.01-.982.45-1.214l.43-.227a.91.91 0 00.361-1.223.928.928 0 00-1.248-.38l-1.218.642a.772.772 0 01-1.043-.321l-.03-.058a.717.717 0 01.28-1.016l3.646-1.917c.444-.234.662-.767.455-1.215a.928.928 0 00-1.27-.421l-3.381 1.778a.781.781 0 01-1.048-.319l-.02-.049-.005-.01a.799.799 0 01.334-1.092l1.896-.997c.444-.234.662-.767.452-1.22a.932.932 0 00-1.27-.422l-2.097 1.105c-.392.206-.86.034-1.062-.357l-.005-.01-.006-.011c-.213-.386-.095-.867.297-1.072l2.26-1.188c.44-.231.657-.764.45-1.212a.928.928 0 00-1.27-.421L11.41 20.01 18.904 34l2.065-3.72a.888.888 0 01-.32-.355z" fill="#E95454"/><path fill-rule="evenodd" clip-rule="evenodd" d="M14.5 24.813c6.915 0 12.52-5.555 12.52-12.407S21.415 0 14.5 0C7.587 0 1.982 5.554 1.982 12.406s5.605 12.407 12.52 12.407z" fill="#FFCC5B"/><path fill-rule="evenodd" clip-rule="evenodd" d="M16.198 10.983H8.265A1.123 1.123 0 017.142 9.87l.008-.076v-.017a1.167 1.167 0 011.175-1.173h5.498c.729 0 1.372-.534 1.415-1.257A1.338 1.338 0 0013.9 5.953H8.076c-.643 0-1.123-.534-1.115-1.172v-.034c-.008-.637.471-1.173 1.115-1.173h6.095c.72 0 1.363-.534 1.406-1.249A1.333 1.333 0 0014.24.932H9.776C5.225 2.79 2.018 7.226 2.018 12.407c0 5.18 3.207 9.615 7.76 11.472h5.666c.72 0 1.364-.535 1.406-1.25a1.332 1.332 0 00-1.337-1.392l-6.447-.001c-.76 0-1.373-.63-1.332-1.394.037-.714.685-1.25 1.407-1.25h2.5a1.33 1.33 0 001.298-1.322c0-.73-.6-1.326-1.337-1.326H7.813c-.617 0-1.123-.5-1.114-1.113v-.093a1.05 1.05 0 011.054-1.113h8.368c.728 0 1.372-.535 1.415-1.25a1.333 1.333 0 00-1.338-1.392z" fill="#FDBC4B"/><path fill-rule="evenodd" clip-rule="evenodd" d="M14.5 21.26c-4.928 0-8.937-3.973-8.937-8.855 0-4.883 4.009-8.855 8.937-8.855 4.928 0 8.936 3.973 8.936 8.856 0 4.882-4.008 8.854-8.936 8.854z" fill="#FFDB70"/><path opacity=".2" fill-rule="evenodd" clip-rule="evenodd" d="M23.437 12.406c0-4.71-3.735-8.564-8.424-8.83h-.832c-.55 0-1.04.408-1.072.953a1.017 1.017 0 001.02 1.063h4.917c.58 0 1.047.481 1.015 1.064-.029.545-.522.954-1.073.954h-1.906c-.549.016-.992.46-.992 1.008 0 .557.459 1.01 1.02 1.01H20c.471 0 .856.384.85.85v.07a.8.8 0 01-.805.848h-6.38c-.556 0-1.047.408-1.08.952a1.017 1.017 0 001.02 1.063h6.05c.47 0 .856.383.856.848l-.006.059v.013a.89.89 0 01-.896.894h-4.194c-.556 0-1.046.408-1.08.958a1.02 1.02 0 001.02 1.063h4.443c.49 0 .856.409.85.894v.026c.006.486-.36.894-.85.894H15.15c-.55 0-1.04.408-1.073.952a1.016 1.016 0 001.02 1.063h1.226c4.058-.837 7.114-4.406 7.114-8.668z" fill="#fff"/><path fill-rule="evenodd" clip-rule="evenodd" d="M20.739 10.445h-4.347L15.05 6.348c-.173-.526-.925-.526-1.098 0l-1.343 4.097H8.262c-.56 0-.792.709-.34 1.034l3.517 2.532-1.343 4.097c-.173.526.435.964.888.639l3.516-2.532 3.517 2.532c.452.325 1.06-.113.888-.64l-1.343-4.096 3.516-2.532c.451-.325.22-1.034-.339-1.034z" fill="#EC9922"/></svg>