<svg width="24" height="24" fill="none" xmlns="http://www.w3.org/2000/svg"><path d="M16.243 7.757a6 6 0 11-8.485 8.486 6 6 0 018.485-8.486" stroke="#848E9F" stroke-width="1.5" stroke-linecap="round" stroke-linejoin="round"/><path d="M16.243 10.586c2.343.78 2.343 2.047 0 2.828-2.343.781-6.142.781-8.486 0-2.343-.78-2.343-2.047 0-2.828 2.344-.781 6.143-.781 8.486 0M12 6v12M7.5 3H5a2 2 0 00-2 2v2.5m0 9V19a2 2 0 002 2h2.5m9 0H19a2 2 0 002-2v-2.5m0-9V5a2 2 0 00-2-2h-2.5" stroke="#848E9F" stroke-width="1.5" stroke-linecap="round" stroke-linejoin="round"/></svg>