<svg width="80" height="80" fill="none" xmlns="http://www.w3.org/2000/svg"><path d="M38.437 13.417C22.6 14.237 10 27.293 10 43.333c0 16.57 13.43 30 30 30s30-13.43 30-30c0-8.84-3.84-16.76-9.923-22.236M50.267 53.2h3.4m-3.4-5h5m-24.667-5h30" stroke="#E5E5E5" stroke-width="1.5" stroke-linecap="round" stroke-linejoin="round"/><path d="M34.513 28.2a3.913 3.913 0 00-3.913 3.913V43.2c-.067.933.92 3.68 5.4 7.2s4.389 6.667 3.783 7.8H53.6c-.133-.733-.24-2.84.4-5.4.64-2.56 4.667-5.067 6.6-6V32.113a3.914 3.914 0 00-3.913-3.913H55.2c-1.467 1.8-4.56 5.32-5.2 5-.64-.32-3.733-3.467-5.2-5H34.513zM50.6 35.7h5m-20 0h5m-2.5 2.5v-5m-1.766 15.733l3.533 3.534m-1.933-1.6l1.933-1.934M45.6 29v29.2" stroke="#E5E5E5" stroke-width="1.5" stroke-linecap="round" stroke-linejoin="round"/><path d="M26.668 70.227v-.237C26.668 63.323 40 64.11 40 56.657c0-6.667-10-6.667-10-16.667 0-9.427-6.666-10-16.666-10h-.204M59.9 65.733c-.502-.193-1.002-.396-1.48-.676-4.786-2.8-6.392-8.947-3.596-13.734 2.8-4.786 8.947-6.393 13.734-3.596.353.206.65.466.97.706M50 33.333S61.673 23.75 61.673 15c0-6.443-5.227-11.667-11.673-11.667-6.447 0-11.673 5.224-11.673 11.667C38.327 23.75 50 33.333 50 33.333z" stroke="#026FFF" stroke-width="1.5" stroke-linecap="round" stroke-linejoin="round"/><path d="M50.003 14.5a.834.834 0 11-.007 1.666.834.834 0 01.007-1.666z" stroke="#026FFF" stroke-width="1.5" stroke-linecap="round" stroke-linejoin="round"/></svg>