<svg width="24" height="24" fill="none" xmlns="http://www.w3.org/2000/svg"><path d="M7 2h10.004A4.996 4.996 0 0122 6.996v10.01A4.995 4.995 0 0117.004 22H6.996A4.996 4.996 0 012 17.004V7a5 5 0 015-5z" stroke="#848E9F" stroke-width="1.5" stroke-linecap="round" stroke-linejoin="round"/><path d="M5.611 15.722c.021-.003 2-.666 2-.666-2.227-2.252-2.395-5.586-.667-8 .82 1.525 2.352 2.932 4 3.333.064-1.926 1.37-3.333 3.334-3.333 1.336 0 2.123.51 2.666 1.333h2l-1.333 2" stroke="#848E9F" stroke-width="1.5" stroke-linecap="round" stroke-linejoin="round"/></svg>