<svg width="20" height="20" fill="none" xmlns="http://www.w3.org/2000/svg"><path d="M5.5 1h9.004A4.496 4.496 0 0119 5.496v9.009A4.496 4.496 0 0114.504 19H5.496A4.496 4.496 0 011 14.504V5.5A4.5 4.5 0 015.5 1z" stroke="#C4C4C4" stroke-width="1.5" stroke-linecap="round" stroke-linejoin="round"/><path d="M4.25 13.35c.019-.003 1.8-.6 1.8-.6-2.004-2.026-2.156-5.027-.6-7.2.738 1.373 2.116 2.639 3.6 3 .057-1.733 1.233-3 3-3 1.203 0 1.911.459 2.4 1.2h1.8l-1.2 1.8" stroke="#C4C4C4" stroke-width="1.5" stroke-linecap="round" stroke-linejoin="round"/></svg>