<svg width="24" height="24" fill="none" xmlns="http://www.w3.org/2000/svg"><path d="M7 2h10.004A4.996 4.996 0 0122 6.996v10.01A4.995 4.995 0 0117.004 22H6.996A4.996 4.996 0 012 17.004V7a5 5 0 015-5z" stroke="#848E9F" stroke-width="1.5" stroke-linecap="round" stroke-linejoin="round"/><path d="M9.882 15.879l-.902-2.971-2.584-.807a.327.327 0 01-.02-.618L16.21 7.69a.492.492 0 01.658.56l-1.652 7.787a.64.64 0 01-1.008.382l-2.347-1.733-1.383 1.346a.361.361 0 01-.596-.153z" stroke="#848E9F" stroke-width="1.5" stroke-linecap="round" stroke-linejoin="round"/></svg>