<svg width="24" height="24" fill="none" xmlns="http://www.w3.org/2000/svg"><path d="M10.538 9.382h1.35v6.751h-.002c-1.39 0-2.918-.844-4.002-2.4-1.626-2.28-2.07-4.003-2.07-4.35m11.362 6.75s-.492-1.035-1.488-2.174c-.665-.779-1.6-1.2-2.451-1.2.85 0 1.786-.422 2.45-1.2.997-1.14 1.489-2.176 1.489-2.176m-3.94 3.377h-1.35M7 2h10.004A4.996 4.996 0 0122 6.996v10.01A4.995 4.995 0 0117.004 22H6.996A4.996 4.996 0 012 17.004V7a5 5 0 015-5z" stroke="#848E9F" stroke-width="1.5" stroke-linecap="round" stroke-linejoin="round"/></svg>