<svg width="30" height="30" fill="none" xmlns="http://www.w3.org/2000/svg"><path d="M27 15a12 12 0 01-12 12m12-12a12 12 0 00-24 0c0 1.406.25 2.8.738 4.118a1.347 1.347 0 001.495.866l1.315-.232A2 2 0 008.181 17.5l-.396-2.77a2 2 0 00-2.327-1.687l-2.348.414M27 15c0 1.406-.25 2.8-.738 4.118a1.347 1.347 0 01-1.495.866l-1.315-.232a2 2 0 01-1.633-2.252l.396-2.77a2 2 0 012.327-1.687l2.348.414m-9.9 2.198a.01.01 0 00-.005.001.01.01 0 00-.004.005.01.01 0 00.002.01.01.01 0 00.005.003.01.01 0 00.006 0 .01.01 0 00.004-.004.01.01 0 00.002-.005v-.004a.01.01 0 00-.003-.004.01.01 0 00-.007-.002zm-3.98.004l-.006.001a.01.01 0 00-.003.005.01.01 0 00.002.01.01.01 0 00.005.003.01.01 0 00.006 0 .01.01 0 00.004-.004.01.01 0 00.002-.005v-.004a.008.008 0 00-.003-.004.01.01 0 00-.003-.002.01.01 0 00-.004 0z" stroke="#fff" stroke-linecap="round" stroke-linejoin="round"/></svg>