<svg width="20" height="20" fill="none" xmlns="http://www.w3.org/2000/svg"><path d="M9.899 10.255v-.208c0-.68.419-1.05.839-1.332.41-.277.821-.639.821-1.305 0-.92-.743-1.666-1.659-1.666s-1.66.744-1.66 1.665M1 9.213c0 2.693 1.42 5.064 3.599 6.559-.001.858.001 2.014.001 3.228l3.531-1.754c.604.117 1.228.18 1.869.18 4.952 0 9-3.657 9-8.213C19 4.657 14.952 1 10 1S1 4.657 1 9.213zm8.898 3.39a.149.149 0 0 0-.149.15.15.15 0 1 0 .3 0 .15.15 0 0 0-.151-.15z" stroke="#848E9F" stroke-width="1.5" stroke-linecap="round" stroke-linejoin="round"/></svg>