<svg width="20" height="20" fill="none" xmlns="http://www.w3.org/2000/svg"><path d="M10 6.051a3.591 3.591 0 0 0-4.619-.388 1.121 1.121 0 0 0-.458.913v7.308c0 .437.465.69.851.485A3.59 3.59 0 0 1 10 15m0-8.949V15m0-8.949a3.591 3.591 0 0 1 4.619-.388c.292.208.458.553.458.912v7.308c0 .437-.465.69-.851.485A3.59 3.59 0 0 0 10 15m5 4H5a4 4 0 0 1-4-4V5a4 4 0 0 1 4-4h10a4 4 0 0 1 4 4v10a4 4 0 0 1-4 4z" stroke="url(#paint0_linear)" stroke-width="1.5" stroke-linecap="round" stroke-linejoin="round"/><defs><linearGradient id="paint0_linear" x1="1" y1="1" x2="1" y2="19" gradientUnits="userSpaceOnUse"><stop stop-color="#5986FB"/><stop offset="1" stop-color="#2D4EF5"/></linearGradient></defs></svg>