<svg width="22" height="22" fill="none" xmlns="http://www.w3.org/2000/svg"><path d="M15.714 13.031v2.222m1.112-1.11h-2.223m.326-8.183v2.222m1.11-1.11h-2.221m-7.071-.786h2.222M7.858 5.174v2.223M5.24 19.167l6.114-6.115a1.112 1.112 0 000-1.57l-.835-.836a1.11 1.11 0 00-1.571 0l-6.116 6.113m4.611-4.603l2.4 2.4M18.07 3.929c3.905 3.905 3.905 10.237 0 14.142-3.905 3.905-10.237 3.905-14.142 0C.024 14.166.024 7.834 3.929 3.93 7.834.024 14.166.024 18.07 3.929z" stroke="url(#paint0_linear)" stroke-width="1.5" stroke-linecap="round" stroke-linejoin="round"/><defs><linearGradient id="paint0_linear" x1="1" y1="1" x2="1" y2="21" gradientUnits="userSpaceOnUse"><stop stop-color="#5986FB"/><stop offset="1" stop-color="#2D4EF5"/></linearGradient></defs></svg>