<svg width="22" height="22" fill="none" xmlns="http://www.w3.org/2000/svg"><path d="M8.586 13.401c2.244 2.236 5.087 3.66 6.779 1.983l.41-.408a1.226 1.226 0 00-.165-1.883c-.4-.277-.829-.575-1.304-.908a1.251 1.251 0 00-1.591.131l-.464.459a9.911 9.911 0 01-1.67-1.354l-.003-.002a9.888 9.888 0 01-1.36-1.664l.461-.461a1.237 1.237 0 00.131-1.585c-.334-.473-.633-.9-.911-1.298a1.24 1.24 0 00-1.891-.164l-.41.408c-1.684 1.685-.254 4.514 1.99 6.75m9.498-9.498A9.918 9.918 0 0011.043 1c-5.49 0-9.957 4.445-9.958 9.91a9.86 9.86 0 001.328 4.954L1 21l5.279-1.378a9.99 9.99 0 004.76 1.206h.004c5.488 0 9.955-4.446 9.957-9.91a9.828 9.828 0 00-2.914-7.011z" stroke="#fff" stroke-width="1.5" stroke-linecap="round" stroke-linejoin="round"/></svg>