<svg width="82" height="82" fill="none" xmlns="http://www.w3.org/2000/svg"><path d="M1 17.842h75.79M28.663 34.684h-10.82m8.42 25.263H13.632C6.655 59.947 1 54.293 1 47.316V13.632C1 6.655 6.655 1 13.632 1h50.526C71.135 1 76.79 6.655 76.79 13.632v16.842M59.952 59.168v-7.726m-.005 16.248a.378.378 0 0 0-.379.384.38.38 0 1 0 .762 0 .382.382 0 0 0-.383-.383zm0 13.31c-11.625 0-21.052-9.427-21.052-21.053 0-11.625 9.427-21.052 21.052-21.052C71.577 38.895 81 48.322 81 59.947 81 71.573 71.577 81 59.947 81z" stroke="#fff" stroke-width="1.5" stroke-linecap="round" stroke-linejoin="round"/></svg>