<svg width="470" height="235" fill="none" xmlns="http://www.w3.org/2000/svg"><path d="M39.657 118.916c5.537 9.512 3.683 20.074-6.363 21.072-1.406-1.457-2.748-2.902-4.015-4.254-8.576-9.285-13.834-16.249-13.834-16.249l-1.743-5.554 5.23-.47 20.725 5.455z" fill="#84A1BE"/><path d="M372.824 115.967l4.206 6.482-9.448-1.248-5.81-3.975c2.098-2.118 6.043-5.264 8.338-7.736 1.005 2.409 2.714 6.477 2.714 6.477z" fill="#5E7EA1"/><path d="M94.708 34.867l.53-4.51-1.924-1.88 3.3-10.544 42.328-2.501 6.624 3.25-.564.934.959.51 1.993 2.153 2.992-1.334 5.967 8.699-11.347 4.404-50.352 3.134-.506-2.315z" fill="#31363E"/><path d="M118.693 68.247l8.355-2.855 19.831-20.631-3.736-14.154-15.531-2.49-9.093 2.786-13.8 2.072-4.247-1.318-5.258 5.525-3.742 4.938 3.51 3.007 23.711 23.12z" fill="#EFA08D"/><path d="M137.484 68.316L133.8 55.56l11.563 5.125 3.393 11.775-11.272-4.144z" fill="#84A1BE"/><path d="M125.979 178.433l21.975-21.385 26.198-1.955 22.213 11.67 24.02 27.374v37.837l64.773 22.511 12.498 23.248 37.511-5.484 32.096-31.46-78.032-172.397L172.88 24.676l-27.518 36.01-.929 10.497-6.949-2.867-2.882-6.5-16.083-3.586.174 10.017 9.14 16.266-6.903 26.597-6.089.423-4.189 37.315 15.327 29.585z" fill="#ECE493"/><path d="M12.307 123.041a1.35 1.35 0 01-1.557-1.097l-.337-1.967-.767-4.417-3.544-20.526-.43-2.478a2.03 2.03 0 002.655-.447l.43 2.473 3.487 20.282.94 5.438.204 1.16a1.344 1.344 0 01-1.08 1.579z" fill="#5C7893"/><path d="M8.757 94.582c-.31.386-.753.644-1.243.725a1.977 1.977 0 01-1.412-.273l-.43-2.478a2.03 2.03 0 002.655-.447l.43 2.473z" fill="#39526E"/><path d="M132.574 43.716l-1.842 7.788a26.26 26.26 0 01-.691 2.415c-.14.406-.291.812-.448 1.207a26.182 26.182 0 01-1.853 3.819 12.2 12.2 0 01-.314.527c-.11.174-.244.39-.372.58-.128.192-.296.447-.453.668a3.862 3.862 0 01-.192.279l-.36.493c-.122.162-.244.325-.378.487l-.302.383-2.73 2.873-.465.412-2.487 1.915-.976.679c-3.126 2.205-6.107 4.503-7.815 4.921-4.939 1.219-7.507-6.093-9.761-10.41-1.046-2.015-1.68-3.013-2.383-3.628-.703-.615-1.62-.894-3.195-1.497-1.25-.476-1.796-1.016-1.94-2.072-.17-1.219.208-3.14.65-6.476.168-1.26.58-2.583.732-3.958.308-2.322.447-4.707.511-6.68 0-.499 0-.975.035-1.416l1.011-.487a112.616 112.616 0 018.181-3.57c4.189 1.057 13.706 3.993 16.646 9.483.193.355.359.723.494 1.103a28.54 28.54 0 01-.36-1.8c-.581-3.36-1.301-10.207 2.423-11.75a4.39 4.39 0 011.906-.36c3.219.185 5.229 4.642 4.985 9.337a6.386 6.386 0 001.743 4.735z" fill="#EFA08D"/><path d="M145.566 18.681a115.642 115.642 0 00-23.927 1.428 111.07 111.07 0 00-28.325 8.368l-1.545-7.063a12.607 12.607 0 014.648-12.767A44.108 44.108 0 01113.69.82c7.175-1.585 15.263-.58 20.829.58a11.17 11.17 0 015.402 2.81 11.149 11.149 0 013.122 5.222l2.522 9.25z" fill="#535962"/><path d="M145.961 20.128c-4.201-.301-9.878 0-16.652 1.109a113.12 113.12 0 00-5.561 1.039c-.865.18-1.743.371-2.643.58-11.005 2.548-19.035 6.523-24.433 10.504-.383.284-.76.58-1.115.847l-.814.656-1.394-6.384a111.072 111.072 0 0128.325-8.368 115.638 115.638 0 0123.927-1.428l.36 1.445z" fill="url(#paint0_linear)"/><path d="M95.528 37.033c0 .44 0 .917-.035 1.416-.064 1.973-.203 4.358-.511 6.68 0 0-5.073 4.12-6.758.771-.58-1.16-.267-3.255 1.61-5.902a21.316 21.316 0 014.99-3.813l.704.848z" fill="#31363E"/><path d="M150.946 20.942c-.267 1.741-.581 3.604-.889 5.566a445.957 445.957 0 01-.581 3.418c-.041.226-.075.453-.116.679-1.819-.923-8.175-3.674-18.86-3.337-6.839.215-15.45 1.689-25.786 5.704-2.905 1.161-5.99 2.484-9.192 4.063l-.314.15c-1.755.871-3.548 1.81-5.38 2.815a27.633 27.633 0 014.875-5.13l.813-.656c.355-.278.732-.58 1.116-.847a59.87 59.87 0 0116.6-8.298 85.913 85.913 0 017.826-2.2c.889-.203 1.743-.4 2.62-.58h.082c1.929-.412 3.794-.755 5.578-1.045a85.903 85.903 0 0112.887-1.213c1.359 0 2.62 0 3.765.105 1.677.082 3.34.352 4.956.806z" fill="#535962"/><path d="M145.351 60.672a18.962 18.962 0 01-1.941 2.728 22.445 22.445 0 01-5.938 4.903l-17.779-.737 2.486-1.915.465-.412 2.731-2.873c.105-.127.209-.255.302-.383.093-.127.256-.325.378-.487l.36-.493a3.06 3.06 0 00.203-.285l.111-.15c.116-.169.232-.343.343-.517.11-.174.25-.383.372-.58.122-.198.215-.354.313-.528a26.047 26.047 0 001.854-3.819c.162-.395.308-.8.447-1.207.267-.79.5-1.596.692-2.414l1.847-7.788a7.107 7.107 0 005.119 2.176c.305.001.61-.018.912-.058l8.274-1.074a2444.46 2444.46 0 01-1.964 10.73c-.168.894-.308 1.66-.424 2.27a.368.368 0 000 .081 3.314 3.314 0 00.087 1.514c.145.491.401.942.75 1.318z" fill="#EFA08D"/><path d="M149.372 30.607c-.808 4.736-1.685 9.703-2.493 14.155l-8.274 1.073a7.111 7.111 0 01-6.031-2.118 6.384 6.384 0 01-1.743-4.73c.227-4.718-1.743-9.151-4.985-9.337a4.392 4.392 0 00-1.906.36c-3.724 1.543-3.021 8.391-2.423 11.751.157.923.308 1.585.36 1.8a7.804 7.804 0 00-.494-1.103c-2.94-5.49-12.457-8.427-16.646-9.483l1.162-.447.75-.278.947-.337.929-.325.924-.313.918-.302.901-.284a94.708 94.708 0 012.649-.772l.43-.116 1.046-.279 1.081-.267c.261-.07.528-.127.79-.185a50.82 50.82 0 011.888-.413c.361-.08.715-.15 1.069-.214a60.42 60.42 0 011.86-.331c.424-.07.848-.14 1.26-.191.239-.041.471-.076.709-.1.239-.022.581-.086.884-.115l1.22-.14.679-.063.634-.058.523-.041 1.429-.087c.372 0 .738-.035 1.098-.046 10.674-.337 17.065 2.414 18.855 3.336z" fill="#39526E"/><path d="M411.746 228.83c-7.483.76-23.13 3.319-44.483 11.96-15.543 6.291-34.107 15.809-54.745 30.177a7.044 7.044 0 01-8.459-.313 453.06 453.06 0 01-9.378-7.84 656.06 656.06 0 01-9.523-8.351 673.346 673.346 0 01-50.335-50.193 669.885 669.885 0 01-11.853-13.521c-11.661-13.684-23.496-28.761-34.757-44.993-7.385-10.649-14.525-21.791-21.219-33.374a432.386 432.386 0 01-8.558-15.547c-1-1.915-1.993-3.836-2.964-5.775a9.492 9.492 0 01-.761-6.383l1.644-7.214a5.55 5.55 0 00-.935-4.52 142.217 142.217 0 00-2.586-3.424 93.892 93.892 0 00-2.109-2.653l-.639-.783-.761-.94a127.963 127.963 0 00-3.945-4.48 3.316 3.316 0 01-.872-2.832.55.55 0 010-.081c.117-.61.256-1.376.424-2.27.494-2.657 1.163-6.458 1.964-10.73a1395.85 1395.85 0 002.493-14.154c.041-.226.076-.453.116-.679.192-1.16.384-2.321.581-3.418.326-1.961.622-3.836.889-5.565.14-.912.267-1.776.389-2.6a2.322 2.322 0 013.283-1.793l16.978 7.643 1.284.481a33.02 33.02 0 00-5.619 7.022v.04a28.31 28.31 0 00-3.968 12.768c-.767 12.268 6.484 24.954 20.069 32.852l.069.047c8.855 5.147 20.395 8.287 34.153 8.002 42.311-.876 71.67-16.997 71.67-16.997.476.58 21.3 26.172 41.52 47.552 9.111 9.645 21.237 22.632 34.037 37.877l.041.041.185.221.494.58c11.621 13.847 23.735 29.492 34.67 46.089l.715 1.086c4.735 7.242 9.244 14.659 13.364 22.186a3.244 3.244 0 01-2.563 4.799z" fill="url(#paint1_linear)"/><path d="M166.983 112.397a232.363 232.363 0 01-28.471-11.172 5.164 5.164 0 01-2.905-3.76 574.629 574.629 0 00-1.952-10.225 2.905 2.905 0 00-2.504-2.322l-3.347-.406-9.146-1.103a3.1 3.1 0 01-2.701-3.51 68.628 68.628 0 011.249-6.564 64.96 64.96 0 011.458-5.09l.483-.33.488-.337 17.814.749s0 .238.087.667c0 .064 0 .128.029.197 0 .134.047.279.076.441.046.273.104.58.18.929.075.348.128.615.209.957a.138.138 0 000 .064 28.803 28.803 0 00.476 1.822c.105.355.215.726.343 1.115.052.174.116.354.174.54l.157.44a38.954 38.954 0 001.54 3.75c.087.185.174.377.273.58a36.98 36.98 0 003.399 5.652l.517.685c.186.244.38.487.581.731.198.25.407.5.622.743.215.244.43.493.651.737.221.244.343.377.517.58.562.6 1.16 1.18 1.795 1.741.192.18.39.36.581.534h.035c.264.232.531.459.802.68.581.504 1.249.992 1.923 1.473.227.163.459.32.697.482l.059.04c.278.192.581.378.859.58.39.245.785.488 1.197.72.25.151.5.29.756.43a53.31 53.31 0 002.353 1.195 505.356 505.356 0 008.646 15.565z" fill="url(#paint2_linear)"/><path d="M158.425 96.844c-19.175-8.885-20.918-28.535-20.918-28.535a22.44 22.44 0 005.915-4.91 19.046 19.046 0 001.941-2.727 127.963 127.963 0 013.945 4.48 153.916 153.916 0 016.101 7.782 5.55 5.55 0 01.935 4.52l-1.644 7.214a8.27 8.27 0 00-.197 1.3 9.412 9.412 0 00.964 5.084 317.475 317.475 0 002.958 5.792z" fill="#84A1BE"/><path d="M234.812 204.287a406.604 406.604 0 01-14.427-10.15 467.714 467.714 0 01-46.233-39.044 506.282 506.282 0 01-52.036-58.09 476.192 476.192 0 005.717-12.49l3.347.407a2.903 2.903 0 012.504 2.321c.494 2.478 1.33 6.732 1.952 10.226a5.172 5.172 0 002.905 3.76 232.518 232.518 0 0028.471 11.171c6.687 11.607 13.834 22.726 21.219 33.375 11.26 16.249 23.096 31.309 34.757 44.993 3.958 4.669 7.9 9.177 11.824 13.521z" fill="url(#paint3_linear)"/><path d="M127.246 163.72a145.452 145.452 0 01-1.249 14.711c-1.476.445-2.944.857-4.404 1.237h-.035c-26.147 8.734-65.79-7.8-82.785-15.954a242.48 242.48 0 01-2.853-1.392 8.753 8.753 0 01-3.779-3.641 8.737 8.737 0 01-1.014-5.146 134.623 134.623 0 012.167-13.533 131.558 131.558 0 016.362-21.071l44.31 11.676 16.919 4.457a242.219 242.219 0 0013.944-23.515c5.729 8.722 13.265 25.459 12.417 52.171z" fill="url(#paint4_linear)"/><path d="M18.96 113.465l-3.486 6.024-2.47-.511-2.835-.58-.528-.11a9.542 9.542 0 01-6.264-4.399l-1.627-2.681a7.613 7.613 0 01-.715-6.384l1.987-5.832a4.287 4.287 0 015.415-2.67l4.242 1.422a7.5 7.5 0 013.54 4.683l2.742 11.038z" fill="#535962"/><path d="M286.918 269.049c-7.977 6.157-16.553 12.187-24.322 17.41-14.345 9.651-25.948 16.615-25.948 16.615v125.002H225.44s-53.577-105.515-46.976-145.894c4.136-25.302 20.539-55.839 33.118-75.292 3.306-5.124 6.345-9.482 8.826-12.767a421.981 421.981 0 0014.427 10.15 673.51 673.51 0 0050.334 50.192c.378 4.144.942 9.146 1.749 14.584z" fill="#5C7893"/><path d="M378.151 104.274c-2.138 2.635-4.52 5.333-6.908 7.921a374.513 374.513 0 01-6.688 6.964 300.427 300.427 0 01-4.892 4.829 5.461 5.461 0 01-7.879-.314c-20.783-23.532-38.778-38.516-50.061-46.861-4-3.028-8.162-5.835-12.469-8.409 0 0-29.359 16.121-71.67 16.998-47.104.975-68.189-38.18-44.681-60.714C198.137.5 281.555 6.222 316.417 26.725c21.841 12.187 52.873 56.292 62.048 69.778a6.525 6.525 0 01-.314 7.771z" fill="url(#paint5_linear)"/><path d="M367.582 121.2l1.656 7.863a14.843 14.843 0 003.056 6.384l2.255 2.739a1.98 1.98 0 002.392.553c.403-.19.73-.51.929-.908.198-.399.256-.852.165-1.288l-.36-1.775a.92.92 0 01.858-1.102.927.927 0 01.507.121l5.2 2.983a7.039 7.039 0 008.971-1.672 9.678 9.678 0 002.11-6.964 10.512 10.512 0 00-5.84-8.49 27.524 27.524 0 00-8.518-2.582l-8.134-1.085-5.247 5.223z" fill="#535962"/><path d="M13.202 120.302a26.65 26.65 0 01-2.789-.325l-.273-1.584 2.836.58.226 1.329z" fill="#39526E"/><path d="M98.735 59.128c-.767-.68-1.621-.894-3.196-1.498-1.249-.476-1.795-1.015-1.94-2.071.156.383.894 1.613 3.887 1.567 3.538-.059 2.928 2.013 1.25 2.002zm20.958 8.439l5.457-4.486a5.545 5.545 0 017.437.348l4.921 4.887-17.815-.749zm25.658-6.894a19.04 19.04 0 01-1.941 2.728l-1.371-1.399a8.693 8.693 0 01-2.382-4.816 4.226 4.226 0 00-4.184-3.627c-.392 0-.783.052-1.162.156-1.621.453-3.137 1.01-4.753 1.399a15.41 15.41 0 01-7.472.04c-9.122-2.13-3.66-14.647-12.73-14.728-7.716-.07-14.404 4.689-14.404 4.689.308-2.321.448-4.707.512-6.68 0-.499 0-.975.035-1.416l1.01-.487a112.584 112.584 0 018.181-3.57c4.19 1.057 13.707 3.993 16.647 9.483.193.355.358.723.494 1.103a27.492 27.492 0 01-.361-1.799c-.581-3.36-1.301-10.208 2.423-11.752a4.395 4.395 0 011.906-.36c3.219.186 5.229 4.643 4.985 9.338a6.372 6.372 0 001.743 4.73 7.109 7.109 0 005.119 2.176c.305 0 .61-.019.913-.058l8.273-1.074a2284.89 2284.89 0 01-1.964 10.73c-.168.894-.307 1.66-.424 2.27a.552.552 0 000 .08 3.329 3.329 0 00.907 2.844z" fill="#E06855"/><path d="M156.344 77.466L154.7 84.68a8.39 8.39 0 00-.198 1.3l.221-6.964a9.282 9.282 0 00-2.638-6.76l-8.663-8.857a18.96 18.96 0 001.94-2.727 126.983 126.983 0 013.946 4.48 154.502 154.502 0 016.101 7.782 5.558 5.558 0 01.935 4.532z" fill="#5E7EA1"/><path d="M301.723 76.813a137.386 137.386 0 00-12.469-8.41l4.247-2.187a3.915 3.915 0 013.272-.144 3.897 3.897 0 012.231 2.396l2.719 8.345z" fill="url(#paint6_linear)"/><path d="M130.546 107.744zm6.142 7.428a739.933 739.933 0 002.742 3.221 308.403 308.403 0 01-2.742-3.221z" fill="#C6C887"/><path d="M125.979 178.436l1.581-.494 1.324-.429a136.493 136.493 0 008.251-3.035 178.98 178.98 0 007.321-3.134 201.25 201.25 0 005.229-2.478l1.342-.667c1.744-.871 3.487-1.77 5.23-2.681l1.534-.825 1.034-.58c.5-.267.988-.54 1.481-.812.984-.546 1.953-1.093 2.906-1.643a79.04 79.04 0 001.435-.824 290.256 290.256 0 009.54-5.757l-2.353-2.269c-.389-.377-.773-.748-1.162-1.131a524.56 524.56 0 01-19.906-20.567 472.575 472.575 0 01-11.284-12.709v-.035a234.518 234.518 0 01-2.742-3.221l-1.36-1.532a123.82 123.82 0 01-1.272-1.526l-.471-.517a412.257 412.257 0 01-5.281-6.499l-.93-1.161-.093-.122-.982-1.248a368.48 368.48 0 01-4.259-5.513 379.471 379.471 0 01-7.274 14.509c3.643 5.571 8.018 14.374 10.493 26.932 3.306 16.784-8.855 32.777-25.943 33.88-27.54 1.782-59.636-8.299-60.636-8.618 16.995 8.154 56.645 24.687 82.785 15.953h.035c1.456-.387 2.924-.799 4.404-1.236l.023-.011z" fill="url(#paint7_linear)"/><path d="M174.152 155.093a259.375 259.375 0 01-29.708 16.249c9.012-30.63-4.346-51.922-4.979-52.908a521.263 521.263 0 0034.687 36.659z" fill="url(#paint8_linear)"/><path d="M100.885 135.047l-2.94 3.934a4.058 4.058 0 01-3.067 1.609 4.072 4.072 0 01-3.197-1.336l-7.716-8.664 16.92 4.457z" fill="url(#paint9_linear)"/><path d="M166.982 112.398c-12.811-1.903-24.711-5.582-29.347-7.782a5.162 5.162 0 01-2.905-3.76 573.34 573.34 0 00-1.953-10.226 2.897 2.897 0 00-2.504-2.321l-3.347-.406-.581-.07a675.492 675.492 0 001.476-3.32l3.347.407a2.909 2.909 0 012.504 2.321c.494 2.478 1.331 6.732 1.952 10.226a5.172 5.172 0 002.905 3.76 232.39 232.39 0 0028.453 11.171z" fill="url(#paint10_linear)"/><path d="M158.424 96.85c-13.672-2.136-19.755-11.607-22.317-17.665a8.99 8.99 0 00-7.972-5.455l-10.9-.395c.482-1.985.993-3.69 1.458-5.09l.482-.33.489-.337 17.814.749s0 .238.087.667c0 .064 0 .128.029.197 0 .134.047.279.076.441.046.273.104.58.18.929.075.348.128.615.209.957a.138.138 0 000 .064 28.803 28.803 0 00.476 1.822c.105.355.215.726.343 1.115.052.174.116.354.174.54l.157.44a38.954 38.954 0 001.54 3.75c.087.185.174.377.273.58a36.98 36.98 0 003.399 5.652l.517.685c.186.244.38.487.581.731.198.25.407.5.622.743.215.244.43.493.651.737.221.244.343.377.517.58.562.6 1.16 1.18 1.795 1.741.192.18.39.36.581.534h.035c.264.232.531.459.802.68.581.504 1.249.992 1.923 1.473.227.163.459.32.697.482l.058.04c.279.192.582.378.86.58.39.245.785.488 1.197.72.25.151.5.29.756.43.794.43 1.597.834 2.411 1.213z" fill="url(#paint11_linear)"/><path d="M39.657 118.914a131.56 131.56 0 00-6.363 21.089c-1.406-1.456-2.748-2.901-4.015-4.254a128.701 128.701 0 0110.378-16.835z" fill="#5E7EA1"/><path d="M286.918 269.049c-3.823 2.954-7.78 5.867-11.719 8.705a539.06 539.06 0 01-12.603 8.74c-10.354-46.31-40.352-71.769-51.037-79.569 3.306-5.124 6.345-9.482 8.826-12.767a420.582 420.582 0 0014.427 10.15 649.582 649.582 0 0019.115 20.312l.372.383a666.724 666.724 0 0030.847 29.486c.401 4.12.964 9.123 1.772 14.56z" fill="#39526E"/><path d="M286.918 269.051c-3.823 2.954-7.78 5.867-11.719 8.705-.918-30.415-18.14-49.821-20.888-52.735a666.273 666.273 0 0030.847 29.487c.389 4.103.953 9.105 1.76 14.543z" fill="#2A3E58"/><path d="M400.184 200.77c-32.276-48.515-77.172-36.102-155.716-53.924-79.147-17.949-84.929-65.292-84.074-83.445a99.988 99.988 0 012.876-18.913c-.767 12.268 6.484 24.954 20.068 32.853l.07.046c8.855 5.147 20.394 8.287 34.153 8.003 42.31-.877 71.67-16.998 71.67-16.998.476.58 21.3 26.173 41.52 47.552 9.11 9.645 21.236 22.633 34.037 37.878l.04.04.186.221.494.58c11.609 13.864 23.741 29.51 34.676 46.107z" fill="url(#paint12_linear)"/><path d="M364.793 153.828c-4.782-5.478-32.752-35.023-85.242-41.632-52.874-6.657-94.231-33.555-96.143-34.82 8.855 5.147 20.394 8.287 34.153 8.003 42.31-.877 71.67-16.998 71.67-16.998.476.58 21.3 26.173 41.52 47.552 9.116 9.662 21.242 22.667 34.042 37.895z" fill="url(#paint13_linear)"/><path d="M150.946 20.942c-.267 1.741-.581 3.604-.889 5.566a445.957 445.957 0 01-.581 3.418c-.041.226-.076.452-.116.679-9.297-10.22-24.874-8.427-25.641-8.328a116.36 116.36 0 015.578-1.045 85.903 85.903 0 0112.887-1.212c1.36 0 2.621 0 3.765.104a22.39 22.39 0 014.997.818z" fill="#40454E"/><path d="M145.566 18.681a115.638 115.638 0 00-23.927 1.428c-1.83-3.587 2.092-8.299 2.092-13.232 0-6.842-10.023-6.058-10.023-6.058 7.176-1.585 15.264-.58 20.83.58a11.173 11.173 0 015.391 2.814 11.15 11.15 0 013.115 5.218l2.522 9.25z" fill="#31363E"/><path d="M145.962 20.126c-4.201-.301-9.878 0-16.653 1.109a114.77 114.77 0 00-5.561 1.039 5.686 5.686 0 01-2.086-2.17 115.652 115.652 0 0123.928-1.428l.372 1.45z" fill="url(#paint14_linear)"/><path d="M7.09 92.997a2.036 2.036 0 01-2.324-1.637L.489 66.598l-.43-2.472a2.034 2.034 0 011.668-2.356c.259-.05.525-.05.784 0a2.057 2.057 0 011.575 1.648l4.671 27.258v.098a2.035 2.035 0 01-1.667 2.223z" fill="#5C7893"/><path d="M5.556 91.117L1.279 66.354l-.43-2.472a2.04 2.04 0 011.017-2.124h-.168A2.04 2.04 0 00.03 64.114l.43 2.472L4.736 91.35a2.03 2.03 0 002.325 1.636c.228-.04.448-.119.65-.232a2.036 2.036 0 01-2.155-1.636z" fill="#39526E"/><defs><linearGradient id="paint0_linear" x1="93.349" y1="18.57" x2="93.349" y2="34.863" gradientUnits="userSpaceOnUse"><stop stop-color="#5986FB"/><stop offset="1" stop-color="#2D4EF5"/></linearGradient><linearGradient id="paint1_linear" x1="144.464" y1="16.324" x2="144.464" y2="272.228" gradientUnits="userSpaceOnUse"><stop stop-color="#5986FB"/><stop offset="1" stop-color="#2D4EF5"/></linearGradient><linearGradient id="paint2_linear" x1="115.926" y1="67.578" x2="115.926" y2="112.397" gradientUnits="userSpaceOnUse"><stop stop-color="#5986FB"/><stop offset="1" stop-color="#2D4EF5"/></linearGradient><linearGradient id="paint3_linear" x1="122.116" y1="84.514" x2="122.116" y2="204.287" gradientUnits="userSpaceOnUse"><stop stop-color="#5986FB"/><stop offset="1" stop-color="#2D4EF5"/></linearGradient><linearGradient id="paint4_linear" x1="31.073" y1="111.549" x2="31.073" y2="182.145" gradientUnits="userSpaceOnUse"><stop stop-color="#5986FB"/><stop offset="1" stop-color="#2D4EF5"/></linearGradient><linearGradient id="paint5_linear" x1="163.237" y1="8.822" x2="163.237" y2="125.516" gradientUnits="userSpaceOnUse"><stop stop-color="#5986FB"/><stop offset="1" stop-color="#2D4EF5"/></linearGradient><linearGradient id="paint6_linear" x1="289.254" y1="65.781" x2="289.254" y2="76.813" gradientUnits="userSpaceOnUse"><stop stop-color="#5986FB"/><stop offset="1" stop-color="#2D4EF5"/></linearGradient><linearGradient id="paint7_linear" x1="38.732" y1="97.027" x2="38.732" y2="182.161" gradientUnits="userSpaceOnUse"><stop stop-color="#5986FB"/><stop offset="1" stop-color="#2D4EF5"/></linearGradient><linearGradient id="paint8_linear" x1="139.465" y1="118.434" x2="139.465" y2="171.342" gradientUnits="userSpaceOnUse"><stop stop-color="#5986FB"/><stop offset="1" stop-color="#2D4EF5"/></linearGradient><linearGradient id="paint9_linear" x1="83.965" y1="130.59" x2="83.965" y2="140.594" gradientUnits="userSpaceOnUse"><stop stop-color="#5986FB"/><stop offset="1" stop-color="#2D4EF5"/></linearGradient><linearGradient id="paint10_linear" x1="126.345" y1="84.514" x2="126.345" y2="112.398" gradientUnits="userSpaceOnUse"><stop stop-color="#3968E1"/><stop offset="1" stop-color="#1737DA"/></linearGradient><linearGradient id="paint11_linear" x1="117.235" y1="67.578" x2="117.235" y2="96.85" gradientUnits="userSpaceOnUse"><stop stop-color="#3968E1"/><stop offset="1" stop-color="#1737DA"/></linearGradient><linearGradient id="paint12_linear" x1="160.324" y1="44.488" x2="160.324" y2="200.77" gradientUnits="userSpaceOnUse"><stop stop-color="#3169FC"/><stop offset="1" stop-color="#2C4CEE"/></linearGradient><linearGradient id="paint13_linear" x1="183.408" y1="68.381" x2="183.408" y2="153.828" gradientUnits="userSpaceOnUse"><stop stop-color="#5986FB"/><stop offset="1" stop-color="#2D4EF5"/></linearGradient><linearGradient id="paint14_linear" x1="121.662" y1="18.563" x2="121.662" y2="22.274" gradientUnits="userSpaceOnUse"><stop stop-color="#5986FB"/><stop offset="1" stop-color="#2D4EF5"/></linearGradient></defs></svg>