<svg width="40" height="25" fill="none" xmlns="http://www.w3.org/2000/svg"><g clip-path="url(#clip0)"><path fill-rule="evenodd" clip-rule="evenodd" d="M4.913 9.224A4.61 4.61 0 01.317 4.612 4.61 4.61 0 014.927 0h3.49a2.109 2.109 0 00-.662 1.537c0 .607.254 1.152.662 1.538h-3.49a1.537 1.537 0 000 3.075h6.717a4.612 4.612 0 010 9.225l-.007-.001H1.854a1.537 1.537 0 01-.008-3.075h9.798a1.538 1.538 0 000-3.075h-6.73z" fill="#fff"/><path fill-rule="evenodd" clip-rule="evenodd" d="M19.954 0a7.686 7.686 0 017.683 7.855l.001.003a4.44 4.44 0 108.88 0V1.537a1.537 1.537 0 113.073 0v6.32a7.515 7.515 0 01-7.514 7.517 7.5 7.5 0 01-6.019-3.018 7.67 7.67 0 01-6.104 3.018H14.43a5.4 5.4 0 002.377-3.075h3.148a4.611 4.611 0 004.61-4.555l-.004-.23a4.611 4.611 0 00-4.607-4.44H10.05a1.537 1.537 0 010-3.074h9.904z" fill="#fff"/><path fill-rule="evenodd" clip-rule="evenodd" d="M24.747.81a1.536 1.536 0 012.891.727V4.34a8.411 8.411 0 00-2.89-3.53zM.138 20.442l.005-.611.205.001.038.4.045.06a.66.66 0 00.174.06c.066.015.137.022.214.023a.596.596 0 00.386-.11.368.368 0 00.143-.304c.002-.178-.163-.339-.495-.483a8.395 8.395 0 00-.083-.037c-.237-.104-.393-.201-.47-.29a.511.511 0 01-.112-.348.6.6 0 01.223-.48c.148-.122.343-.183.585-.18.097 0 .195.008.292.026.098.018.198.043.3.076l-.004.539-.182-.001-.05-.332-.051-.058a.5.5 0 00-.144-.056.772.772 0 00-.17-.02.5.5 0 00-.345.11.39.39 0 00-.13.306c0 .094.029.172.088.234.059.062.19.138.396.226l.087.036c.201.08.347.165.436.254a.5.5 0 01.113.172.568.568 0 01.037.212.611.611 0 01-.25.504c-.166.128-.384.19-.656.188a1.94 1.94 0 01-.341-.03 1.302 1.302 0 01-.284-.087zm2.176-2.247l.853.006-.001.14-.216.019-.06.048-.01 1.258c-.001.244.046.42.143.531.097.11.255.166.472.168.215.001.372-.053.471-.162.1-.11.15-.285.152-.527l.01-1.234-.066-.064-.208-.032v-.14l.735.007v.138l-.21.03-.063.062-.01 1.265a1.569 1.569 0 01-.038.383.611.611 0 01-.12.23.684.684 0 01-.294.192 1.22 1.22 0 01-.427.067A1.203 1.203 0 013 20.506a.678.678 0 01-.29-.196.604.604 0 01-.116-.232 1.593 1.593 0 01-.032-.383l.01-1.29-.059-.05-.199-.02.001-.14zm2.749 2.355l.001-.142.22-.016.06-.049.014-1.916-.058-.05-.22-.022.002-.139.848.007v.14l-.199.017-.06.05-.015 1.965.786.006.05-.056.062-.417.18.001-.005.634-1.666-.013zm2.178.017l.001-.143.197-.015.06-.05.015-1.915-.059-.05-.197-.022.001-.139 1.666.013-.004.507-.195-.001-.047-.296-.048-.053-.804-.006-.007.88.57.004.05-.048.037-.254.163.002-.005.766-.165-.001-.032-.252-.049-.053-.57-.004-.007.974.931.008.05-.056.063-.351.179.002-.004.567-1.79-.014zm2.207-2.317l.809.006-.001.14-.2.019-.035.038.525.96.591-.924-.032-.05-.211-.038v-.14l.71.006v.139l-.213.042-.733 1.153-.006.783.056.05.236.018-.001.144-.9-.008.001-.142.236-.015.057-.05.005-.736-.683-1.22-.212-.036.001-.14zm2.521 2.353v-.142l.21-.026.063-.066.014-1.888-.043-.05-.23-.023v-.138l.738.005v.094l.64 1.751.673-1.728.001-.107.744.006v.14l-.22.018-.043.05-.014 1.915.042.05.218.018-.001.143-.83-.006.001-.143.23-.015.033-.05.016-1.962-.84 2.165-.15-.001-.776-2.141-.015 1.899.062.066.213.03-.001.142-.735-.006zm4.311-1.964l-.351.962.701.005-.35-.967zm-.052-.366l.229.002.816 2.184.21.044-.002.143-.79-.006.002-.143.215-.015.026-.05-.246-.665-.82-.007-.252.662.035.05.225.019v.143l-.682-.005.001-.144.2-.04.833-2.172zm1.662 2.376l.002-.142.212-.026.064-.066.014-1.889-.062-.05-.223-.022.001-.139.654.005v.087l1.172 1.79.013-1.635-.062-.063-.209-.033.001-.139.73.006v.14l-.21.028-.063.062-.016 2.102-.23-.002-1.308-1.986-.014 1.74.062.066.21.029-.002.143-.735-.006zm4.741-2.138l-.015 2.015.275.002c.317.003.554-.08.712-.245.158-.166.238-.418.24-.757.003-.339-.072-.591-.227-.758-.153-.168-.39-.252-.71-.255l-.275-.002zm.29-.157c.407.003.722.107.945.312.222.204.332.492.33.863a1.32 1.32 0 01-.114.548c-.075.16-.184.294-.328.402a.973.973 0 01-.346.163 2.08 2.08 0 01-.505.045l-.857-.006.001-.143.198-.015.059-.049.014-1.916-.058-.05-.197-.022v-.14l.858.008zm1.951 2.349l.001-.142.197-.016.06-.05.015-1.915-.06-.05-.196-.022.001-.139 1.665.013-.003.507-.196-.001-.046-.296-.048-.053-.804-.006-.007.88.57.004.05-.048.036-.254.164.002-.006.766-.164-.001-.032-.252-.05-.053-.57-.004-.007.974.932.008.05-.056.062-.351.18.002-.004.567-1.79-.014zm2.412.018l.001-.142.209-.026.064-.066.015-1.888-.045-.05-.23-.022v-.14l.739.006-.001.093.64 1.752.674-1.728.001-.107.744.006-.001.14-.22.018-.042.05-.015 1.915.042.05.219.019-.001.142-.83-.006.001-.143.23-.015.033-.05.015-1.962-.84 2.165-.15-.001-.775-2.141-.015 1.899.062.066.212.03v.143l-.736-.007zm3.445.027v-.142l.223-.016.06-.049.015-1.916-.06-.05-.221-.022.001-.138.882.006-.001.14-.222.018-.06.049-.015 1.916.06.05.222.018-.001.143-.883-.007zm2.122-2.158l-.007.968a3.663 3.663 0 00.191.005c.215.002.372-.034.471-.11.098-.075.148-.196.15-.363 0-.173-.049-.3-.149-.378-.1-.078-.263-.119-.487-.12l-.169-.002zm-.567-.164l.886.007c.284.002.494.055.63.159.137.103.204.26.202.472a.51.51 0 01-.144.37c-.094.096-.235.164-.422.203a.78.78 0 01.218.094.43.43 0 01.138.143c.038.062.07.155.096.276.026.12.047.201.063.24.034.096.082.161.143.196.061.036.163.053.306.054h.03v.134c-.052.01-.1.016-.144.021a1.078 1.078 0 01-.126.007.736.736 0 01-.206-.027.366.366 0 01-.145-.076c-.082-.073-.15-.216-.202-.426a2.85 2.85 0 00-.047-.17c-.046-.142-.107-.24-.186-.296-.079-.055-.198-.083-.356-.084-.035 0-.09 0-.163.004l-.012.002-.007.827.06.05.197.018v.142l-.827-.006v-.143l.199-.015.059-.049.014-1.916-.058-.05-.197-.021v-.14zm2.645 2.354v-.142l.198-.016.06-.049.015-1.915-.06-.05-.196-.023.001-.138 1.665.012-.004.508-.195-.002-.046-.295-.048-.053-.804-.007-.008.88.57.005.05-.049.037-.253.164.001-.006.767-.164-.002-.033-.252-.048-.053-.57-.003-.008.974.932.007.05-.056.062-.35.18.001-.004.567-1.79-.014zm2.399.019l.001-.142.22-.016.059-.05.015-1.915-.059-.05-.219-.022.002-.139.848.006-.002.14-.197.018-.06.05-.016 1.965.786.006.05-.056.062-.417.18.001-.005.634-1.665-.013zM.001 22.379l.852.006v.14l-.217.019-.06.048-.009 1.258c-.002.244.046.42.143.531.097.11.254.166.471.168.215.001.373-.053.472-.162.099-.11.15-.285.152-.527l.01-1.234-.067-.064-.208-.032.001-.14.735.007-.001.139-.209.028-.064.063-.01 1.265a1.572 1.572 0 01-.038.383.611.611 0 01-.119.23.686.686 0 01-.294.192 1.22 1.22 0 01-.427.067 1.203 1.203 0 01-.428-.074.678.678 0 01-.29-.196.6.6 0 01-.117-.232 1.593 1.593 0 01-.031-.383l.01-1.29-.06-.049L0 22.518l.001-.14zm4.563 2.369l.001-.142.213-.026.063-.066.015-1.889-.062-.05-.223-.022v-.139l.655.005v.087l1.172 1.79.012-1.635-.062-.063-.208-.033v-.138l.73.005v.14l-.21.029-.062.062-.017 2.1h-.229l-1.309-1.986-.013 1.738.062.067.209.029-.001.143-.736-.006zm4.656.036l.002-.142.222-.016.06-.05.015-1.914-.06-.05-.221-.023v-.138l.883.006v.14l-.223.018-.06.05-.015 1.915.06.05.222.018-.001.143-.883-.007zm3.1-2.31l.81.007-.002.138-.202.02-.038.048.64 1.758.642-1.748-.034-.05-.215-.021v-.14l.693.006v.139l-.216.039-.816 2.165-.242-.002-.8-2.177-.222-.043.001-.14zm4.482 2.368V24.7l.198-.015.06-.05.014-1.915-.058-.05-.197-.022.001-.14 1.665.014-.004.507-.195-.001-.046-.296-.048-.053-.805-.006-.006.88.57.004.05-.049.036-.253.164.001-.006.767-.164-.001-.032-.253-.05-.053-.57-.004-.007.975.931.008.05-.056.063-.351.18.001-.004.568-1.79-.015zm4.745-2.137l-.008.967a3.704 3.704 0 00.192.006c.215.002.372-.035.47-.11.098-.075.148-.196.15-.364.001-.172-.048-.299-.149-.377-.1-.079-.262-.119-.487-.12l-.168-.002zm-.568-.164l.886.007c.284.001.495.055.63.158.136.103.204.261.202.473a.516.516 0 01-.144.37c-.094.096-.235.163-.422.202a.79.79 0 01.218.095.424.424 0 01.138.142.9.9 0 01.096.276c.027.121.047.202.063.241.035.096.082.16.143.196.06.035.163.053.307.054h.03v.133c-.053.01-.101.017-.145.021a1.092 1.092 0 01-.126.007.734.734 0 01-.206-.026.36.36 0 01-.144-.077c-.082-.072-.15-.215-.202-.426a3.264 3.264 0 00-.048-.17c-.045-.142-.107-.24-.186-.296-.078-.055-.197-.083-.356-.084-.034 0-.088.001-.163.004l-.012.002-.006.827.059.05.198.018-.001.143-.827-.006.001-.143.198-.016.06-.048.014-1.916-.06-.05-.196-.022.001-.14zm4.477 2.299l.005-.612.205.001.038.4.045.06a.7.7 0 00.175.06c.066.015.136.022.214.023a.593.593 0 00.385-.11.368.368 0 00.144-.304c.001-.178-.163-.339-.495-.483a3.438 3.438 0 00-.083-.037c-.237-.104-.394-.201-.47-.29a.512.512 0 01-.113-.347.6.6 0 01.224-.482c.147-.121.342-.181.585-.18a1.934 1.934 0 01.592.103l-.005.54-.182-.002-.05-.332-.05-.058a.516.516 0 00-.144-.056.77.77 0 00-.17-.02.496.496 0 00-.345.11.387.387 0 00-.13.306c0 .094.028.173.087.234.06.062.192.138.397.226.019.01.048.02.086.036.202.08.347.165.436.254a.5.5 0 01.113.172.563.563 0 01.037.212.613.613 0 01-.25.505c-.165.127-.383.19-.655.187a1.977 1.977 0 01-.342-.03 1.3 1.3 0 01-.284-.086zm4.002.1l.001-.142.223-.015.06-.05.014-1.915-.059-.05-.222-.023.002-.138.882.006-.002.14-.222.018-.06.05-.015 1.915.06.05.222.018v.143l-.884-.007zm3.235-2.309l1.964.016-.005.534-.191-.002-.045-.322-.05-.053-.53-.004-.015 1.965.056.05.234.018v.143l-.909-.007.001-.142.233-.016.06-.049.015-1.965-.53-.004-.051.052-.051.323-.19-.002.004-.535z" fill="#fff"/><mask id="a" maskUnits="userSpaceOnUse" x="36" y="22" width="3" height="4"><path d="M36.821 22.663h2.158v2.346h-2.158v-2.346z" fill="#fff"/></mask><g mask="url(#a)"><path fill-rule="evenodd" clip-rule="evenodd" d="M36.823 22.663l.808.007-.001.138-.199.02-.036.038.525.96.591-.924-.031-.05-.212-.038.001-.14.71.006-.001.139-.213.042-.732 1.153-.006.783.056.05.235.019v.143l-.9-.008v-.142l.237-.015.056-.05.006-.736-.684-1.22-.212-.036.002-.14z" fill="#fff"/></g></g><defs><clipPath id="clip0"><path fill="#fff" d="M0 0h40v25H0z"/></clipPath></defs></svg>