<svg width="170" height="170" fill="none" xmlns="http://www.w3.org/2000/svg"><path d="M3.126 21.828c.824-9.7 8.982-17.1 18.718-17.1h126.5c9.612 0 17.718 7.219 18.629 16.787 4.491 47.144 3.631 79.496-.262 126.553-.806 9.743-8.981 17.206-18.758 17.206H21.713c-9.68 0-17.816-7.32-18.679-16.961-4.152-46.417-3.966-78.722.092-126.485z" fill="url(#paint0_linear)"/><path d="M21.827 166.874c-9.7-.824-17.1-8.982-17.1-18.718v-126.5c0-9.612 7.218-17.718 16.787-18.63 47.143-4.49 79.496-3.63 126.552.263 9.744.806 17.206 8.981 17.206 18.758v126.24c0 9.68-7.319 17.816-16.961 18.679-46.416 4.152-78.721 3.966-126.484-.092z" fill="url(#paint1_linear)"/><path d="M53.883 64.683c17.356-17.355 45.5-17.355 62.856 0m-16.922 46.245c-8.184 0-14.817-6.634-14.817-14.817m-4.278 22.222c-6.239-5.4-10.228-13.311-10.228-22.222 0-8.183 6.634-14.817 14.817-14.817s14.817 6.634 14.817 14.817M61.65 118.333a44.176 44.176 0 01-5.972-22.222c0-16.367 13.266-29.628 29.628-29.628 16.361 0 29.627 13.267 29.627 29.628M35 112.778v11.111C35 130.028 39.972 135 46.111 135h11.111M135 57.222v-11.11C135 39.971 130.028 35 123.889 35h-11.111m-55.556 0h-11.11C39.971 35 35 39.972 35 46.111v11.111M112.778 135h11.111c6.139 0 11.111-4.972 11.111-11.111v-11.111" stroke="#fff" stroke-opacity=".1" stroke-linecap="round" stroke-linejoin="round"/><defs><linearGradient id="paint0_linear" x1="85" y1="0" x2="85" y2="170" gradientUnits="userSpaceOnUse"><stop stop-color="#262626"/><stop offset="1" stop-color="#212121"/></linearGradient><linearGradient id="paint1_linear" x1="85" y1="0" x2="85" y2="170" gradientUnits="userSpaceOnUse"><stop stop-color="#262626"/><stop offset="1" stop-color="#212121"/></linearGradient></defs></svg>