<svg width="440" height="220" fill="none" xmlns="http://www.w3.org/2000/svg"><g clip-path="url(#clip0)"><path d="M243.936 60.467l6.499-7.945-4.098-14.015-7.168-4.542s-20.871-2.597-21.11-2.597c-.239 0-8.84 5.844-8.84 5.844l9.444 15.047 15.877 17.597 9.396-9.39z" fill="#EFA08D"/><path d="M115.253 53.364L94.89 93.773l-8.309 16.462-7.67 15.173a6.182 6.182 0 01-7.688 2.985L1.778 102.338a2.71 2.71 0 01-1.511-1.39l9.76-12.111L41.775 71.09c3.315-.597 8.123-2.011 9.76-4.954l18.972-28.615 42.488 10.887a3.5 3.5 0 012.258 4.955z" fill="#33313B"/><path d="M222.38 75.627l33.988-10.183 11.445-1.038 23.296 163.548s-55.319 4.942-56.245 4.632c-.926-.31-36.778-35.217-36.778-35.217l24.861-48.873-.567-72.869z" fill="#026FFF"/><path d="M256.368 65.445c-4.181 10.272-9.635 16.713-12.167 19.405a2.71 2.71 0 01-.681.519 2.75 2.75 0 01-1.326.364 2.783 2.783 0 01-1.195-.257c-6.917-3.205-12.443-8.452-14.987-11.144l4.002-1.444-.46-8.22a7.715 7.715 0 001.905-1.265l6.571-6.01 3.716-3.409c-.054 1.194.507 2.698 2.945 4.071 2.084 1.194 3.715 1.612 5.095 1.32l2.986 6.744a64.16 64.16 0 013.596-.674z" fill="#EFA08D"/><path d="M237.653 153.904a68.01 68.01 0 01-8.309 22.007c-6.499 10.882-15.334 18.355-23.709 23.422a87.599 87.599 0 01-5.877 3.235 79.405 79.405 0 01-3.913 1.827 90.262 90.262 0 01-7.544 2.865 3.087 3.087 0 01-3.386-1.02 3.073 3.073 0 01-.198-3.528 104.547 104.547 0 007.371-14.296 70.446 70.446 0 002.986-8.529 8.042 8.042 0 013.351-4.573c11.947-7.855 17.771-21.655 20.173-36.696.597-3.612.961-7.289 1.194-10.971 1.195-19.393-2.043-38.977-4.181-49.322a90.378 90.378 0 016.774-2.703 303.926 303.926 0 016.809 18.247c2.103 6.267 4.116 13.03 5.741 19.912.287 1.194.555 2.387.806 3.581.783 3.617 1.44 7.246 1.936 10.834.175 1.253.328 2.501.46 3.742a98.54 98.54 0 01.471 6.118 67.064 67.064 0 01-.955 15.848z" fill="#33313B"/><path d="M225.388 144.67l-25.088 2.083a56.31 56.31 0 01-54.717-4.978l-45.2-30.973 3.984-8.589 62.123 12.344s21.743-24.085 49.137-36.225c5.974 2.984 10.316 8.851 11.224 16.713 0 0-1.32 3.808-1.32 3.826 1.368 12.242 2.061 32.047-.143 45.799z" fill="#33313B"/><path d="M267.812 64.406a279.143 279.143 0 00-1.38 12.916l-7.324 13.466a2.988 2.988 0 01-4.181 1.194l-3.918-2.262-7.509-4.334a2.71 2.71 0 00.681-.519c2.533-2.662 7.974-9.132 12.168-19.405a76.592 76.592 0 0111.463-1.056z" fill="#2D4EF5"/><path d="M424.47 162.29l-.651 1.427-3.1 6.822-63.133-2.984a81.135 81.135 0 01-36.903-10.864c5.973 30.251 15.304 51.5 19.049 59.254a7.901 7.901 0 010 6.87c-7.652 15.817-19.491 27.552-29.24 35.252a122.018 122.018 0 01-10.979 7.76 5.432 5.432 0 01-6.712-.77 5.431 5.431 0 01-1.28-2.041c-.598-1.755-1.195-3.498-1.792-5.241-3.441-10.211-6.448-20.211-9.02-30a537.259 537.259 0 01-2.133-8.356 463.205 463.205 0 01-13.446-108.611c-.035-13.496.598-24.819 1.315-33.48a276.25 276.25 0 011.379-12.916c24.874-.352 53.164 12.475 82.29 63.39l74.356 34.488z" fill="#33313B"/><path d="M242.192 85.733l-5.184 7.162-1.601 2.215a2.594 2.594 0 01-3.584.597l-2.629-1.845a303.895 303.895 0 00-6.809-18.246c1.194-.418 2.389-.854 3.614-1.29 2.544 2.692 8.07 7.939 14.987 11.144.377.177.79.267 1.206.263z" fill="#2D4EF5"/><path d="M222.32 301.581l3.327 32.34 3.476 33.724 7.234 70.26-10.698 2.788-43.887-115.415v-.06a75.824 75.824 0 018.632-70.284l32.531-46.719a146.666 146.666 0 009.94 3.85 134.666 134.666 0 0028.493 6.566c5.707.663 11.454.906 17.197.728.681 2.77 1.386 5.563 2.133 8.357 2.584 9.773 5.591 19.773 9.019 30-11.857 12.284-33.546 30.447-67.397 43.865z" fill="#33313B"/><path d="M190.403 254.934a75.84 75.84 0 00-8.655 70.296v.059l-26.235-23.469a39.927 39.927 0 01-10.129-45.381 39.96 39.96 0 019.4-13.473l41.055-38.565a79.858 79.858 0 003.913-1.826 80.838 80.838 0 005.878-3.236 127.82 127.82 0 007.98 4.465 146.351 146.351 0 009.336 4.405l-32.543 46.725z" fill="#19181F"/><path d="M439.708 178.001a2.932 2.932 0 01-4.259 1.755l-5.018-2.8a.516.516 0 00-.615.094.522.522 0 00-.083.616l1.344 2.304a1.032 1.032 0 01-.825 1.555 1.032 1.032 0 01-.663-.188l-.048-.035a19.416 19.416 0 01-4.951-5.044l-3.871-5.718 3.1-6.823.651-1.426 7.55 2.447a10.16 10.16 0 016.165 5.575l1.195 2.71a7.366 7.366 0 01.328 4.978zm-335.339-75.787l-3.985 8.589-9.025-.382-7.222-.305 8.362-16.94 2.474.627a.813.813 0 001.087-.978l-.27-.914-1.009-3.45a.805.805 0 01.88-1.03.806.806 0 01.47.236l1.195 1.194.735.74a22.436 22.436 0 016.087 11.502l.221 1.111z" fill="#EFA08D"/><path d="M106.137.115L50.949 16.446a11.563 11.563 0 00-6.774 5.372L.36 98.423a2.726 2.726 0 00-.096 2.525l55.38-9.7a11.156 11.156 0 007.83-5.563l24.402-43.698 21.277-38.106a2.598 2.598 0 00-1.495-3.757 2.604 2.604 0 00-1.521-.009z" fill="#3C4F65"/><path d="M106.137.115l-1.057.31a2.593 2.593 0 01.86 3.456L84.663 41.987l-24.42 43.698a3.8 3.8 0 01-2.681 1.845L7.003 96.388a1.5 1.5 0 01-1.56-2.215L49.29 17.55c.125-.22.268-.436.406-.645a11.562 11.562 0 00-5.52 4.901L.361 98.423a2.715 2.715 0 00-.281 1.994c.045.182.107.36.185.531l55.38-9.7a12.65 12.65 0 001.069-.244h.09c.34-.096.668-.21.99-.335l.12-.047c.315-.132.625-.275.932-.43l.12-.06c.298-.161.597-.34.883-.525l.09-.066c.294-.193.577-.402.848-.626l.054-.042a11.262 11.262 0 002.252-2.531c.137-.203.263-.412.382-.627l24.402-43.698L109.154 3.91a2.602 2.602 0 00-3.017-3.796z" fill="#1F2C3E"/><path d="M114.094 48.887a3.354 3.354 0 01-.173.417l-28.672 56.854-7.682 15.173a6.182 6.182 0 01-7.688 2.985l-64.644-24.24-4.97.86a2.71 2.71 0 001.512 1.39l69.447 26.067a6.182 6.182 0 007.688-2.985l7.651-15.173 8.327-16.462.932-1.844-1.01-3.45a.805.805 0 011.35-.794l1.195 1.193 17.92-35.509a3.501 3.501 0 00-1.183-4.482z" fill="#19181F"/><path d="M250.083 91.558l-3.434 6.775h-5.466l-3.178-4.13a2.194 2.194 0 01-.036-2.627l.03-.035 4.181-5.808a2.751 2.751 0 001.327-.364l5.704 3.294a2.188 2.188 0 01.872 2.895z" fill="#E6F5FF"/><path d="M246.65 98.334c-.986 9.974-3.262 17.972-6.523 25.027a72.193 72.193 0 01-2.455 4.823 85.2 85.2 0 01-4.14 6.679c-4.689 6.871-10.346 13.329-16.564 20.706-11.206 13.287-15.776 24.586-17.412 29.642a4.345 4.345 0 01-3.889 2.985l-3.584.209-7.019.405a3.436 3.436 0 01-3.614-3.08l-.794-7.855-.359-3.581a7.558 7.558 0 01.329-3.05c2.575-7.945 7.622-15.43 13.966-22.336 7.269-7.915 16.253-15.071 25.19-21.291.872-.609 1.742-1.206 2.61-1.791a48.098 48.098 0 0012.544-12.069c5.914-8.356 6.254-15.453 6.254-15.453l5.46.03z" fill="#E6F5FF"/><path d="M289.724 257.745c-11.863 12.254-33.57 30.441-67.404 43.836 52.662-36.411 39.269-82.228 39.054-82.968a117.49 117.49 0 0017.198.728 467.256 467.256 0 0011.152 38.404zm50.016-34.93c-7.652 15.818-19.491 27.553-29.24 35.253 0 0 22.341-43.633-2.144-73.078-8.136-9.783-14.115-21.78-18.171-31.772-2.694-6.638 4.719-12.827 10.752-9.001l19.712 12.475c5.973 30.25 15.304 51.499 19.049 59.253a7.894 7.894 0 01.042 6.87zm84.732-60.525l-.651 1.427c-16.976-7.885-49.519-19.071-69.996-24.371-25.888-6.697-28.242-20.074-46.455-46.976-16.271-24.03-39.556-27.964-39.556-27.964 24.874-.352 53.164 12.475 82.29 63.39l74.368 34.494z" fill="#19181F"/><path d="M439.709 178.001a2.932 2.932 0 01-4.259 1.755c2.933.226 4.97-3.922-2.061-10.536-1.511-1.426-4.904-3.336-9.557-5.503l.651-1.426 7.55 2.447a10.16 10.16 0 016.165 5.575l1.195 2.71a7.365 7.365 0 01.316 4.978z" fill="#ED8B7B"/><path d="M219.769 127.653c-8.96 6.219-17.92 13.376-25.19 21.291a56.322 56.322 0 01-48.981-7.163c75.211 6.763 73.18-42.69 73.114-43.943a172.806 172.806 0 011.057 29.815zm-53.3-13.096l-4.181 3.707a5.342 5.342 0 01-8.53-2.089l-1.738-4.495 14.449 2.877z" fill="#19181F"/><path d="M278.571 219.365c-5.742.178-11.49-.066-17.197-.728a134.68 134.68 0 01-28.493-6.566c19.336 2.901 28.439-9.861 28.075-40.141-.359-28.872 3.99-60.537 4.181-61.104a463.177 463.177 0 0013.434 108.539z" fill="url(#paint0_linear)"/><path d="M229.326 175.912a95.63 95.63 0 01-15.728 27.886 125.14 125.14 0 01-7.981-4.464c8.375-5.068 17.21-12.541 23.709-23.422z" fill="#2D4EF5"/><path d="M246.65 98.334c-2.628 26.615-14.443 39.168-29.681 57.236-11.206 13.286-15.776 24.586-17.413 29.641a4.348 4.348 0 01-3.888 2.985l-10.615.597a3.44 3.44 0 01-3.614-3.08l-.794-7.855c13.362 9.872 31.378-20.295 37.435-36.363 6.057-16.068 22.991-26.914 25.44-33.88 2.449-6.965-2.335-9.317-2.335-9.317l5.465.036z" fill="#A9C7D8"/><path d="M250.084 91.558l-3.435 6.775h-5.465c-3.023-5.235 7.998-8.183 4.313-9.508-3.489-1.26-7.115 2.328-7.497 2.715l4.181-5.807a2.748 2.748 0 001.326-.364l5.705 3.294a2.188 2.188 0 01.872 2.895z" fill="#A9C7D8"/><path d="M87.878 41.987L69.235 91.123a12.602 12.602 0 01-11.588 8.136l-52.704.901.06-.042 50.642-8.87a11.157 11.157 0 007.832-5.563l24.4-43.698z" fill="#19181F"/><path d="M237.993 57.393c-.101.316-3.41 10.475-7.998 15.519l-.46-8.22a7.726 7.726 0 001.906-1.265l6.552-6.034zm-20.409-.334a3.879 3.879 0 00-2.39-1.546h-.125a2.431 2.431 0 01-1.571-1.027c1.008.365 2.061.59 3.13.668 1.249-.024 1.912 1.17.956 1.904z" fill="#ED8B7B"/><path d="M238.602 138.045a105.59 105.59 0 00-.932-9.861c4.582-8.237 7.765-17.536 8.96-29.844l3.435-6.775s4.062 24.019-11.463 46.48z" fill="#2D4EF5"/><path d="M238.129 131.927s-5.973 12.606-15.196 22.562c-8.243 8.888-13.201 22.443-16.284 32.65a5.101 5.101 0 01-5.131 3.629 24.374 24.374 0 01-9.45-2.345l3.584-.209a4.348 4.348 0 003.889-2.985c1.637-5.055 6.206-16.355 17.412-29.641 6.219-7.378 11.876-13.836 16.565-20.707a85.488 85.488 0 004.139-6.679c.183 1.242.341 2.483.472 3.725z" fill="#19181F"/><path d="M94.871 93.755l-3.512 16.666-4.796-.203 8.308-16.463z" fill="#ED8B7B"/><path d="M213.987 48.41c-1.792.286-4.372.238-6.098-1.875-1.727-2.113-2.36-5.969-.048-9.347-.054-2.43 1.368-.782 1.846-.8l4.3 12.022z" fill="#1F2C3E"/><path d="M242.389 51.99a3.743 3.743 0 00-.675 1.982l-10.274 9.425a7.655 7.655 0 01-12.186-2.674L218 57.793a3.76 3.76 0 00-.419-.74 3.874 3.874 0 00-2.389-1.547h-.125a2.441 2.441 0 01-1.571-1.026 2.626 2.626 0 01-.424-2.03c.246-1.48-.063-3-.867-4.268-2.347-4.112-2.986-10.952-2.986-10.952a16.858 16.858 0 001.714-.185 14.085 14.085 0 014.498-.042c8.004 1.26 11.469 9.663 22.508 8.088.257-.037.509-.1.752-.191a3.337 3.337 0 001.703-1.391c.735-1.23 2.198-2.764 4.558-1.486 3.637 1.963.764 8.463-2.563 9.968z" fill="#EFA08D"/><path d="M255.681 50.117v.053a23.684 23.684 0 01-1.327 4.25c-1.385 2.913-2.765 4.567-4.587 4.949-1.38.292-2.987-.15-5.095-1.32-2.438-1.372-2.987-2.895-2.945-4.07a3.734 3.734 0 01.675-1.982c3.327-1.51 6.2-8.01 2.568-9.98-2.389-1.277-3.823.257-4.557 1.486a3.443 3.443 0 01-2.461 1.588c-12.873 1.844-15.466-9.938-27.03-8.064a16.83 16.83 0 01-1.714.185c-.452.024-.905.024-1.356 0-8.877-.597-7.766-11.854.047-13.776 2.688-.657 4.743-2.125 6.673-3.856 4.271-3.82 7.932-8.954 16.48-9.449 8.244-.501 12.61 3.581 14.617 6.41a11.343 11.343 0 003.805 3.48c9.48 5.11 8.154 21.68 6.207 30.096z" fill="#3C4F65"/><path d="M238.692 44.9c-7.497 6.315-15.704 4.178-19.372-1.242-3.667-5.42-10.125-6.446-10.125-6.446a16.818 16.818 0 001.715-.185c11.564-1.874 14.157 9.908 27.029 8.064.257-.036.51-.1.753-.191z" fill="#ED8B7B"/><path d="M255.682 50.117c2.55-12.416-3.584-15.072-12.162-19.662-8.578-4.59-1.744-11.293-11.242-14.75-9.498-3.455-17.729 3.863-17.729 3.863 4.271-3.82 7.932-8.954 16.48-9.45 8.244-.5 12.61 3.582 14.617 6.411a11.352 11.352 0 003.805 3.48c9.504 5.122 8.178 21.691 6.231 30.108z" fill="#1F2C3E"/></g><defs><linearGradient id="paint0_linear" x1="232.881" y1="110.826" x2="232.881" y2="219.421" gradientUnits="userSpaceOnUse"><stop stop-color="#5986FB"/><stop offset="1" stop-color="#2D4EF5"/></linearGradient><clipPath id="clip0"><path fill="#fff" d="M0 0h440v220H0z"/></clipPath></defs></svg>