<svg width="70" height="64" viewBox="0 0 70 64" fill="none" xmlns="http://www.w3.org/2000/svg">
<path fill-rule="evenodd" clip-rule="evenodd" d="M66.7524 28C64.784 12.2147 51.3185 0 35 0C18.6815 0 5.21597 12.2147 3.24759 28H0V36H3.24759C5.21597 51.7853 18.6815 64 35 64C51.3185 64 64.784 51.7853 66.7524 36H70V28H66.7524ZM64.7357 28H62V36H64.7357C62.7801 50.6775 50.2123 62 35 62C19.7877 62 7.21991 50.6775 5.26434 36H8V28H5.26434C7.21991 13.3225 19.7877 2 35 2C50.2123 2 62.7801 13.3225 64.7357 28Z" fill="#202020"/>
<path d="M43.5681 36.9468C42.7606 36.9468 42.1054 36.2823 42.1054 35.4633C42.1054 34.6443 42.7606 33.9798 43.5681 33.9798C44.3757 33.9798 45.0309 34.6443 45.0309 35.4633C45.0309 36.2823 44.3757 36.9468 43.5681 36.9468ZM27.4623 36.9468C26.6548 36.9468 25.9996 36.2823 25.9996 35.4633C25.9996 34.6443 26.6548 33.9798 27.4623 33.9798C28.2699 33.9798 28.9251 34.6443 28.9251 35.4633C28.9251 36.2823 28.2699 36.9468 27.4623 36.9468ZM44.0862 28.0457L47.0118 22.9307C47.1794 22.6371 47.0727 22.2662 46.7832 22.0962C46.4937 21.9262 46.128 22.0344 45.9604 22.328L43.0044 27.5049C40.7492 26.454 38.2199 25.8668 35.5229 25.8668C32.8259 25.8668 30.2812 26.454 28.0261 27.4894L25.0701 22.3126C24.9025 22.019 24.5368 21.9108 24.2473 22.0808C23.9578 22.2508 23.8511 22.6216 24.0187 22.9153L26.929 28.0303C21.9312 30.7964 18.5028 35.9269 18 42H53C52.5124 35.9423 49.0993 30.8119 44.0862 28.0457Z" fill="white"/>
</svg>
