<svg width="70" height="64" viewBox="0 0 70 64" fill="none" xmlns="http://www.w3.org/2000/svg">
<path fill-rule="evenodd" clip-rule="evenodd" d="M66.7524 28C64.784 12.2147 51.3185 0 35 0C18.6815 0 5.21597 12.2147 3.24759 28H0V36H3.24759C5.21597 51.7853 18.6815 64 35 64C51.3185 64 64.784 51.7853 66.7524 36H70V28H66.7524ZM64.7357 28H62V36H64.7357C62.7801 50.6775 50.2123 62 35 62C19.7877 62 7.21991 50.6775 5.26434 36H8V28H5.26434C7.21991 13.3225 19.7877 2 35 2C50.2123 2 62.7801 13.3225 64.7357 28Z" fill="#202020"/>
<path d="M34.6947 24.6197C33.4824 24.6197 31.6059 23.2724 29.6298 23.3211C27.0226 23.3535 24.6312 24.7983 23.2861 27.0871C20.5793 31.681 22.5887 38.4664 25.2291 42.2C26.5244 44.0181 28.0522 46.0634 30.0781 45.9985C32.0211 45.9173 32.7518 44.7648 35.1099 44.7648C37.4513 44.7648 38.1156 45.9985 40.1748 45.9498C42.2672 45.9173 43.5957 44.0992 44.8744 42.2649C46.3523 40.1546 46.9668 38.1093 47 37.9956C46.9502 37.9794 42.9314 36.4697 42.8816 31.9245C42.8484 28.126 46.0534 26.3079 46.2029 26.2268C44.3762 23.6133 41.5697 23.3211 40.5899 23.2561C38.0326 23.0613 35.8904 24.6197 34.6947 24.6197ZM39.0123 20.7887C40.0918 19.5226 40.8058 17.7532 40.6066 16C39.0622 16.0649 37.2023 17.0064 36.0896 18.2726C35.0932 19.3927 34.2297 21.1945 34.4622 22.9152C36.1727 23.0451 37.9329 22.0549 39.0123 20.7887Z" fill="white"/>
</svg>
