<svg width="30" height="30" viewBox="0 0 30 30" fill="none" xmlns="http://www.w3.org/2000/svg">
<g clip-path="url(#clip0)">
<path d="M15 28C22.1797 28 28 22.1797 28 15C28 7.8203 22.1797 2 15 2C7.8203 2 2 7.8203 2 15C2 22.1797 7.8203 28 15 28Z" stroke="#39ACE6"/>
<path d="M4 13H0V17H4V13Z" fill="#39ACE6"/>
<path d="M30 13H26V17H30V13Z" fill="#39ACE6"/>
<path d="M10.8112 18.6502C12.9226 18.6502 14.2319 17.2779 14.2319 14.9964C14.2319 12.7187 12.9226 11.3499 10.8079 11.3499H8.25V18.6502H10.8112ZM9.92482 17.1459V12.8541H10.7233C11.9143 12.8541 12.5537 13.4244 12.5537 14.9964C12.5537 16.5756 11.9143 17.1459 10.747 17.1459H9.92482Z" fill="#39ACE6"/>
<path d="M21.7499 15C21.7499 12.5867 20.3018 11.25 18.4409 11.25C16.5732 11.25 15.1353 12.5867 15.1353 15C15.1353 17.4025 16.5732 18.75 18.4409 18.75C20.3018 18.75 21.7499 17.4133 21.7499 15ZM20.0379 15C20.0379 16.4294 19.4424 17.203 18.4409 17.203C17.4427 17.203 16.8438 16.4294 16.8438 15C16.8438 13.5706 17.4427 12.797 18.4409 12.797C19.4424 12.797 20.0379 13.5706 20.0379 15Z" fill="#39ACE6"/>
</g>
<defs>
<clipPath id="clip0">
<rect width="30" height="30" fill="white"/>
</clipPath>
</defs>
</svg>
