<svg width="180" height="40" viewBox="0 0 180 40" fill="none" xmlns="http://www.w3.org/2000/svg">
<path d="M19.9998 37.3333C29.5728 37.3333 37.3332 29.5729 37.3332 20C37.3332 10.4271 29.5728 2.66667 19.9998 2.66667C10.4269 2.66667 2.6665 10.4271 2.6665 20C2.6665 29.5729 10.4269 37.3333 19.9998 37.3333Z" stroke="#162F71"/>
<path d="M5.33334 17.3333H0V22.6667H5.33334V17.3333Z" fill="#162F71"/>
<path d="M39.9998 17.3333H34.6665V22.6667H39.9998V17.3333Z" fill="#162F71"/>
<path d="M14.415 24.8669C17.2301 24.8669 18.9759 23.0371 18.9759 19.9952C18.9759 16.9582 17.2301 15.1331 14.4105 15.1331H11V24.8669H14.415ZM13.2331 22.8612V17.1388H14.2977C15.8857 17.1388 16.7383 17.8992 16.7383 19.9952C16.7383 22.1008 15.8857 22.8612 14.3293 22.8612H13.2331Z" fill="#162F71"/>
<path d="M29.0002 20C29.0002 16.7823 27.0694 15 24.5882 15C22.0979 15 20.1807 16.7823 20.1807 20C20.1807 23.2034 22.0979 25 24.5882 25C27.0694 25 29.0002 23.2177 29.0002 20ZM26.7175 20C26.7175 21.9059 25.9235 22.9373 24.5882 22.9373C23.2573 22.9373 22.4588 21.9059 22.4588 20C22.4588 18.0941 23.2573 17.0627 24.5882 17.0627C25.9235 17.0627 26.7175 18.0941 26.7175 20Z" fill="#162F71"/>
<path d="M60.8433 10.861C63.1273 10.861 64.9 11.5041 66.1611 12.7905C67.4362 14.0906 68.0738 15.9232 68.0738 18.2884C68.0738 20.6604 67.4362 22.5104 66.1611 23.8382C64.8929 25.166 63.1203 25.8299 60.8433 25.8299H55V10.861H60.8433ZM58.1739 23.2365H60.4649C61.8872 23.2365 62.9697 22.8181 63.7124 21.9813C64.4621 21.1376 64.8369 19.9101 64.8369 18.2988C64.8369 16.7358 64.4586 15.536 63.7019 14.6992C62.9452 13.8624 61.8662 13.444 60.4649 13.444H58.1739V23.2365Z" fill="#162F71"/>
<path d="M74.2534 23.7552C74.9751 23.7552 75.5776 23.5581 76.061 23.1639C76.5585 22.7628 76.8072 22.2545 76.8072 21.639V20.7988L74.3795 20.9647C73.0693 21.0477 72.4142 21.5214 72.4142 22.3859C72.4142 22.8077 72.5824 23.1397 72.9187 23.3817C73.248 23.6307 73.6929 23.7552 74.2534 23.7552ZM73.255 25.9647C72.127 25.9647 71.1986 25.6501 70.47 25.0207C69.7273 24.3776 69.356 23.5512 69.356 22.5415C69.356 21.5111 69.7483 20.7019 70.533 20.1141C71.3037 19.5401 72.4318 19.2082 73.9171 19.1183L76.8072 18.9419V18.1846C76.8072 17.6383 76.6286 17.2165 76.2712 16.9191C75.9139 16.6286 75.4165 16.4834 74.7789 16.4834C74.2324 16.4834 73.7735 16.6148 73.4021 16.8776C73.0378 17.1335 72.8171 17.4723 72.74 17.8942H69.934C69.976 16.8015 70.4525 15.9163 71.3633 15.2386C72.2811 14.5539 73.4617 14.2116 74.905 14.2116C76.3903 14.2116 77.5814 14.5574 78.4782 15.249C79.375 15.9405 79.8234 16.8568 79.8234 17.9979V25.8299H76.8598V24.0664H76.7967C76.4884 24.6542 76.005 25.121 75.3464 25.4668C74.7088 25.7988 74.0117 25.9647 73.255 25.9647Z" fill="#162F71"/>
<path d="M81.8938 14.4087H84.8575V16.4523H84.9205C85.3199 15 86.2377 14.2739 87.674 14.2739C88.0173 14.2739 88.3046 14.3119 88.5358 14.388V17.0747C88.2626 16.9502 87.8947 16.888 87.4323 16.888C86.6546 16.888 86.0486 17.1127 85.6142 17.5622C85.1798 18.0118 84.9626 18.6376 84.9626 19.4398V25.8299H81.8938V14.4087Z" fill="#162F71"/>
<path d="M91.3629 30C90.7393 30 90.3505 29.9862 90.1963 29.9585V27.6141C90.3014 27.6349 90.5326 27.6452 90.8899 27.6452C92.025 27.6452 92.7081 27.2095 92.9393 26.3382L93.0444 25.9025L88.9877 14.4087H92.3508L94.852 23.3714H94.9151L97.4269 14.4087H100.664L96.6597 26.0581C96.1692 27.5104 95.5246 28.5304 94.7259 29.1183C93.9342 29.7061 92.8132 30 91.3629 30Z" fill="#162F71"/>
<path d="M101.82 14.4087H104.784V16.4523H104.847C105.526 14.9793 106.766 14.2427 108.567 14.2427C109.849 14.2427 110.858 14.6196 111.594 15.3734C112.322 16.1272 112.687 17.1715 112.687 18.5062V25.8299H109.618V19.139C109.618 18.3783 109.422 17.7939 109.029 17.3859C108.63 16.971 108.069 16.7635 107.348 16.7635C106.612 16.7635 106.02 16.9986 105.572 17.4689C105.116 17.9391 104.889 18.5546 104.889 19.3154V25.8299H101.82V14.4087Z" fill="#162F71"/>
<path d="M116.68 25.9544C116.211 25.9544 115.811 25.7918 115.482 25.4668C115.153 25.1418 114.988 24.7476 114.988 24.2842C114.988 23.814 115.153 23.4198 115.482 23.1017C115.811 22.7766 116.211 22.6141 116.68 22.6141C117.157 22.6141 117.556 22.7766 117.878 23.1017C118.208 23.4198 118.372 23.814 118.372 24.2842C118.372 24.7476 118.208 25.1418 117.878 25.4668C117.549 25.7918 117.15 25.9544 116.68 25.9544Z" fill="#162F71"/>
<path d="M125.676 26.027C123.918 26.027 122.527 25.5014 121.504 24.4502C120.481 23.399 119.97 21.9537 119.97 20.1141C119.97 18.2953 120.485 16.8534 121.515 15.7884C122.545 14.7372 123.932 14.2116 125.676 14.2116C127.428 14.2116 128.815 14.7372 129.838 15.7884C130.868 16.8465 131.383 18.2884 131.383 20.1141C131.383 21.9606 130.872 23.4094 129.849 24.4606C128.833 25.5048 127.442 26.027 125.676 26.027ZM125.676 23.6929C126.489 23.6929 127.123 23.3817 127.579 22.7593C128.034 22.13 128.262 21.2483 128.262 20.1141C128.262 18.9938 128.031 18.1155 127.568 17.4793C127.113 16.8499 126.482 16.5353 125.676 16.5353C124.864 16.5353 124.23 16.8499 123.774 17.4793C123.312 18.1155 123.081 18.9938 123.081 20.1141C123.081 21.2483 123.312 22.13 123.774 22.7593C124.23 23.3817 124.864 23.6929 125.676 23.6929Z" fill="#162F71"/>
<path d="M133.033 14.4087H135.997V16.4523H136.06C136.739 14.9793 137.98 14.2427 139.78 14.2427C141.062 14.2427 142.071 14.6196 142.807 15.3734C143.536 16.1272 143.9 17.1715 143.9 18.5062V25.8299H140.831V19.139C140.831 18.3783 140.635 17.7939 140.243 17.3859C139.843 16.971 139.283 16.7635 138.561 16.7635C137.825 16.7635 137.233 16.9986 136.785 17.4689C136.33 17.9391 136.102 18.5546 136.102 19.3154V25.8299H133.033V14.4087Z" fill="#162F71"/>
<path d="M146.023 10.1452H149.092V25.8299H146.023V10.1452Z" fill="#162F71"/>
<path d="M151.309 14.4087H154.378V25.8299H151.309V14.4087ZM152.843 13.1639C152.388 13.1639 151.999 13.0118 151.677 12.7075C151.355 12.4032 151.193 12.0263 151.193 11.5768C151.193 11.1272 151.355 10.7503 151.677 10.4461C151.999 10.1487 152.388 10 152.843 10C153.306 10 153.698 10.1487 154.021 10.4461C154.343 10.7503 154.504 11.1272 154.504 11.5768C154.504 12.0263 154.343 12.4032 154.021 12.7075C153.698 13.0118 153.306 13.1639 152.843 13.1639Z" fill="#162F71"/>
<path d="M156.511 14.4087H159.475V16.4523H159.538C160.218 14.9793 161.458 14.2427 163.258 14.2427C164.541 14.2427 165.549 14.6196 166.285 15.3734C167.014 16.1272 167.378 17.1715 167.378 18.5062V25.8299H164.309V19.139C164.309 18.3783 164.113 17.7939 163.721 17.3859C163.321 16.971 162.761 16.7635 162.039 16.7635C161.304 16.7635 160.712 16.9986 160.263 17.4689C159.808 17.9391 159.58 18.5546 159.58 19.3154V25.8299H156.511V14.4087Z" fill="#162F71"/>
<path d="M174.577 16.473C173.876 16.473 173.291 16.7012 172.822 17.1577C172.36 17.6141 172.1 18.2089 172.044 18.9419H177.036C177.008 18.195 176.77 17.5968 176.322 17.1473C175.873 16.6978 175.292 16.473 174.577 16.473ZM179.905 22.3444C179.737 23.4509 179.173 24.3396 178.213 25.0104C177.254 25.6881 176.069 26.027 174.661 26.027C172.903 26.027 171.515 25.5048 170.499 24.4606C169.491 23.4163 168.986 21.9848 168.986 20.166C168.986 18.3472 169.487 16.9018 170.489 15.8299C171.498 14.751 172.85 14.2116 174.546 14.2116C176.213 14.2116 177.537 14.7234 178.518 15.7469C179.506 16.7704 180 18.1501 180 19.8859V20.8195H172.013V21.0062C172.013 21.8292 172.262 22.4965 172.759 23.0083C173.256 23.5131 173.908 23.7656 174.714 23.7656C175.295 23.7656 175.796 23.6376 176.217 23.3817C176.644 23.1328 176.931 22.787 177.078 22.3444H179.905Z" fill="#162F71"/>
</svg>
