<svg width="1370" height="1205" viewBox="0 0 1370 1205" fill="none" xmlns="http://www.w3.org/2000/svg">
<g filter="url(#filter0_di)">
<path fill-rule="evenodd" clip-rule="evenodd" d="M503.487 710.545C594.978 710.545 651.716 651.087 651.716 552.244C651.716 453.559 594.978 394.254 503.342 394.254H392.5V710.545H503.487ZM465.076 645.372V459.427H499.676C551.285 459.427 578.994 484.136 578.994 552.244C578.994 620.663 551.285 645.372 500.702 645.372H465.076Z" fill="#0F0F10"/>
<path fill-rule="evenodd" clip-rule="evenodd" d="M834.11 389.929C914.749 389.929 977.5 447.843 977.5 552.399C977.5 656.956 914.749 714.87 834.11 714.87C753.176 714.87 690.866 656.491 690.866 552.399C690.866 447.843 753.176 389.929 834.11 389.929ZM834.11 647.844C877.507 647.844 903.312 614.33 903.312 552.399C903.312 490.468 877.507 456.955 834.11 456.955C790.855 456.955 764.905 490.468 764.905 552.399C764.905 614.33 790.855 647.844 834.11 647.844Z" fill="#0F0F10"/>
<path fill-rule="evenodd" clip-rule="evenodd" d="M1233.72 487.411C1201.55 212.955 968.147 0 685 0C401.853 0 168.454 212.955 136.283 487.411H100V584.893H133.44C150.264 874.851 390.772 1104.8 685 1104.8C979.228 1104.8 1219.74 874.851 1236.56 584.893H1270V487.411H1233.72ZM685 48.7411C428.813 48.7411 217.291 239.946 185.406 487.411H197.5V584.893H182.281C199.033 847.913 417.704 1056.06 685 1056.06C952.296 1056.06 1170.97 847.913 1187.72 584.893H1172.5V487.411H1184.59C1152.71 239.946 941.187 48.7411 685 48.7411Z" fill="#0F0F10"/>
</g>
<defs>
<filter id="filter0_di" x="0" y="-100" width="1370" height="1304.8" filterUnits="userSpaceOnUse" color-interpolation-filters="sRGB">
<feFlood flood-opacity="0" result="BackgroundImageFix"/>
<feColorMatrix in="SourceAlpha" type="matrix" values="0 0 0 0 0 0 0 0 0 0 0 0 0 0 0 0 0 0 127 0"/>
<feOffset/>
<feGaussianBlur stdDeviation="50"/>
<feColorMatrix type="matrix" values="0 0 0 0 1 0 0 0 0 1 0 0 0 0 1 0 0 0 0.04 0"/>
<feBlend mode="normal" in2="BackgroundImageFix" result="effect1_dropShadow"/>
<feBlend mode="normal" in="SourceGraphic" in2="effect1_dropShadow" result="shape"/>
<feColorMatrix in="SourceAlpha" type="matrix" values="0 0 0 0 0 0 0 0 0 0 0 0 0 0 0 0 0 0 127 0" result="hardAlpha"/>
<feOffset/>
<feGaussianBlur stdDeviation="10"/>
<feComposite in2="hardAlpha" operator="arithmetic" k2="-1" k3="1"/>
<feColorMatrix type="matrix" values="0 0 0 0 0 0 0 0 0 0 0 0 0 0 0 0 0 0 0.05 0"/>
<feBlend mode="normal" in2="shape" result="effect2_innerShadow"/>
</filter>
</defs>
</svg>
