<svg width="30" height="30" viewBox="0 0 30 30" fill="none" xmlns="http://www.w3.org/2000/svg">
<g clip-path="url(#clip0)">
<path d="M15 28C22.1797 28 28 22.1797 28 15C28 7.8203 22.1797 2 15 2C7.8203 2 2 7.8203 2 15C2 22.1797 7.8203 28 15 28Z" stroke="#162F71"/>
<path d="M4 13H0V17H4V13Z" fill="#162F71"/>
<path d="M30 13H26V17H30V13Z" fill="#162F71"/>
<path d="M10.8112 18.65C12.9226 18.65 14.2319 17.2776 14.2319 14.9962C14.2319 12.7184 12.9226 11.3496 10.8079 11.3496H8.25V18.65H10.8112ZM9.92482 17.1457V12.8539H10.7233C11.9143 12.8539 12.5537 13.4242 12.5537 14.9962C12.5537 16.5754 11.9143 17.1457 10.747 17.1457H9.92482Z" fill="#162F71"/>
<path d="M21.75 15C21.75 12.5867 20.3019 11.25 18.441 11.25C16.5733 11.25 15.1354 12.5867 15.1354 15C15.1354 17.4025 16.5733 18.75 18.441 18.75C20.3019 18.75 21.75 17.4133 21.75 15ZM20.038 15C20.038 16.4294 19.4425 17.203 18.441 17.203C17.4428 17.203 16.844 16.4294 16.844 15C16.844 13.5706 17.4428 12.797 18.441 12.797C19.4425 12.797 20.038 13.5706 20.038 15Z" fill="#162F71"/>
</g>
<defs>
<clipPath id="clip0">
<rect width="30" height="30" fill="white"/>
</clipPath>
</defs>
</svg>
