<svg width="275" height="405" fill="none" xmlns="http://www.w3.org/2000/svg"><path d="M173.62 35.122l-2.109-2.832-.809-10.168-11.98-8.236-16.365 2.422-3.776 6.348c-.221 2.11-.28 4.855.502 7.013 1.192 3.236 3.02 7.373 2.395 10.998a3.259 3.259 0 00.253 1.915c.343.736.932 1.33 1.667 1.677l.642.302a4.37 4.37 0 011.742 1.494c.137.203.258.415.362.637l.83 1.801a8.254 8.254 0 0011.214 3.922l.486-.254 2.794 5.324c4.212 2.298 9.11.135 9.115.13 3.436-2.73 3.366-9.91 8.275-12.466-1.009-1.92-3.312-6.295-5.238-10.027z" fill="#ED8B7B"/><path d="M108.871 157.704l-21.333 7.083a6.476 6.476 0 01-6.375-1.311l-30.61-27.283a3.235 3.235 0 011.04-5.458l17.066-6.23 4.316-1.575a4.486 4.486 0 014.525.868l25.648 22.838 3.064 2.729 3.695 3.291a2.945 2.945 0 01.965 2.828 2.95 2.95 0 01-2.001 2.22z" fill="#F8D0B0"/><path d="M108.871 157.704l-21.333 7.083a6.476 6.476 0 01-6.375-1.311l-30.61-27.283a3.235 3.235 0 011.04-5.458l17.066-6.23s-11.672 4.703-7.308 12.972c3.986 7.552 29.456.809 41.787 9.17a14.738 14.738 0 013.063 2.729l3.695 3.29a2.951 2.951 0 01-1.025 5.038z" fill="#F3B386"/><path d="M120.452 158.735c2.428 2.955 2.67 5.221 0 6.575l-4.083-.049a15.78 15.78 0 01-11.068-4.687l-4.364-4.412a1.386 1.386 0 011.424-2.287l7.012 2.335a.452.452 0 00.415-.793l-1.78-1.321a.846.846 0 01.642-1.511l4.315.686a7.262 7.262 0 013.933 1.968l3.554 3.496z" fill="#ED8B7B"/><path d="M137.384 404.45c75.874 0 137.383-3.939 137.383-8.798 0-4.858-61.509-8.797-137.383-8.797C61.509 386.855 0 390.794 0 395.652c0 4.859 61.509 8.798 137.384 8.798z" fill="url(#paint0_linear)"/><path d="M60.083 313.81l-9.66 57.456c-3.134 3.922-6.128 3.776-8.997 0L27.18 270.901a41.898 41.898 0 0118.545-40.918l77.43-50.703-39.338 69.916c-13.599 15.465-23.734 64.614-23.734 64.614z" fill="#4B6B53"/><path d="M54.344 379.832l-.938 1.208c-.232.302-.793.96-1.484 1.759l-.981 1.132a638.513 638.513 0 00-3.345 3.803l-4.951 5.739a6.258 6.258 0 01-4.758 2.158H25.363a2.285 2.285 0 01-2.238-1.861 2.289 2.289 0 011.402-2.551l6.203-2.438a4.473 4.473 0 002.303-2.034l8.393-15.502h8.997l3.603 3.603a3.776 3.776 0 01.318 4.984z" fill="#354456"/><path d="M257.523 386.817V242.319c0-6.047-4.902-10.95-10.95-10.95h-94.415c-6.048 0-10.95 4.903-10.95 10.95v144.498c0 6.048 4.902 10.95 10.95 10.95h94.415c6.048 0 10.95-4.902 10.95-10.95z" fill="url(#paint1_linear)"/><path d="M200.476 219.783a56.21 56.21 0 01-4.628 7.153c-.42.539-.852 1.078-1.294 1.618-18.291 21.575-48.589 15.405-48.589 15.405l-58.216 41.652 58.594 84.145-.739 6.079-4.903.637-80.618-62.662-2.837-2.206a35.739 35.739 0 01-13.647-24.853 35.745 35.745 0 018.744-26.972l70.811-80.499c.497.167 34.074-3.538 54.28 4.795 28.668 11.835 21.921 34.834 23.042 35.708z" fill="#709078"/><path d="M154.38 376.763l-.847 3.172-.388 1.434-2.897 10.74a4.457 4.457 0 01-4.374 3.57h-11.732a1.3 1.3 0 01-.958-.387 1.324 1.324 0 01-.289-.441 1.321 1.321 0 01-.091-.52 1.294 1.294 0 01.933-1.257 5.009 5.009 0 003.328-3.447l.044-.151 2.697-9.827.873-3.167 5.642-6.715 1.619.631 1.364.539 2.784 1.079a3.894 3.894 0 012.292 4.747z" fill="#4C5B6E"/><path d="M71.41 282.844a22.336 22.336 0 005.977 16.581l66.993 72.656-1.77 2.082-67.213-72.888a25.232 25.232 0 01-6.689-18.569 25.239 25.239 0 018.722-17.705l77.381-66.583 4.434-3.814c.863.421 1.735.856 2.616 1.306l-4.703 4.045-77.97 67.09a22.368 22.368 0 00-7.778 15.799z" fill="#4B6B53"/><path d="M198.616 218.354c-11.651-8.835-24.764-16.398-36.755-22.444l-4.703 4.045.658.432c18.765 12.406 11.365 41.452-11.025 43.48l-.826.07s30.298 6.187 48.589-15.405c.442-.539.874-1.046 1.294-1.618a56.27 56.27 0 004.628-7.152c-.614-.459-1.229-.939-1.86-1.408zM87.749 285.611l-1.84 1.375a5.224 5.224 0 001.025 8.96l11.565 5.097-10.75-15.432z" fill="#4B6B53"/><path d="M173.62 35.122l-1.586-1.386a4.202 4.202 0 01-1.434-3.7c.291-2.158.091-5.228-1.128-6.339a1.553 1.553 0 00-.766-.388c-2.362-.442-2.767 1.462-2.643 3.312a1.396 1.396 0 000 .13c.043.503.115 1.004.216 1.499.032.162.048.326.049.49a2.386 2.386 0 01-.961 1.92 2.263 2.263 0 01-3.311-.7 10.561 10.561 0 00-5.303-4.569 4.983 4.983 0 01-2.902-3.376 7.99 7.99 0 00-2.729-4.316 2.184 2.184 0 00-2.81.103c-1.85 1.618-5.718 4.612-9.742 4.854a7.889 7.889 0 01-2.157-.156c-6.311-1.37-2.12-9.71.539-13.172a27.535 27.535 0 016.004-5.35h.032c5.976-4.046 14.359-6.813 18.814.96 0 0 6.311-2.061 8.916 3.98 4.202 9.71-.269 20.033 2.336 25.109l.566 1.095z" fill="#F8D0B0"/><path d="M207.586 64.325c-4.92-8.145-11.63-14.025-14.996-16.662L158.9 67.29c-4.315 6.975-8.517 16.721-12.46 27.547-4.596 12.616-8.825 26.732-12.406 39.759a838.587 838.587 0 00-5.782 22.438l-2.277 9.542c-1.796 7.849-2.821 12.703-2.821 12.703s34.586 11.727 64.868 31.603c4.277 2.805 8.463 5.772 12.454 8.889 10.788-19.531 16.339-50.821 18.469-65.59a34.811 34.811 0 004.402-14.817c2.896-44.166-5.34-66.065-15.761-75.04z" fill="#587850"/><path d="M192.59 47.668a3.447 3.447 0 01-1.618 1.78c-4.606 2.368-15.41 8.485-24.85 18.091a3.932 3.932 0 01-4.245.917l-2.961-1.17-1.618-.631a2.43 2.43 0 01-.949-3.84 68.555 68.555 0 015.124-5.352 72.597 72.597 0 014.854-4.185 78.355 78.355 0 0112.536-8.145 76.973 76.973 0 0110.437-4.477 2.218 2.218 0 012.897 1.715l.598 3.436a3.403 3.403 0 01-.205 1.861z" fill="#78B0A0"/><path d="M223.347 139.365a34.81 34.81 0 01-4.402 14.855 35.232 35.232 0 01-31.635 17.983c-12.978-.329-28.162-1.079-42.202-2.67-6.759-.76-13.253-1.726-19.106-2.929-1.92-.393-3.775-.82-5.544-1.267v-6.602s2.999-.605 7.821-1.7c12.433-2.815 36.981-8.9 53.286-16.289 0 0-12.762-20.691-17.017-41.577-2.924-14.353 3.171-27.174 13.031-34.251a30.407 30.407 0 0115.26-5.69c4.806-.39 10 1.019 14.741 5.102 10.427 8.97 18.663 30.87 15.767 75.035z" fill="#6A8C61"/><path d="M223.347 139.365a34.823 34.823 0 01-4.401 14.855 35.242 35.242 0 01-31.636 17.983c-12.978-.329-28.162-1.079-42.202-2.67 53.988 4.855 58.098-11.656 59.802-27.547 1.705-15.89 15.039-43.982 2.697-64.7-12.19-20.421-29.521-12.568-30.001-12.347a30.411 30.411 0 0115.26-5.69c4.806-.389 10 1.02 14.741 5.102 10.4 8.949 18.637 30.848 15.74 75.014z" fill="#587850"/><path d="M218.945 154.193c-.938 6.516-2.546 16.252-4.973 26.775-3.069 13.318-7.46 27.903-13.485 38.837-3.991-3.118-8.177-6.085-12.454-8.889a19.149 19.149 0 007.411-12.407c1.548-10.075-9.046-14.984-29.98-19.197-20.599-4.147-38.879-12.449-39.44-12.708 18.01 3.701 42.073 5.108 61.297 5.594a35.24 35.24 0 0031.635-17.984l-.011-.021zm-37.385-13.447a135.008 135.008 0 01-8.161 3.355l-1.111.415-1.505.54-.141.048c-.539.2-1.078.388-1.618.583h-.032l-1.688.582-.076.027-1.618.54c-.669.226-1.338.447-2.012.663l-1.424.458a336.92 336.92 0 01-6.91 2.11c-10.34 3.026-20.319 5.437-26.91 6.925.885-.291 12.109-4.018 21.921-10.334 5.987-3.852 11.451-8.668 13.711-14.251 2.962-7.304 1.457-15.643.205-24.575-1.327-9.482-2.373-19.58 2.573-29.667a34.112 34.112 0 00-2.195 20.961 98.163 98.163 0 002.853 10.729c.68 2.087 1.408 4.142 2.158 6.127.189.496.377.993.572 1.478.383.976.776 1.942 1.17 2.881.097.237.2.469.297.701.097.232.194.464.296.696.195.458.394.911.594 1.359.097.221.194.448.296.674l.297.658a169.24 169.24 0 002.039 4.353l.286.583.539 1.127c.372.734.728 1.44 1.079 2.109l.512.982.049.097.442.83c.637 1.198 1.214 2.25 1.71 3.129l.356.631c.901 1.591 1.446 2.476 1.446 2.476zm26.026-76.421c-4.741-4.084-9.936-5.492-14.742-5.103a30.35 30.35 0 00-15.259 5.707c-5.227-2.325-11.171 2.384-11.468 2.621 9.44-9.606 20.244-15.723 24.85-18.091a3.45 3.45 0 001.618-1.78c3.371 2.627 10.082 8.5 15.001 16.645z" fill="#35512E"/><path d="M192.591 47.668a3.453 3.453 0 01-1.619 1.78c-4.606 2.368-15.41 8.485-24.849 18.091 1.709-7.147 14.229-14.979 16.856-16.37 2.626-1.392 9.822-5.394 3.878-6.036-5.853-.647-20.103 7.891-20.53 8.15a78.355 78.355 0 0112.536-8.145 77.002 77.002 0 0110.437-4.482 2.22 2.22 0 012.897 1.715l.599 3.436a3.403 3.403 0 01-.205 1.861z" fill="#478672"/><path d="M163.96 132.434c-2.26 5.582-7.725 10.399-13.712 14.251a293.717 293.717 0 01-16.182-12.088c3.56-13.027 7.789-27.143 12.406-39.759a143.306 143.306 0 0017.714 13.021c1.23 8.905 2.735 17.271-.226 24.575z" fill="#F8D0B0"/><path d="M181.56 140.746a135.008 135.008 0 01-8.161 3.355l-1.111.415-1.505.54-.141.048c-.539.2-1.078.388-1.618.583h-.032l-1.688.582-.076.027-1.618.54c-.669.226-1.338.447-2.012.663l-1.424.458a336.92 336.92 0 01-6.91 2.11 401.633 401.633 0 01-4.989-3.409c5.987-3.852 11.451-8.668 13.711-14.251 2.962-7.304 1.457-15.643.205-24.575 1.036.658 2.115 1.323 3.237 1.996a139.477 139.477 0 002.157 6.127 136.779 136.779 0 001.742 4.359c.098.237.2.469.297.701.097.232.194.464.297.696.194.458.394.911.593 1.359.097.221.194.448.297.674l.296.658a169.24 169.24 0 002.039 4.353l.286.583.54 1.127c.372.734.728 1.44 1.078 2.109l.513.982.048.097.443.83c.636 1.198 1.213 2.25 1.71 3.129l.356.631a68.831 68.831 0 001.44 2.503zm37.385 13.447c-.938 6.516-2.546 16.252-4.973 26.775a321.253 321.253 0 01-20.718-9.142 35.28 35.28 0 0025.691-17.633z" fill="#F3B386"/><path d="M159.246 194.604l-4.434 3.814c-16.824-10.934-31.199-18.879-31.646-19.122a330.924 330.924 0 0136.08 15.308z" fill="#4B6B53"/><path d="M161.861 195.91l-4.703 4.045-2.346-1.537 4.433-3.814c.863.421 1.735.856 2.616 1.306z" fill="#35512E"/><path d="M166.344 53.256c5.836-5.836 4.39-9.04.69-11.262-4.062-2.438-10.836-3.684-13.668-5.901-5.394-4.24 1.079-18.038-6.246-14.828-5.33 2.325-8.539 1.391-8.539 1.391 4.024-.232 7.891-3.198 9.742-4.854a2.183 2.183 0 012.81-.103 7.996 7.996 0 012.729 4.316 4.982 4.982 0 002.902 3.376 10.563 10.563 0 015.302 4.569 2.275 2.275 0 001.499 1.094 2.267 2.267 0 001.813-.393 2.384 2.384 0 00.96-1.92c0-.165-.016-.33-.048-.491-.416-2.066-.68-5.523 2.416-4.941.287.055.552.19.766.388 1.219 1.111 1.419 4.17 1.127 6.338a4.208 4.208 0 001.435 3.7l1.586 1.387c1.926 3.732 4.229 8.09 5.238 10.01a78.262 78.262 0 00-12.514 8.124zm-7.671-1.111l2.773-1.931a1.39 1.39 0 012.132.753c.083.284.073.587-.029.865l-2.06 5.637-2.816-5.324zm-12.891-6.095a4.37 4.37 0 00-1.742-1.494l-.642-.302a3.472 3.472 0 01-1.667-1.678s.949 1.273 3.377 1.252c1.941-.044 1.731 1.85.674 2.222z" fill="#E06855"/><path d="M173.62 35.122l-1.586-1.386a4.208 4.208 0 01-1.435-3.7c.292-2.158.092-5.228-1.127-6.339a1.553 1.553 0 00-.766-.388c-2.362-.442-2.767 1.462-2.643 3.312-.539-5.718-2.751-6.575-7.39-9.062-4.638-2.487-.21-10.389-4.735-13.582-4.316-3.042-10.459-.253-10.966 0 5.976-4.045 14.358-6.812 18.814.96 0 0 6.311-2.06 8.916 3.981 4.202 9.71-.27 20.033 2.335 25.109l.583 1.095z" fill="#F3B386"/><path d="M137.697 389.644c1.08.15 2.146.388 3.188.712a2.061 2.061 0 001.604-.137 2.061 2.061 0 001.022-1.244l1.662-5.804a2.052 2.052 0 00-1.338-2.524 26.752 26.752 0 00-4.66-1.117 2.053 2.053 0 00-1.465.409c-.417.32-.696.787-.779 1.306l-.982 6.015a2.05 2.05 0 00.974 2.113c.237.141.5.233.774.271zm15.448-8.302a9.91 9.91 0 01-5.2-10.971l1.365.539a8.468 8.468 0 004.223 9.025l-.388 1.407zM34.16 385.226a20.05 20.05 0 012.87 1.559 2.065 2.065 0 001.582.309 2.055 2.055 0 001.325-.919l3.188-5.108a2.054 2.054 0 00-.599-2.794 26.815 26.815 0 00-4.175-2.352 2.048 2.048 0 00-2.627 1.036l-2.61 5.513a2.054 2.054 0 001.046 2.756zm18.102-12.12l-1.03-1.03a9.892 9.892 0 00-.292 11.866l.982-1.132a8.477 8.477 0 01.34-9.704z" fill="#F8D0B0"/><defs><linearGradient id="paint0_linear" x1="173.852" y1="395.652" x2="-100.915" y2="395.652" gradientUnits="userSpaceOnUse"><stop stop-color="#fff" stop-opacity="0"/><stop offset=".06" stop-color="#FAFBFB" stop-opacity=".1"/><stop offset=".28" stop-color="#ECEDED" stop-opacity=".42"/><stop offset=".47" stop-color="#E0E2E2" stop-opacity=".67"/><stop offset=".64" stop-color="#D8DADA" stop-opacity=".85"/><stop offset=".77" stop-color="#D3D5D6" stop-opacity=".96"/><stop offset=".86" stop-color="#D1D3D4"/></linearGradient><linearGradient id="paint1_linear" x1="-77651.3" y1="146901" x2="-77651.3" y2="81887.6" gradientUnits="userSpaceOnUse"><stop stop-color="#fff" stop-opacity="0"/><stop offset=".06" stop-color="#FAFBFB" stop-opacity=".1"/><stop offset=".28" stop-color="#ECEDED" stop-opacity=".42"/><stop offset=".47" stop-color="#E0E2E2" stop-opacity=".67"/><stop offset=".64" stop-color="#D8DADA" stop-opacity=".85"/><stop offset=".77" stop-color="#D3D5D6" stop-opacity=".96"/><stop offset=".86" stop-color="#D1D3D4"/></linearGradient></defs></svg>