<svg width="21" height="22" viewBox="0 0 21 22" fill="none" xmlns="http://www.w3.org/2000/svg">
<path d="M4.16667 8.36842V2.57895C4.16667 1.70737 4.876 1 5.75 1C6.624 1 7.33333 1.70737 7.33333 2.57895V9.42105C7.33333 11.1653 5.91572 12.5789 4.16667 12.5789M4.16667 12.5789C2.41761 12.5789 1 11.1653 1 9.42105V4.15789M4.16667 12.5789V18.8947C4.16667 20.0579 5.11139 21 6.27778 21H17.8889C19.0553 21 20 20.0579 20 18.8947V4.15789C20 2.99474 19.0553 2.05263 17.8889 2.05263H7.33333M10.5 7.31579H15.7778M10.5 11.5263H15.7778M8.38889 15.7368H15.7778" stroke="#026FFF" stroke-width="1.5" stroke-linecap="round" stroke-linejoin="round"/>
</svg>
