<svg width="24" height="24" viewBox="0 0 24 24" fill="none" xmlns="http://www.w3.org/2000/svg">
<path d="M17.3473 5.75201C18.282 5.58325 19.2612 5.48523 20.3344 5.44885C20.9083 5.42965 21.3894 5.88439 21.3894 6.45836V18.4199C21.3894 18.9676 20.9518 19.4203 20.4051 19.4284C17.2806 19.4759 14.9281 20.0519 12.2947 21.6M12.2947 21.6C9.66126 20.0519 7.30877 19.4759 4.18424 19.4294C3.63755 19.4213 3.2 18.9676 3.2 18.4199V6.45836C3.2 5.89348 3.66383 5.42965 4.2277 5.44784C7.331 5.54789 9.67339 6.13197 12.2947 7.60025M12.2947 21.6V7.06063C12.6453 5.19926 14.1409 3.39144 15.9154 2.50218C16.5732 2.17174 17.3473 2.68609 17.3473 3.42276V15.7774C17.3473 16.2058 17.0775 16.5888 16.6712 16.7252C14.5795 17.4276 12.6948 19.4789 12.2947 21.6Z" stroke="#697285" stroke-linecap="round" stroke-linejoin="round"/>
</svg>
