<svg width="15" height="12" viewBox="0 0 15 12" fill="none" xmlns="http://www.w3.org/2000/svg">
<path d="M11.9668 2.9667H12.6668C13.4403 2.9667 14.0668 3.5932 14.0668 4.3667V9.2667C14.0668 10.0402 13.4403 10.6667 12.6668 10.6667H4.9668C4.1933 10.6667 3.5668 10.0402 3.5668 9.2667V8.5667M9.5168 2.9667H9.8668M3.5668 6.1167H3.9168M2.9249 8.1586H10.508C11.3137 8.1586 11.9661 7.5055 11.9661 6.7005V2.3255C11.9668 1.5198 11.3137 0.866699 10.5087 0.866699H2.9249C2.1199 0.866699 1.4668 1.5198 1.4668 2.3248V6.6998C1.4668 7.5055 2.1199 8.1586 2.9249 8.1586ZM7.5267 3.7388C7.9537 4.1658 7.9537 4.8588 7.5267 5.2858C7.0997 5.7128 6.4067 5.7128 5.9797 5.2858C5.5527 4.8588 5.5527 4.1658 5.9797 3.7388C6.4067 3.3118 7.0997 3.3118 7.5267 3.7388Z" stroke="#448743" stroke-linecap="round" stroke-linejoin="round"/>
</svg>
