<svg width="24" height="24" viewBox="0 0 24 24" fill="none" xmlns="http://www.w3.org/2000/svg">
<path d="M16.68 9.31982L10.293 15.7068C10.1055 15.8944 9.8512 15.9998 9.586 15.9998H8C7.73478 15.9998 7.48043 15.8945 7.29289 15.7069C7.10536 15.5194 7 15.265 7 14.9998V13.4138C7.00009 13.1483 7.1042 12.8935 7.29 12.7038L14.32 5.51382C14.6792 5.14643 15.1077 4.85395 15.5807 4.65332C16.0536 4.45269 16.5617 4.3479 17.0755 4.34501C17.5893 4.34213 18.0986 4.44121 18.5738 4.63652C19.049 4.83183 19.4807 5.11949 19.844 5.48282L19.916 5.55482C20.287 5.92288 20.5812 6.36099 20.7814 6.84369C20.9817 7.32639 21.0841 7.84408 21.0826 8.36667C21.0811 8.88926 20.9758 9.40635 20.7728 9.88791C20.5698 10.3695 20.2731 10.8059 19.9 11.1718C17.542 13.4808 14.312 16.6948 12.462 18.5408C11.5245 19.4754 10.2547 20.0001 8.931 19.9998H6C5.20435 19.9998 4.44129 19.6838 3.87868 19.1211C3.31607 18.5585 3 17.7955 3 16.9998V14.0708C3.00002 12.745 3.52662 11.4735 4.464 10.5358L10.68 4.31982" stroke="#848E9F" stroke-width="1.5" stroke-linecap="round" stroke-linejoin="round"/>
</svg>
