<svg width="18" height="20" viewBox="0 0 18 20" fill="none" xmlns="http://www.w3.org/2000/svg">
<path d="M14.6569 3.27578C16.1571 4.73294 17 6.70927 17 8.77C17 10.8307 16.1571 12.8071 14.6569 14.2642L10.333 18.4637C9.9795 18.8071 9.49999 19 9 19C8.50002 19 8.02051 18.8071 7.66696 18.4637L3.34315 14.2642C1.84285 12.8071 1 10.8307 1 8.77C1 6.70927 1.84285 4.73294 3.34315 3.27578C4.84344 1.81862 6.87827 1 9 1C11.1217 1 13.1566 1.81862 14.6569 3.27578Z" stroke="#848E9F" stroke-linecap="round" stroke-linejoin="round"/>
<path d="M9.00027 11.4362C10.5162 11.4362 11.7452 10.2426 11.7452 8.77018C11.7452 7.29779 10.5162 6.10418 9.00027 6.10418C7.48429 6.10418 6.25535 7.29779 6.25535 8.77018C6.25535 10.2426 7.48429 11.4362 9.00027 11.4362Z" stroke="#848E9F" stroke-linecap="round" stroke-linejoin="round"/>
</svg>
