<svg width="24" height="24" viewBox="0 0 24 24" fill="none" xmlns="http://www.w3.org/2000/svg">
<path d="M12 16.8889L17.6051 11.2838C18.0635 10.8255 18.6852 10.5681 19.3333 10.5681C19.9815 10.5681 20.6032 10.8255 21.0616 11.2838L23 13.2222M1.43144 20.1204L6.60144 14.9504C7.05985 14.4922 7.68149 14.2347 8.32967 14.2347C8.97785 14.2347 9.59949 14.4922 10.0579 14.9504L17.9009 22.7934M1 5.88889C1 4.59227 1.51508 3.34877 2.43192 2.43192C3.34877 1.51508 4.59227 1 5.88889 1H18.1111C19.4077 1 20.6512 1.51508 21.5681 2.43192C22.4849 3.34877 23 4.59227 23 5.88889V18.1111C23 19.4077 22.4849 20.6512 21.5681 21.5681C20.6512 22.4849 19.4077 23 18.1111 23H5.88889C4.59227 23 3.34877 22.4849 2.43192 21.5681C1.51508 20.6512 1 19.4077 1 18.1111V5.88889ZM8.33333 6.5C8.33333 7.51252 7.51252 8.33333 6.5 8.33333C5.48748 8.33333 4.66667 7.51252 4.66667 6.5C4.66667 5.48748 5.48748 4.66667 6.5 4.66667C7.51252 4.66667 8.33333 5.48748 8.33333 6.5Z" stroke="white" stroke-linecap="round" stroke-linejoin="round"/>
</svg>
