<svg width="30" height="30" viewBox="0 0 30 30" fill="none" xmlns="http://www.w3.org/2000/svg">
<path d="M27 15C27 18.1826 25.7357 21.2348 23.4853 23.4853C21.2348 25.7357 18.1826 27 15 27M27 15C27 11.8174 25.7357 8.76516 23.4853 6.51472C21.2348 4.26428 18.1826 3 15 3C11.8174 3 8.76516 4.26428 6.51472 6.51472C4.26428 8.76516 3 11.8174 3 15C3.00019 16.4056 3.25019 17.8 3.73835 19.1181C3.84652 19.4148 4.05546 19.664 4.32867 19.8222C4.60189 19.9805 4.92201 20.0378 5.23315 19.984L6.54807 19.7522C7.05931 19.662 7.51547 19.3766 7.82013 18.9563C8.1248 18.5359 8.25408 18.0136 8.18067 17.4997L7.78491 14.7294C7.74698 14.464 7.65607 14.2089 7.51758 13.9793C7.37909 13.7497 7.19584 13.5503 6.97874 13.3929C6.76163 13.2356 6.5151 13.1235 6.2538 13.0633C5.99251 13.0031 5.72178 12.9961 5.45772 13.0427L3.11027 13.4566M27 15C26.9998 16.4056 26.7498 17.8 26.2617 19.1181C26.1535 19.4148 25.9445 19.664 25.6713 19.8222C25.3981 19.9805 25.078 20.0378 24.7669 19.984L23.4519 19.7522C22.9407 19.662 22.4845 19.3766 22.1799 18.9563C21.8752 18.5359 21.7459 18.0136 21.8193 17.4997L22.2151 14.7294C22.253 14.464 22.3439 14.2089 22.4824 13.9793C22.6209 13.7497 22.8042 13.5503 23.0213 13.3929C23.2384 13.2356 23.4849 13.1235 23.7462 13.0633C24.0075 13.0031 24.2782 12.9961 24.5423 13.0427L26.8897 13.4566M16.9901 15.6547C16.9881 15.6547 16.9862 15.6552 16.9845 15.6563C16.9829 15.6574 16.9816 15.659 16.9808 15.6608C16.9801 15.6626 16.9799 15.6646 16.9803 15.6666C16.9807 15.6685 16.9816 15.6703 16.983 15.6717C16.9844 15.6731 16.9862 15.674 16.9881 15.6744C16.99 15.6748 16.992 15.6746 16.9938 15.6738C16.9957 15.6731 16.9972 15.6718 16.9983 15.6702C16.9994 15.6685 17 15.6666 17 15.6646C17.0001 15.6633 16.9999 15.662 16.9994 15.6607C16.9989 15.6595 16.9982 15.6583 16.9973 15.6574C16.9963 15.6565 16.9952 15.6557 16.994 15.6553C16.9927 15.6548 16.9914 15.6546 16.9901 15.6547ZM13.0099 15.6587C13.008 15.6587 13.0061 15.6593 13.0044 15.6603C13.0028 15.6614 13.0015 15.663 13.0007 15.6648C13 15.6666 12.9998 15.6686 13.0002 15.6706C13.0006 15.6725 13.0015 15.6743 13.0029 15.6757C13.0043 15.6771 13.0061 15.678 13.008 15.6784C13.0099 15.6788 13.0119 15.6786 13.0138 15.6778C13.0156 15.6771 13.0171 15.6758 13.0182 15.6742C13.0193 15.6725 13.0199 15.6706 13.0199 15.6686C13.02 15.6673 13.0198 15.6659 13.0193 15.6647C13.0189 15.6634 13.0181 15.6623 13.0172 15.6614C13.0162 15.6604 13.0151 15.6597 13.0139 15.6592C13.0126 15.6588 13.0113 15.6586 13.0099 15.6587Z" stroke="white" stroke-linecap="round" stroke-linejoin="round"/>
</svg>
