<svg width="30" height="30" viewBox="0 0 30 30" fill="none" xmlns="http://www.w3.org/2000/svg">
<path d="M4.67734 9.5C4.67734 6.46278 7.14012 4 10.1773 4C13.2146 4 15.6773 6.46278 15.6773 9.5M21.0062 8.81678L18.6669 6.47744L21.1443 4M18.6669 6.48111L26.0002 6.44444M12.0107 15V9.5C12.0107 8.488 11.1893 7.66667 10.1773 7.66667C9.16534 7.66667 8.34401 8.488 8.34401 9.5V18.6667L7.24279 17.5654C6.5009 16.8236 5.29823 16.8236 4.55634 17.5654C3.9159 18.2059 3.8169 19.2093 4.31923 19.9622L7.61801 24.911C8.07145 25.5918 8.83534 26 9.65301 26H16.1161C17.3493 26 18.3882 25.0821 18.5422 23.8587L19.2047 18.5579C19.3672 17.2538 18.4701 16.0536 17.1733 15.8421L12.0107 15Z" stroke="white" stroke-linecap="round" stroke-linejoin="round"/>
</svg>
