<svg width="22" height="22" viewBox="0 0 22 22" fill="none" xmlns="http://www.w3.org/2000/svg">
<path d="M15.7144 13.0311V15.2533M16.8255 14.1422H14.6033M14.9288 5.96001V8.18223M16.0399 7.07112H13.8177M6.74661 6.28556H8.96883M7.85772 5.17445V7.39667M5.24105 19.1667L11.3555 13.0522C11.7888 12.6189 11.7888 11.9145 11.3555 11.4811L10.5199 10.6456C10.0866 10.2122 9.38217 10.2111 8.94883 10.6456L2.83327 16.7589M7.44439 12.1556L9.84439 14.5556M18.0711 3.92894C21.9763 7.83419 21.9763 14.1658 18.0711 18.0711C14.1658 21.9763 7.83416 21.9763 3.92894 18.0711C0.0236878 14.1658 0.0236878 7.83416 3.92894 3.92894C7.83419 0.0236878 14.1658 0.0236878 18.0711 3.92894Z" stroke="url(#paint0_linear)" stroke-width="1.5" stroke-linecap="round" stroke-linejoin="round"/>
<defs>
<linearGradient id="paint0_linear" x1="1" y1="1" x2="1" y2="21" gradientUnits="userSpaceOnUse">
<stop stop-color="#5986FB"/>
<stop offset="1" stop-color="#2D4EF5"/>
</linearGradient>
</defs>
</svg>
